<svg width="1920" height="1070" viewBox="0 0 1920 1070" fill="none" xmlns="http://www.w3.org/2000/svg">
<g clip-path="url(#clip0)">
<g clip-path="url(#clip1)">
<path d="M835.227 673.218C835.227 709.835 827.093 749.239 814.065 782.07L728.957 782.747L678.21 783.159C664.939 750.109 656.626 710.233 656.626 673.218C656.626 589.118 699.569 551.691 745.927 551.691C754.615 551.691 763.184 553.014 771.378 555.701C806.878 567.365 835.227 604.888 835.227 673.218Z" fill="#DD8C22"/>
<path d="M835.227 673.218C835.227 709.835 827.093 749.239 814.065 782.07L728.957 782.747C715.769 749.784 707.529 710.077 707.529 673.218C707.529 604.888 735.879 567.365 771.378 555.701C806.878 567.365 835.227 604.888 835.227 673.218Z" fill="#EFA233"/>
<path d="M1027.62 966.553L1041.9 1003.63H1076.68L1105.27 934.116L1027.62 966.553Z" fill="#B28344"/>
<path d="M1239.99 966.553L1225.71 1003.63H1190.93L1162.34 934.116L1239.99 966.553Z" fill="#B28344"/>
<path d="M1200.74 946.823L1198.9 959.604L1196.71 974.88L1175.9 1119.73H1091.72L1070.9 974.88L1068.71 959.604L1066.25 942.502L1084.42 934.116L1184.06 929.561L1184.4 930.499L1200.74 946.823Z" fill="#515F75"/>
<path d="M1133.8 959.609H1154.28V1119.73H1133.8V959.609Z" fill="#3B485B"/>
<path d="M1105.27 934.116L1184.4 930.499L1184.05 929.566L1084.42 934.116L1066.25 942.497L1091.71 1119.73H1112.57L1083.39 916.721L1105.27 934.116Z" fill="#3B485B"/>
<path d="M1240 817.089V966.557H1197.91V959.604H1069.71V966.557H1027.62V817.089L1077.07 767.641H1190.55L1240 817.089Z" fill="#515F75"/>
<path d="M1190.55 767.641L1194.32 817.45H1172.63L1176.24 837.335L1140.15 885.538H1127.47L1091.38 837.335L1094.99 817.45H1073.3L1077.07 767.641" fill="#3B485B"/>
<path d="M1095.6 767.641H1077.07L1027.62 817.089V966.557H1046.16V817.089L1095.6 767.641Z" fill="#3B485B"/>
<path d="M1190.13 767.641L1150.36 832.753L1133.8 859.848L1117.25 832.753L1077.48 767.641H1190.13Z" fill="#CCCCCC"/>
<path d="M1157.25 797.112L1133.8 818.045L1110.36 797.112L1133.8 776.16L1157.25 797.112Z" fill="#F74866"/>
<path d="M1157.25 767.586L1133.8 776.16L1110.36 767.586L1133.8 734.279L1157.25 767.586Z" fill="#9E6C30"/>
<path d="M1150.36 832.831L1133.8 859.931L1117.25 832.831L1133.8 818.045L1150.36 832.831Z" fill="#F74866"/>
<path d="M1065.89 709.02C1054.76 709.02 1045.74 700.949 1045.74 690.988C1045.74 681.032 1054.76 672.957 1065.89 672.957H1200.02C1211.15 672.957 1220.16 681.032 1220.16 690.988C1220.16 700.949 1211.14 709.02 1200.02 709.02" fill="#9E6C30"/>
<path d="M1200.02 633.493V700.565C1200.02 737.602 1169.99 767.627 1132.95 767.627C1114.44 767.627 1097.66 760.12 1085.53 747.984C1073.39 735.849 1065.88 719.081 1065.88 700.565V633.493H1200.02Z" fill="#B28344"/>
<path d="M1133.88 767.627C1152.22 767.504 1168.79 760.019 1180.83 747.989C1192.97 735.849 1200.48 719.086 1200.48 700.565V633.498H1170.28V700.565C1170.28 719.086 1166.16 735.849 1159.48 747.989C1152.91 759.937 1143.88 767.394 1133.88 767.627Z" fill="#9E6C30"/>
<path d="M1156.81 699.832C1154.35 699.832 1152.36 697.841 1152.36 695.383V686.067C1152.36 683.609 1154.35 681.618 1156.81 681.618C1159.27 681.618 1161.26 683.609 1161.26 686.067V695.383C1161.26 697.841 1159.27 699.832 1156.81 699.832Z" fill="#293544"/>
<path d="M1109.09 699.832C1106.64 699.832 1104.65 697.841 1104.65 695.383V686.067C1104.65 683.609 1106.64 681.618 1109.09 681.618C1111.55 681.618 1113.54 683.609 1113.54 686.067V695.383C1113.54 697.841 1111.55 699.832 1109.09 699.832Z" fill="#293544"/>
<path d="M1065.88 633.493V676C1070.48 679.291 1093.5 673 1111.5 668.5C1129.5 664 1130.34 664.644 1146.98 660.007C1146.98 660.007 1146.98 660.007 1146.98 659.998C1161.48 655.965 1170.74 650.641 1170.74 650.641C1170.74 650.641 1176.86 680.075 1200.02 680.075V633.493H1065.88Z" fill="#9E6C30"/>
<path d="M1080 671C1111 664.5 1137.34 657.53 1153.98 652.889C1153.98 652.889 1153.98 652.889 1153.98 652.884C1168.47 648.847 1177.74 643.523 1177.74 643.523C1177.74 643.523 1183.86 672.957 1207.02 672.957C1207.02 672.957 1222.43 645.693 1221.95 620.474C1221.7 607.391 1210.91 597.609 1198.65 597.609C1196.36 597.609 1194.02 597.948 1191.69 598.676C1185.12 581.047 1167.78 569.891 1149 571.031C1146.08 571.21 1143.13 571.443 1140.18 571.713C1139.61 571.759 1139.05 571.809 1138.48 571.864C1138.42 571.869 1138.36 571.878 1138.3 571.883C1107.65 574.757 1082.5 578.5 1055 598.676C1027.5 618.851 1049 677.5 1080 671Z" fill="#515F75"/>
<path d="M1149 571.031C1146.08 571.21 1143.13 571.443 1140.18 571.714C1167.23 570.569 1188.71 630.133 1153.98 652.884C1168.47 648.847 1177.74 643.523 1177.74 643.523C1177.74 643.523 1183.85 672.957 1207.02 672.957C1207.02 672.957 1222.43 645.693 1221.95 620.475C1221.7 607.392 1210.91 597.609 1198.65 597.609C1196.36 597.609 1194.02 597.948 1191.69 598.676C1185.12 581.047 1167.78 569.892 1149 571.031Z" fill="#3B485B"/>
<path d="M1134.61 571.887C1134.55 571.878 1134.49 571.869 1134.43 571.865C1134.49 571.869 1134.54 571.878 1134.6 571.883L1134.61 571.887Z" fill="#F4AF9D"/>
<path d="M1132.95 735.474C1125.86 735.474 1118.76 732.768 1113.35 727.367C1111.62 725.632 1111.62 722.812 1113.35 721.077C1115.09 719.342 1117.91 719.342 1119.64 721.077C1126.98 728.415 1138.92 728.415 1146.26 721.077C1148 719.342 1150.81 719.342 1152.55 721.077C1154.29 722.812 1154.29 725.632 1152.55 727.367C1147.15 732.768 1140.05 735.474 1132.95 735.474Z" fill="#9E6C30"/>
<path d="M1198.9 959.604L1196.71 974.88H1070.9L1068.71 959.604H1198.9Z" fill="#3B485B"/>
<path d="M1125.62 883.057H1140.15V969.895H1125.62V883.057Z" fill="#3B485B"/>
<path d="M1203.39 849.384C1200.36 849.384 1197.91 851.837 1197.91 854.868V966.558H1208.87V854.868C1208.87 851.842 1206.42 849.384 1203.39 849.384Z" fill="#3B485B"/>
<path d="M1064.13 849.384C1061.1 849.384 1058.65 851.837 1058.65 854.868V966.558H1069.61V854.868C1069.61 851.842 1067.16 849.384 1064.13 849.384Z" fill="#3B485B"/>
<path d="M640 948.38L654.282 985.454H689.063L717.65 915.938L640 948.38Z" fill="#F4AF9D"/>
<path d="M852.375 948.38L838.093 985.454H803.312L774.725 915.938L852.375 948.38Z" fill="#F4AF9D"/>
<path d="M813.122 928.646L811.277 941.426L809.089 956.702L788.284 1119.73H704.101L683.277 956.702L681.089 941.426L678.631 924.329L696.799 915.938L796.436 911.383L796.78 912.322L813.122 928.646Z" fill="#515F75"/>
<path d="M746.183 941.431H766.663V1119.73H746.183V941.431Z" fill="#3B485B"/>
<path d="M717.65 915.938L796.779 912.326L796.427 911.388L696.795 915.938L678.626 924.32L704.096 1119.73H724.952L695.774 898.543L717.65 915.938Z" fill="#3B485B"/>
<path d="M852.384 798.915V948.38H810.288V941.426H682.091V948.38H640V798.915L689.452 749.463H802.932L852.384 798.915Z" fill="#515F75"/>
<path d="M802.932 749.463L806.704 799.272H785.01L788.627 819.158L752.527 867.36H739.857L703.757 819.158L707.374 799.272H685.68L689.452 749.463" fill="#3B485B"/>
<path d="M707.987 749.463H689.448L640 798.915V948.38H658.539V798.915L707.987 749.463Z" fill="#3B485B"/>
<path d="M802.511 749.463L762.74 814.575L746.183 841.675L729.625 814.575L689.855 749.463H802.511Z" fill="#CCCCCC"/>
<path d="M769.63 778.938L746.183 799.872L722.736 778.938L746.183 757.987L769.63 778.938Z" fill="#F74866"/>
<path d="M769.63 749.408L746.183 757.987L722.736 749.408L746.183 716.101L769.63 749.408Z" fill="#EA9E8F"/>
<path d="M762.74 814.658L746.183 841.753L729.625 814.658L746.183 799.872L762.74 814.658Z" fill="#F74866"/>
<path d="M811.277 941.426L809.089 956.702H683.277L681.089 941.426H811.277Z" fill="#3B485B"/>
<path d="M737.998 864.879H752.527V951.721H737.998V864.879Z" fill="#3B485B"/>
<path d="M815.772 831.21C812.746 831.21 810.288 833.664 810.288 836.69V948.38H821.256V836.69C821.256 833.664 818.802 831.21 815.772 831.21Z" fill="#3B485B"/>
<path d="M676.511 831.21C673.481 831.21 671.027 833.664 671.027 836.69V948.38H681.991V836.69C681.991 833.664 679.537 831.21 676.511 831.21Z" fill="#3B485B"/>
<path d="M808.443 636.556V686.937C808.443 721.466 780.456 749.468 745.926 749.468C745.78 749.468 745.633 749.468 745.492 749.454H745.331C728.303 749.307 712.899 742.326 701.725 731.152C690.418 719.832 683.41 704.208 683.41 686.937V636.556C683.41 636.556 694.208 620.168 711.567 614.244C721.226 610.948 732.921 610.875 745.926 618.68C753.768 613.979 761.124 612.134 767.862 612.134C792.348 612.134 808.443 636.556 808.443 636.556Z" fill="#F9C2AF"/>
<path d="M745.427 749.454H745.331C728.303 749.307 712.899 742.326 701.725 731.152C690.418 719.832 683.41 704.208 683.41 686.937V636.556C683.41 636.556 694.208 620.168 711.567 614.244V686.951C711.567 704.208 715.407 719.832 721.624 731.152C727.735 742.267 736.135 749.211 745.427 749.454Z" fill="#EA9E8F"/>
<path d="M769.19 681.655C766.736 681.655 764.745 679.663 764.745 677.21V667.89C764.745 665.431 766.736 663.44 769.19 663.44C771.648 663.44 773.639 665.431 773.639 667.89V677.21C773.639 679.663 771.648 681.655 769.19 681.655Z" fill="#293544"/>
<path d="M721.477 681.655C719.019 681.655 717.028 679.663 717.028 677.21V667.89C717.028 665.431 719.019 663.44 721.477 663.44C723.931 663.44 725.922 665.431 725.922 667.89V677.21C725.922 679.663 723.931 681.655 721.477 681.655Z" fill="#293544"/>
<path d="M746.993 553.71C746.929 553.701 746.87 553.696 746.806 553.687C746.865 553.696 746.925 553.701 746.984 553.705L746.993 553.71Z" fill="#F4AF9D"/>
<path d="M745.331 717.296C738.236 717.296 731.136 714.595 725.734 709.189C723.995 707.454 723.995 704.639 725.734 702.899C727.469 701.164 730.289 701.164 732.024 702.899C739.362 710.237 751.305 710.237 758.643 702.899C760.378 701.164 763.193 701.164 764.933 702.899C766.668 704.639 766.668 707.454 764.933 709.189C759.531 714.595 752.431 717.296 745.331 717.296Z" fill="#E06E86"/>
<path d="M829.661 948.37L843.938 985.449H878.719L907.307 915.933L829.661 948.37Z" fill="#F4AF9D"/>
<path d="M1042.03 948.37L1027.75 985.449H992.972L964.38 915.933L1042.03 948.37Z" fill="#F4AF9D"/>
<path d="M1002.78 928.641L1000.94 941.422L998.75 956.697L977.944 1119.73H893.761L872.933 956.697L870.75 941.422L868.292 924.32L886.456 915.933L986.097 911.379L986.44 912.317L1002.78 928.641Z" fill="#515F75"/>
<path d="M935.844 941.426H956.324V1119.73H935.844V941.426Z" fill="#3B485B"/>
<path d="M907.306 915.933L986.435 912.322L986.088 911.383L886.455 915.933L868.287 924.315L893.752 1119.73H914.608L885.434 898.538L907.306 915.933Z" fill="#3B485B"/>
<path d="M1042.04 798.911V948.375H999.949V941.422H871.752V948.375H829.661V798.911L879.108 749.458H992.592L1042.04 798.911Z" fill="#515F75"/>
<path d="M992.592 749.458L996.36 799.268H974.671L978.283 819.153L942.188 867.356H929.513L893.418 819.153L897.03 799.268H875.341L879.108 749.458" fill="#3B485B"/>
<path d="M897.643 749.458H879.108L829.661 798.911V948.375H848.195V798.911L897.643 749.458Z" fill="#3B485B"/>
<path d="M992.171 749.458L952.401 814.571L935.843 841.67L919.282 814.571L879.516 749.458H992.171Z" fill="#CCCCCC"/>
<path d="M959.286 778.934L935.844 799.863L912.397 778.934L935.844 757.982L959.286 778.934Z" fill="#F74866"/>
<path d="M959.286 749.404L935.844 757.982L912.397 749.404L935.844 716.097L959.286 749.404Z" fill="#EA9E8F"/>
<path d="M952.401 814.653L935.844 841.748L919.282 814.653L935.844 799.863L952.401 814.653Z" fill="#F74866"/>
<path d="M867.925 690.842C856.802 690.842 847.784 682.767 847.784 672.811C847.784 662.85 856.802 654.779 867.925 654.779H1002.06C1013.19 654.779 1022.2 662.85 1022.2 672.811C1022.2 682.767 1013.18 690.842 1002.06 690.842" fill="#EA9E8F"/>
<path d="M1002.06 615.315V682.382C1002.06 719.42 972.034 749.449 934.992 749.449C916.476 749.449 899.703 741.937 887.568 729.807C875.433 717.671 867.925 700.899 867.925 682.382V615.315H1002.06Z" fill="#F9C2AF"/>
<path d="M934.516 749.445C916.183 749.326 899.607 741.841 887.568 729.807C875.433 717.667 867.925 700.904 867.925 682.382V615.315H898.119V682.382C898.119 700.904 902.244 717.667 908.918 729.807C915.487 741.754 924.523 749.216 934.516 749.445Z" fill="#EA9E8F"/>
<path d="M958.851 681.65C956.393 681.65 954.401 679.659 954.401 677.205V667.885C954.401 665.427 956.393 663.436 958.851 663.436C961.309 663.436 963.3 665.427 963.3 667.885V677.205C963.3 679.659 961.304 681.65 958.851 681.65Z" fill="#293544"/>
<path d="M911.133 681.65C908.68 681.65 906.688 679.659 906.688 677.205V667.885C906.688 665.427 908.68 663.436 911.133 663.436C913.592 663.436 915.583 665.427 915.583 667.885V677.205C915.583 679.659 913.592 681.65 911.133 681.65Z" fill="#293544"/>
<path d="M1002.06 615.315V632.12C997.468 635.411 991.97 638.3 985.438 640.657C961.135 649.41 937.606 646.462 920.971 641.825C920.971 641.825 920.966 641.825 920.966 641.815C906.469 637.787 897.204 632.459 897.204 632.459C897.204 632.459 891.093 661.893 867.925 661.893V615.315H1002.06Z" fill="#EA9E8F"/>
<path d="M985.433 633.539C961.135 642.296 937.606 639.348 920.966 634.711C920.966 634.711 920.962 634.711 920.962 634.702C906.473 630.664 897.208 625.34 897.208 625.34C897.208 625.34 891.088 654.775 867.925 654.775C867.925 654.775 852.512 627.515 852.998 602.292C853.249 589.214 864.03 579.431 876.289 579.431C878.577 579.431 880.921 579.766 883.251 580.498C889.82 562.865 907.165 551.709 925.942 552.849C928.867 553.032 931.811 553.261 934.763 553.531C935.326 553.577 935.899 553.632 936.466 553.682C936.521 553.687 936.581 553.696 936.64 553.7C967.292 556.58 998.338 562.183 1016.58 542C1016.58 542 1046.73 611.456 985.433 633.539Z" fill="#515F75"/>
<path d="M925.942 552.849C928.867 553.032 931.811 553.261 934.763 553.531C907.719 552.391 886.231 611.951 920.962 634.702C906.474 630.664 897.208 625.34 897.208 625.34C897.208 625.34 891.093 654.775 867.925 654.775C867.925 654.775 852.512 627.515 852.998 602.292C853.249 589.214 864.034 579.431 876.293 579.431C878.582 579.431 880.926 579.765 883.251 580.498C889.82 562.865 907.165 551.709 925.942 552.849Z" fill="#3B485B"/>
<path d="M936.654 553.705C936.589 553.696 936.53 553.691 936.466 553.682C936.525 553.691 936.58 553.696 936.64 553.7L936.654 553.705Z" fill="#F4AF9D"/>
<path d="M934.992 717.291C927.897 717.291 920.797 714.591 915.395 709.184C913.656 707.449 913.656 704.634 915.395 702.895C917.13 701.16 919.946 701.16 921.685 702.895C929.023 710.233 940.962 710.233 948.299 702.895C950.039 701.16 952.854 701.16 954.589 702.895C956.329 704.634 956.329 707.449 954.589 709.184C949.188 714.591 942.092 717.291 934.992 717.291Z" fill="#E06E86"/>
<path d="M1000.94 941.422L998.749 956.697H872.933L870.75 941.422H1000.94Z" fill="#3B485B"/>
<path d="M927.654 864.875H942.188V951.712H927.654V864.875Z" fill="#3B485B"/>
<path d="M1005.43 831.206C1002.4 831.206 999.949 833.66 999.949 836.685V948.375H1010.91V836.685C1010.91 833.66 1008.46 831.206 1005.43 831.206Z" fill="#3B485B"/>
<path d="M866.172 831.206C863.142 831.206 860.688 833.66 860.688 836.685V948.375H871.651V836.685C871.651 833.66 869.198 831.206 866.172 831.206Z" fill="#3B485B"/>
</g>
<path d="M1412.34 730.047C1412.34 682.712 1441.13 642.102 1482.15 624.764C1474.91 610.761 1470.79 594.878 1470.79 578.025C1470.79 521.748 1516.41 476.127 1572.69 476.127C1588.72 476.127 1603.88 479.841 1617.38 486.438C1629.37 443.506 1668.74 412 1715.5 412C1762.26 412 1801.63 443.506 1813.62 486.438C1827.12 479.84 1842.28 476.127 1858.32 476.127C1914.59 476.127 1960.21 521.748 1960.21 578.025C1960.21 594.878 1956.1 610.761 1948.85 624.764C1989.87 642.103 2018.66 682.712 2018.66 730.047C2018.66 791.39 1970.29 841.376 1909.62 844.112C1901.17 874.748 1868.5 897.588 1829.47 897.588C1807.34 897.588 1787.27 890.24 1772.48 878.308C1757.69 890.24 1737.62 897.588 1715.5 897.588C1693.38 897.588 1673.31 890.24 1658.52 878.308C1643.73 890.24 1623.66 897.588 1601.53 897.588C1562.5 897.588 1529.84 874.748 1521.38 844.11C1460.71 841.375 1412.34 791.39 1412.34 730.047Z" fill="#129B12"/>
<path d="M1721.61 412.202C1722.87 412.278 1724.12 412.368 1725.36 412.489C1725.74 412.526 1726.12 412.569 1726.5 412.61C1727.83 412.754 1729.16 412.92 1730.48 413.116C1730.72 413.152 1730.97 413.187 1731.22 413.226C1732.79 413.47 1734.35 413.743 1735.89 414.057C1735.89 414.057 1735.9 414.059 1735.9 414.059C1709.15 419.499 1684.1 438.129 1668.24 461.613C1657 478.243 1637.8 487.829 1617.78 486.467C1617.64 486.458 1617.51 486.449 1617.38 486.439C1629.37 443.506 1668.74 412 1715.5 412C1717.14 412 1718.77 412.048 1720.39 412.124C1720.8 412.144 1721.2 412.179 1721.61 412.202Z" fill="#097C09"/>
<path d="M1482.15 624.764C1474.9 610.761 1470.79 594.878 1470.79 578.025C1470.79 521.748 1516.41 476.127 1572.69 476.127C1579.67 476.127 1586.49 476.833 1593.08 478.174C1546.58 487.624 1511.58 528.736 1511.58 578.025C1511.58 594.878 1515.7 610.761 1522.94 624.764C1481.92 642.103 1453.14 682.712 1453.14 730.047C1453.14 791.39 1501.5 841.375 1562.17 844.11C1569.1 869.221 1592.3 889.083 1621.93 895.435C1615.41 896.836 1608.58 897.587 1601.53 897.587C1562.5 897.587 1529.83 874.747 1521.38 844.109C1460.71 841.373 1412.34 791.389 1412.34 730.045C1412.34 682.712 1441.13 642.102 1482.15 624.764Z" fill="#097C09"/>
<path d="M1788.46 861.431C1797.65 877.017 1835.74 894.446 1849.86 895.437C1848.31 895.77 1846.73 896.061 1845.14 896.32C1845.02 896.341 1844.89 896.364 1844.76 896.383C1843.15 896.639 1841.53 896.858 1839.88 897.034C1839.84 897.038 1839.8 897.041 1839.76 897.046C1838.28 897.202 1836.79 897.314 1835.29 897.403C1834.92 897.424 1834.56 897.445 1834.19 897.464C1832.62 897.539 1831.05 897.589 1829.47 897.589C1809.29 897.589 1790.83 891.463 1776.52 881.336L1774.01 879.511L1786.79 858.542L1788.46 861.431Z" fill="#009000"/>
<path d="M1664.55 887.45L1620.89 818.562C1617.44 813.112 1618.49 805.958 1623.35 801.724C1628.55 797.203 1636.37 797.498 1641.21 802.4L1673.36 834.95C1677.62 839.267 1684.93 835.677 1684.12 829.665L1674.66 759.616C1673.65 752.132 1679.19 745.354 1686.72 744.845L1695.58 744.246C1702.24 743.797 1708.16 748.438 1709.32 755.008L1726.19 850.89C1727.13 856.222 1733.9 857.981 1737.32 853.781L1790.17 788.78C1793.83 784.282 1800.01 782.735 1805.36 784.981L1814.61 788.87C1821.94 791.95 1824.84 800.806 1820.75 807.621L1766.44 898.152C1758.57 911.263 1755.33 926.643 1757.29 941.806C1764.33 996.094 1773.08 1047.29 1808.86 1089H1622.15C1660.45 1044.35 1669.9 988.829 1674.97 930.282C1676.27 915.247 1672.63 900.195 1664.55 887.45Z" fill="#BF6101"/>
<path d="M1620.89 818.561C1617.44 813.112 1618.48 805.958 1623.35 801.724C1628.55 797.203 1636.37 797.498 1641.21 802.399L1655.57 816.935L1673.36 834.948C1677.62 839.265 1684.93 835.675 1684.12 829.663L1674.66 759.615C1673.68 752.32 1678.92 745.713 1686.16 744.911L1712.74 910.148C1713.19 912.282 1713.54 914.436 1713.78 916.606C1714.29 921.121 1714.36 925.7 1713.96 930.279C1708.89 988.828 1699.44 1044.35 1661.14 1089H1622.15C1660.45 1044.35 1669.9 988.828 1674.97 930.281C1676.27 915.247 1672.63 900.197 1664.55 887.45L1620.89 818.561Z" fill="#9A4D01"/>
<path d="M1734.89 491.997C1763.48 491.997 1788.09 508.964 1799.25 533.37C1810.77 525.227 1824.83 520.425 1840.01 520.425C1879.08 520.425 1910.76 552.098 1910.76 591.167C1910.76 604.057 1907.29 616.132 1901.27 626.54C1935.19 631.756 1961.17 661.071 1961.17 696.454C1961.17 735.523 1929.5 767.195 1890.43 767.195C1851.36 767.195 1664.15 601.807 1664.15 562.738C1664.15 523.669 1695.82 491.997 1734.89 491.997Z" fill="#28A528"/>
<g clip-path="url(#clip2)">
<path d="M2355.63 1120.22H1882.8C1879.87 1120.22 1877.53 1117.83 1877.59 1114.91C1878.02 1094.07 1877.91 1017.67 1854.24 988.818C1853.58 988.011 1854.39 986.85 1855.38 987.196C1866.65 991.155 1900.26 1004.78 1908.62 1028.98C1908.96 1029.95 1910.33 1029.9 1910.6 1028.91L1923.64 980.295C1923.89 979.369 1925.15 979.247 1925.57 980.109L1940.15 1009.97C1940.49 1010.68 1941.47 1010.76 1941.93 1010.11L1969.72 970.408C1970.25 969.66 1971.41 969.905 1971.59 970.8L1984.49 1035.61C1984.7 1036.69 1986.24 1036.73 1986.51 1035.66L2009.78 942.785C2010.04 941.752 2011.5 941.734 2011.79 942.76L2031.37 1013.24C2031.63 1014.17 2032.92 1014.27 2033.31 1013.38L2055.94 962.668C2056.33 961.79 2057.6 961.872 2057.88 962.793L2076.02 1023.47C2076.32 1024.49 2077.77 1024.45 2078.02 1023.42L2088.71 978.86C2088.95 977.886 2090.29 977.777 2090.68 978.701L2120.3 1049.33C2120.65 1050.18 2121.85 1050.18 2122.21 1049.33L2161.84 955.721C2162.3 954.636 2163.93 955.029 2163.83 956.203C2162.35 974.257 2160.2 1023.9 2178.63 1046.64C2179.14 1047.27 2180.14 1047.12 2180.42 1046.35L2199.9 992.427C2200.24 991.481 2201.6 991.527 2201.87 992.494L2218.1 1049.26C2218.36 1050.15 2219.55 1050.29 2220 1049.49C2225.84 1039.19 2250.02 992.84 2237.96 951.195C2237.96 951.195 2269.57 992.722 2270.65 1023.31C2270.69 1024.44 2272.25 1024.69 2272.65 1023.63L2285.74 988.928C2286.09 987.991 2287.44 988.05 2287.71 989.014L2303.64 1045.84C2303.95 1046.93 2305.54 1046.81 2305.67 1045.68C2307.42 1029.76 2316.56 985.056 2364.39 952.85C2365.2 952.303 2366.25 953.099 2365.95 954.031C2361.31 968.449 2342.11 1035.97 2360.69 1113.8C2361.47 1117.08 2359 1120.22 2355.63 1120.22Z" fill="#43A838"/>
</g>
<g clip-path="url(#clip3)">
<path d="M1.36711 1120.22H474.201C477.128 1120.22 479.468 1117.83 479.407 1114.91C478.975 1094.07 479.09 1017.67 502.759 988.818C503.421 988.011 502.605 986.85 501.62 987.196C490.346 991.155 456.739 1004.78 448.375 1028.98C448.042 1029.95 446.666 1029.9 446.402 1028.91L433.359 980.295C433.111 979.369 431.846 979.247 431.426 980.109L416.852 1009.97C416.506 1010.68 415.524 1010.76 415.071 1010.11L387.275 970.408C386.752 969.66 385.587 969.905 385.409 970.8L372.512 1035.61C372.296 1036.69 370.758 1036.73 370.49 1035.66L347.216 942.785C346.957 941.752 345.496 941.734 345.211 942.76L325.633 1013.24C325.373 1014.17 324.083 1014.27 323.687 1013.38L301.063 962.668C300.671 961.79 299.398 961.872 299.123 962.793L280.979 1023.47C280.676 1024.49 279.225 1024.45 278.978 1023.42L268.286 978.86C268.052 977.886 266.709 977.777 266.322 978.701L236.703 1049.33C236.348 1050.18 235.15 1050.18 234.792 1049.33L195.156 955.721C194.697 954.636 193.071 955.029 193.168 956.203C194.652 974.257 196.801 1023.9 178.372 1046.64C177.858 1047.27 176.855 1047.12 176.578 1046.35L157.096 992.427C156.754 991.481 155.401 991.527 155.124 992.494L138.895 1049.26C138.642 1050.15 137.453 1050.29 136.999 1049.49C131.16 1039.19 106.979 992.84 119.042 951.195C119.042 951.195 87.4261 992.722 86.3501 1023.31C86.3101 1024.44 84.7461 1024.69 84.3481 1023.63L71.2591 988.928C70.9061 987.991 69.5611 988.05 69.2911 989.014L53.3581 1045.84C53.0511 1046.93 51.4541 1046.81 51.3301 1045.68C49.5821 1029.76 40.4371 985.056 -7.38989 952.85C-8.20189 952.303 -9.24689 953.099 -8.94689 954.031C-4.31489 968.449 14.8871 1035.97 -3.68689 1113.8C-4.46989 1117.08 -1.99889 1120.22 1.36711 1120.22Z" fill="#43A838"/>
<path d="M87.5782 1072.74C92.4936 1072.74 96.4782 1068.76 96.4782 1063.84C96.4782 1058.92 92.4936 1054.94 87.5782 1054.94C82.6629 1054.94 78.6782 1058.92 78.6782 1063.84C78.6782 1068.76 82.6629 1072.74 87.5782 1072.74Z" fill="#338727"/>
<path d="M409.478 1059.8C414.393 1059.8 418.378 1055.82 418.378 1050.9C418.378 1045.98 414.393 1042 409.478 1042C404.563 1042 400.578 1045.98 400.578 1050.9C400.578 1055.82 404.563 1059.8 409.478 1059.8Z" fill="#338727"/>
</g>
<g clip-path="url(#clip4)">
<path d="M946.367 1120.22H1419.2C1422.13 1120.22 1424.47 1117.83 1424.41 1114.91C1423.98 1094.07 1424.09 1017.67 1447.76 988.818C1448.42 988.011 1447.61 986.85 1446.62 987.196C1435.35 991.155 1401.74 1004.78 1393.38 1028.98C1393.04 1029.95 1391.67 1029.9 1391.4 1028.91L1378.36 980.295C1378.11 979.369 1376.85 979.247 1376.43 980.109L1361.85 1009.97C1361.51 1010.68 1360.52 1010.76 1360.07 1010.11L1332.28 970.408C1331.75 969.66 1330.59 969.905 1330.41 970.8L1317.51 1035.61C1317.3 1036.69 1315.76 1036.73 1315.49 1035.66L1292.22 942.785C1291.96 941.752 1290.5 941.734 1290.21 942.76L1270.63 1013.24C1270.37 1014.17 1269.08 1014.27 1268.69 1013.38L1246.06 962.668C1245.67 961.79 1244.4 961.872 1244.12 962.793L1225.98 1023.47C1225.68 1024.49 1224.23 1024.45 1223.98 1023.42L1213.29 978.86C1213.05 977.886 1211.71 977.777 1211.32 978.701L1181.7 1049.33C1181.35 1050.18 1180.15 1050.18 1179.79 1049.33L1140.16 955.721C1139.7 954.636 1138.07 955.029 1138.17 956.203C1139.65 974.257 1141.8 1023.9 1123.37 1046.64C1122.86 1047.27 1121.86 1047.12 1121.58 1046.35L1102.1 992.427C1101.75 991.481 1100.4 991.527 1100.12 992.494L1083.9 1049.26C1083.64 1050.15 1082.45 1050.29 1082 1049.49C1076.16 1039.19 1051.98 992.84 1064.04 951.195C1064.04 951.195 1032.43 992.722 1031.35 1023.31C1031.31 1024.44 1029.75 1024.69 1029.35 1023.63L1016.26 988.928C1015.91 987.991 1014.56 988.05 1014.29 989.014L998.358 1045.84C998.051 1046.93 996.454 1046.81 996.33 1045.68C994.582 1029.76 985.437 985.056 937.61 952.85C936.798 952.303 935.753 953.099 936.053 954.031C940.685 968.449 959.887 1035.97 941.313 1113.8C940.53 1117.08 943.001 1120.22 946.367 1120.22Z" fill="#43A838"/>
<path d="M1032.58 1072.74C1037.49 1072.74 1041.48 1068.76 1041.48 1063.84C1041.48 1058.92 1037.49 1054.94 1032.58 1054.94C1027.66 1054.94 1023.68 1058.92 1023.68 1063.84C1023.68 1068.76 1027.66 1072.74 1032.58 1072.74Z" fill="#338727"/>
<path d="M1354.48 1059.8C1359.39 1059.8 1363.38 1055.82 1363.38 1050.9C1363.38 1045.98 1359.39 1042 1354.48 1042C1349.56 1042 1345.58 1045.98 1345.58 1050.9C1345.58 1055.82 1349.56 1059.8 1354.48 1059.8Z" fill="#338727"/>
</g>
<g clip-path="url(#clip5)">
<path d="M953.631 1120.22H480.797C477.87 1120.22 475.53 1117.83 475.591 1114.91C476.023 1094.07 475.908 1017.67 452.239 988.818C451.577 988.011 452.393 986.85 453.378 987.196C464.652 991.155 498.259 1004.78 506.623 1028.98C506.956 1029.95 508.332 1029.9 508.596 1028.91L521.639 980.295C521.887 979.369 523.152 979.247 523.572 980.109L538.146 1009.97C538.492 1010.68 539.474 1010.76 539.927 1010.11L567.723 970.408C568.246 969.66 569.411 969.905 569.589 970.8L582.486 1035.61C582.702 1036.69 584.24 1036.73 584.508 1035.66L607.782 942.785C608.041 941.752 609.502 941.734 609.787 942.76L629.365 1013.24C629.625 1014.17 630.915 1014.27 631.311 1013.38L653.935 962.668C654.327 961.79 655.6 961.872 655.875 962.793L674.019 1023.47C674.322 1024.49 675.773 1024.45 676.02 1023.42L686.712 978.86C686.946 977.886 688.289 977.777 688.676 978.701L718.295 1049.33C718.65 1050.18 719.848 1050.18 720.206 1049.33L759.842 955.721C760.301 954.636 761.927 955.029 761.83 956.203C760.346 974.257 758.197 1023.9 776.626 1046.64C777.14 1047.27 778.143 1047.12 778.42 1046.35L797.902 992.427C798.244 991.481 799.597 991.527 799.874 992.494L816.103 1049.26C816.356 1050.15 817.545 1050.29 817.999 1049.49C823.838 1039.19 848.019 992.84 835.956 951.195C835.956 951.195 867.572 992.722 868.648 1023.31C868.688 1024.44 870.252 1024.69 870.65 1023.63L883.739 988.928C884.092 987.991 885.437 988.05 885.707 989.014L901.64 1045.84C901.947 1046.93 903.544 1046.81 903.668 1045.68C905.416 1029.76 914.561 985.056 962.388 952.85C963.2 952.303 964.245 953.099 963.945 954.031C959.313 968.449 940.111 1035.97 958.685 1113.8C959.468 1117.08 956.997 1120.22 953.631 1120.22Z" fill="#43A838"/>
<path d="M867.42 1072.74C862.504 1072.74 858.52 1068.76 858.52 1063.84C858.52 1058.92 862.504 1054.94 867.42 1054.94C872.335 1054.94 876.32 1058.92 876.32 1063.84C876.32 1068.76 872.335 1072.74 867.42 1072.74Z" fill="#338727"/>
<path d="M545.52 1059.8C540.605 1059.8 536.62 1055.82 536.62 1050.9C536.62 1045.98 540.605 1042 545.52 1042C550.435 1042 554.42 1045.98 554.42 1050.9C554.42 1055.82 550.435 1059.8 545.52 1059.8Z" fill="#338727"/>
</g>
<g clip-path="url(#clip6)">
<path d="M1898.63 1120.22H1425.8C1422.87 1120.22 1420.53 1117.83 1420.59 1114.91C1421.02 1094.07 1420.91 1017.67 1397.24 988.818C1396.58 988.011 1397.39 986.85 1398.38 987.196C1409.65 991.155 1443.26 1004.78 1451.62 1028.98C1451.96 1029.95 1453.33 1029.9 1453.6 1028.91L1466.64 980.295C1466.89 979.369 1468.15 979.247 1468.57 980.109L1483.15 1009.97C1483.49 1010.68 1484.47 1010.76 1484.93 1010.11L1512.72 970.408C1513.25 969.66 1514.41 969.905 1514.59 970.8L1527.49 1035.61C1527.7 1036.69 1529.24 1036.73 1529.51 1035.66L1552.78 942.785C1553.04 941.752 1554.5 941.734 1554.79 942.76L1574.36 1013.24C1574.62 1014.17 1575.91 1014.27 1576.31 1013.38L1598.93 962.668C1599.33 961.79 1600.6 961.872 1600.87 962.793L1619.02 1023.47C1619.32 1024.49 1620.77 1024.45 1621.02 1023.42L1631.71 978.86C1631.95 977.886 1633.29 977.777 1633.68 978.701L1663.29 1049.33C1663.65 1050.18 1664.85 1050.18 1665.21 1049.33L1704.84 955.721C1705.3 954.636 1706.93 955.029 1706.83 956.203C1705.35 974.257 1703.2 1023.9 1721.63 1046.64C1722.14 1047.27 1723.14 1047.12 1723.42 1046.35L1742.9 992.427C1743.24 991.481 1744.6 991.527 1744.87 992.494L1761.1 1049.26C1761.36 1050.15 1762.54 1050.29 1763 1049.49C1768.84 1039.19 1793.02 992.84 1780.96 951.195C1780.96 951.195 1812.57 992.722 1813.65 1023.31C1813.69 1024.44 1815.25 1024.69 1815.65 1023.63L1828.74 988.928C1829.09 987.991 1830.44 988.05 1830.71 989.014L1846.64 1045.84C1846.95 1046.93 1848.54 1046.81 1848.67 1045.68C1850.42 1029.76 1859.56 985.056 1907.39 952.85C1908.2 952.303 1909.24 953.099 1908.94 954.031C1904.31 968.449 1885.11 1035.97 1903.68 1113.8C1904.47 1117.08 1902 1120.22 1898.63 1120.22Z" fill="#43A838"/>
<path d="M1812.42 1072.74C1807.5 1072.74 1803.52 1068.76 1803.52 1063.84C1803.52 1058.92 1807.5 1054.94 1812.42 1054.94C1817.34 1054.94 1821.32 1058.92 1821.32 1063.84C1821.32 1068.76 1817.34 1072.74 1812.42 1072.74Z" fill="#338727"/>
<path d="M1490.52 1059.8C1485.6 1059.8 1481.62 1055.82 1481.62 1050.9C1481.62 1045.98 1485.6 1042 1490.52 1042C1495.44 1042 1499.42 1045.98 1499.42 1050.9C1499.42 1055.82 1495.44 1059.8 1490.52 1059.8Z" fill="#338727"/>
</g>
<path d="M610.564 647.864C610.564 589.692 575.188 539.784 524.777 518.477C533.679 501.268 538.739 481.748 538.739 461.036C538.739 391.875 482.673 335.809 413.512 335.809C393.807 335.809 375.173 340.374 358.589 348.481C343.853 295.719 295.462 257 237.999 257C180.536 257 132.147 295.719 117.41 348.481C100.825 340.372 82.1913 335.809 62.4866 335.809C-6.67493 335.809 -62.7406 391.875 -62.7406 461.036C-62.7406 481.748 -57.6819 501.268 -48.7786 518.477C-99.1892 539.785 -134.565 589.692 -134.565 647.864C-134.565 723.252 -75.1295 784.682 -0.569809 788.044C9.82529 825.695 49.9676 853.764 97.9407 853.764C125.13 853.764 149.794 844.734 167.97 830.07C186.147 844.734 210.811 853.764 237.999 853.764C265.187 853.764 289.853 844.734 308.028 830.07C326.206 844.734 350.87 853.764 378.058 853.764C426.031 853.764 466.173 825.695 476.568 788.042C551.128 784.68 610.564 723.252 610.564 647.864Z" fill="#129B12"/>
<path d="M230.487 257.249C228.945 257.341 227.409 257.452 225.883 257.601C225.415 257.647 224.951 257.699 224.486 257.749C222.846 257.926 221.215 258.131 219.595 258.371C219.291 258.415 218.987 258.459 218.685 258.506C216.757 258.807 214.84 259.142 212.942 259.528C212.939 259.528 212.935 259.53 212.932 259.53C245.806 266.215 276.585 289.112 296.085 317.972C309.894 338.409 333.487 350.19 358.096 348.517C358.26 348.505 358.423 348.494 358.587 348.482C343.853 295.719 295.462 257 237.999 257C235.984 257 233.984 257.058 231.993 257.153C231.49 257.177 230.991 257.219 230.487 257.249Z" fill="#097C09"/>
<path d="M524.777 518.477C533.681 501.268 538.739 481.748 538.739 461.036C538.739 391.875 482.674 335.809 413.512 335.809C404.929 335.809 396.55 336.677 388.455 338.325C445.599 349.938 488.608 400.463 488.608 461.036C488.608 481.748 483.549 501.268 474.646 518.477C525.057 539.785 560.433 589.692 560.433 647.864C560.433 723.252 500.997 784.68 426.439 788.042C417.919 818.903 389.41 843.312 352.991 851.118C361.007 852.839 369.403 853.762 378.06 853.762C426.033 853.762 466.175 825.694 476.57 788.041C551.13 784.679 610.564 723.251 610.564 647.862C610.564 589.692 575.191 539.784 524.777 518.477Z" fill="#097C09"/>
<path d="M148.332 809.328C137.038 828.484 90.235 849.903 72.8784 851.12C74.7878 851.53 76.7232 851.887 78.6748 852.206C78.8308 852.232 78.9868 852.259 79.1444 852.284C81.122 852.597 83.1192 852.867 85.1374 853.083C85.1894 853.088 85.2414 853.091 85.2934 853.098C87.1085 853.289 88.9432 853.428 90.7875 853.537C91.236 853.563 91.6861 853.588 92.1379 853.611C94.0603 853.704 95.9924 853.766 97.9424 853.766C122.74 853.766 145.418 846.237 163.011 833.791L166.095 831.549L150.388 805.778L148.332 809.328Z" fill="#009000"/>
<path d="M300.615 841.305L354.266 756.644C358.511 749.948 357.225 741.155 351.243 735.951C344.856 730.396 335.25 730.758 329.3 736.782L289.788 776.784C284.547 782.09 275.569 777.678 276.567 770.289L288.186 684.203C289.427 675.006 282.628 666.676 273.367 666.051L262.481 665.315C254.301 664.762 247.021 670.466 245.599 678.54L224.859 796.374C223.706 802.927 215.384 805.089 211.187 799.928L146.232 720.044C141.738 714.516 134.136 712.615 127.569 715.376L116.196 720.155C107.192 723.94 103.63 734.824 108.654 743.199L175.403 854.458C185.068 870.569 189.054 889.471 186.638 908.105C177.988 974.823 167.242 1037.74 123.268 1089H352.724C305.651 1034.13 294.039 965.895 287.809 893.943C286.214 875.466 290.688 856.968 300.615 841.305Z" fill="#BF6101"/>
<path d="M354.266 756.644C358.511 749.948 357.227 741.155 351.244 735.951C344.856 730.396 335.25 730.758 329.3 736.782L311.654 754.645L289.788 776.783C284.547 782.088 275.569 777.676 276.567 770.288L288.186 684.202C289.396 675.237 282.96 667.117 274.058 666.132L241.387 869.2C240.838 871.822 240.409 874.469 240.11 877.136C239.488 882.685 239.405 888.313 239.891 893.94C246.124 965.893 257.736 1034.13 304.809 1089H352.727C305.654 1034.13 294.042 965.893 287.812 893.942C286.213 875.466 290.688 856.97 300.614 841.305L354.266 756.644Z" fill="#9A4D01"/>
<path d="M214.165 355.312C179.031 355.312 148.788 376.164 135.078 406.158C120.915 396.15 103.641 390.25 84.9781 390.25C36.9643 390.25 -1.95927 429.173 -1.95927 477.187C-1.95927 493.029 2.29985 507.869 9.70334 520.659C-31.9876 527.07 -63.9155 563.096 -63.9155 606.581C-63.9155 654.594 -24.992 693.518 23.0218 693.518C71.0356 693.518 301.103 490.263 301.103 442.25C301.103 394.236 262.182 355.312 214.165 355.312Z" fill="#28A528"/>
<path d="M1497.68 972.304C1497.68 986.32 1498.64 998.032 1500.56 1007.44C1502.68 1016.66 1505.27 1021.84 1508.34 1022.99C1509.49 1023.57 1510.84 1023.95 1512.37 1024.14C1514.1 1024.34 1515.25 1024.62 1515.83 1025.01C1516.6 1025.39 1516.98 1026.16 1516.98 1027.31C1516.98 1032.69 1515.54 1037.01 1512.66 1040.27C1509.78 1043.34 1505.56 1044.88 1499.99 1044.88C1494.61 1044.88 1490.39 1041.42 1487.32 1034.51C1484.24 1027.41 1482.71 1018.19 1482.71 1006.86C1477.52 1018 1470.32 1027.12 1461.11 1034.22C1451.89 1041.33 1441.43 1044.88 1429.72 1044.88C1418.2 1044.88 1408.31 1041.04 1400.05 1033.36C1384.69 1019.15 1377.01 999.088 1377.01 973.168C1377.01 952.24 1383.06 934 1395.16 918.448C1407.25 902.896 1422.8 895.12 1441.81 895.12C1456.21 895.12 1468.69 900.016 1479.25 909.808C1479.25 900.016 1482.9 895.12 1490.2 895.12C1499.03 895.12 1503.44 901.744 1503.44 914.992C1503.44 928.048 1501.52 947.152 1497.68 972.304ZM1480.98 974.896L1479.54 930.544C1468.21 919.408 1456.21 913.84 1443.54 913.84C1430.87 913.84 1420.02 919.504 1411 930.832C1401.97 942.16 1397.46 955.888 1397.46 972.016C1397.46 987.952 1400.44 1001.01 1406.39 1011.18C1412.34 1021.17 1420.6 1026.16 1431.16 1026.16C1441.72 1026.16 1451.41 1021.46 1460.24 1012.05C1469.27 1002.64 1476.18 990.256 1480.98 974.896ZM1570.63 976.048L1571.49 1030.19C1571.49 1039.98 1567.85 1044.88 1560.55 1044.88C1551.72 1044.88 1547.3 1038.35 1547.3 1025.3C1547.3 1012.05 1549.22 992.848 1553.06 967.696C1553.06 959.632 1552.2 948.4 1550.47 934C1548.93 919.408 1548.17 910.576 1548.17 907.504C1548.17 904.432 1549.22 901.648 1551.33 899.152C1553.45 896.464 1556.13 895.12 1559.4 895.12C1562.66 895.12 1565.35 896.464 1567.46 899.152C1569.57 901.648 1570.63 904.24 1570.63 906.928C1570.63 909.616 1570.53 913.936 1570.34 919.888C1570.34 925.84 1570.34 929.968 1570.34 932.272C1573.99 922.672 1579.94 914.032 1588.2 906.352C1596.65 898.864 1605 895.12 1613.25 895.12C1621.7 895.12 1628.33 896.848 1633.13 900.304C1638.12 903.568 1640.61 907.312 1640.61 911.536C1640.61 915.76 1639.56 919.024 1637.45 921.328C1635.33 923.632 1632.55 924.784 1629.09 924.784C1625.83 924.784 1622.18 923.056 1618.15 919.6C1614.5 915.952 1611.43 914.128 1608.93 914.128C1602.6 914.128 1595.21 921.04 1586.76 934.864C1578.31 948.496 1572.93 962.224 1570.63 976.048ZM1727.86 912.4C1715.19 912.4 1704.53 917.2 1695.89 926.8C1687.44 936.208 1681.87 947.248 1679.19 959.92C1689.55 962.992 1701.17 964.528 1714.03 964.528C1727.09 964.528 1737.55 962.32 1745.43 957.904C1753.3 953.488 1757.23 947.44 1757.23 939.76C1757.23 932.08 1754.55 925.648 1749.17 920.464C1743.99 915.088 1736.88 912.4 1727.86 912.4ZM1715.47 982.672C1705.49 982.672 1693.3 981.232 1678.9 978.352C1680.05 991.984 1685.04 1003.6 1693.87 1013.2C1702.9 1022.8 1713.36 1027.6 1725.27 1027.6C1737.17 1027.6 1746.96 1024.72 1754.64 1018.96C1762.32 1013.01 1767.31 1010.03 1769.62 1010.03C1772.11 1010.03 1774.03 1010.8 1775.38 1012.34C1776.91 1013.68 1777.68 1015.41 1777.68 1017.52C1777.68 1022.9 1772.11 1029.04 1760.98 1035.95C1750.03 1042.86 1738.13 1046.32 1725.27 1046.32C1705.3 1046.32 1689.36 1039.31 1677.46 1025.3C1665.75 1011.09 1659.51 994.192 1658.74 974.608C1648.56 971.344 1643.47 966.352 1643.47 959.632C1643.47 955.216 1645.11 952.336 1648.37 950.992C1649.52 950.608 1650.96 950.416 1652.69 950.416C1654.61 950.416 1657.2 951.28 1660.47 953.008C1664.88 935.536 1672.85 921.328 1684.37 910.384C1696.08 899.248 1709.71 893.68 1725.27 893.68C1741.01 893.68 1753.68 898 1763.28 906.64C1772.88 915.28 1777.68 926.608 1777.68 940.624C1777.68 954.448 1771.73 964.912 1759.83 972.016C1747.92 979.12 1733.14 982.672 1715.47 982.672Z" fill="black"/>
<path d="M201.124 748.96C203.044 748.96 209.284 730.912 219.844 694.816C230.404 658.528 236.356 638.752 237.7 635.488C240.388 628.576 244.612 625.12 250.372 625.12C256.324 625.12 260.452 628.48 262.756 635.2L279.46 694.816C290.212 730.912 296.356 748.96 297.892 748.96C300.004 748.96 306.34 731.008 316.9 695.104C319.396 686.848 322.564 675.616 326.404 661.408L333.316 636.352C335.62 628.864 339.172 625.12 343.972 625.12C346.852 625.12 349.252 625.984 351.172 627.712C353.284 629.44 354.34 631.744 354.34 634.624C354.34 637.504 352.612 644.32 349.156 655.072C345.7 665.824 343.204 673.216 341.668 677.248C340.324 681.28 335.908 694.816 328.42 717.856C321.124 740.896 315.94 756.16 312.868 763.648C309.988 771.136 304.708 774.88 297.028 774.88C289.348 774.88 283.78 769.888 280.324 759.904C273.412 739.936 266.788 718.912 260.452 696.832C254.116 674.56 250.18 663.424 248.644 663.424C247.3 663.424 245.476 667.264 243.172 674.944L235.684 701.44C225.7 736.576 218.788 757.696 214.948 764.8C211.684 771.52 206.404 774.88 199.108 774.88C191.812 774.88 186.34 769.6 182.692 759.04C182.308 757.888 181.732 756.256 180.964 754.144C180.196 752.032 179.14 749.056 177.796 745.216C176.644 741.376 175.396 737.536 174.052 733.696C172.9 729.856 169.636 719.872 164.26 703.744L156.484 680.992C154.756 675.808 152.836 670.24 150.724 664.288C145.156 649.12 142.372 639.808 142.372 636.352C142.372 632.704 143.332 629.92 145.252 628C147.364 626.08 149.86 625.12 152.74 625.12C158.308 625.12 162.148 628.48 164.26 635.2C164.452 635.392 166.948 643.84 171.748 660.544L180.964 691.072C181.732 693.184 182.788 696.256 184.132 700.288C188.74 715.456 192.484 727.36 195.364 736C198.244 744.64 200.164 748.96 201.124 748.96ZM452.874 642.4C440.202 642.4 429.546 647.2 420.906 656.8C412.458 666.208 406.89 677.248 404.202 689.92C414.57 692.992 426.186 694.528 439.05 694.528C452.106 694.528 462.57 692.32 470.442 687.904C478.314 683.488 482.25 677.44 482.25 669.76C482.25 662.08 479.562 655.648 474.186 650.464C469.002 645.088 461.898 642.4 452.874 642.4ZM440.49 712.672C430.506 712.672 418.314 711.232 403.914 708.352C405.066 721.984 410.058 733.6 418.89 743.2C427.914 752.8 438.378 757.6 450.282 757.6C462.186 757.6 471.978 754.72 479.658 748.96C487.338 743.008 492.33 740.032 494.634 740.032C497.13 740.032 499.05 740.8 500.394 742.336C501.93 743.68 502.698 745.408 502.698 747.52C502.698 752.896 497.13 759.04 485.994 765.952C475.05 772.864 463.146 776.32 450.282 776.32C430.314 776.32 414.378 769.312 402.474 755.296C390.762 741.088 384.522 724.192 383.754 704.608C373.578 701.344 368.49 696.352 368.49 689.632C368.49 685.216 370.122 682.336 373.386 680.992C374.538 680.608 375.978 680.416 377.706 680.416C379.626 680.416 382.218 681.28 385.482 683.008C389.898 665.536 397.866 651.328 409.386 640.384C421.098 629.248 434.73 623.68 450.282 623.68C466.026 623.68 478.698 628 488.298 636.64C497.898 645.28 502.698 656.608 502.698 670.624C502.698 684.448 496.746 694.912 484.842 702.016C472.938 709.12 458.154 712.672 440.49 712.672Z" fill="black"/>
</g>
<defs>
<clipPath id="clip0">
<rect width="1920" height="1080" fill="white"/>
</clipPath>
<clipPath id="clip1">
<rect width="600" height="600" fill="white" transform="translate(640 520)"/>
</clipPath>
<clipPath id="clip2">
<rect width="511.998" height="511.998" fill="white" transform="matrix(-1 0 0 1 2366 608)"/>
</clipPath>
<clipPath id="clip3">
<rect width="511.998" height="511.998" fill="white" transform="translate(-9 608)"/>
</clipPath>
<clipPath id="clip4">
<rect width="511.998" height="511.998" fill="white" transform="translate(936 608)"/>
</clipPath>
<clipPath id="clip5">
<rect width="511.998" height="511.998" fill="white" transform="matrix(-1 0 0 1 963.998 608)"/>
</clipPath>
<clipPath id="clip6">
<rect width="511.998" height="511.998" fill="white" transform="matrix(-1 0 0 1 1909 608)"/>
</clipPath>
</defs>
</svg>
