<svg width="1920" height="978" viewBox="0 0 1920 978" fill="none" xmlns="http://www.w3.org/2000/svg">
<rect width="1920" height="978" fill="white"/>
<rect width="1920" height="978" fill="url(#paint0_linear)"/>
<g filter="url(#filter0_f)">
<path d="M84 87L95.2257 121.549H131.553L102.164 142.902L113.389 177.451L84 156.098L54.6107 177.451L65.8364 142.902L36.4472 121.549H72.7743L84 87Z" fill="white"/>
</g>
<g filter="url(#filter1_f)">
<path d="M161 347L172.226 381.549H208.553L179.164 402.902L190.389 437.451L161 416.098L131.611 437.451L142.836 402.902L113.447 381.549H149.774L161 347Z" fill="white"/>
</g>
<g filter="url(#filter2_f)">
<path d="M460 681L471.226 715.549H507.553L478.164 736.902L489.389 771.451L460 750.098L430.611 771.451L441.836 736.902L412.447 715.549H448.774L460 681Z" fill="white"/>
</g>
<g filter="url(#filter3_f)">
<path d="M515 187L520.613 204.275H538.776L524.082 214.951L529.695 232.225L515 221.549L500.305 232.225L505.918 214.951L491.224 204.275H509.387L515 187Z" fill="white"/>
</g>
<g filter="url(#filter4_f)">
<path d="M186 611L191.613 628.275H209.776L195.082 638.951L200.695 656.225L186 645.549L171.305 656.225L176.918 638.951L162.224 628.275H180.387L186 611Z" fill="white"/>
</g>
<g filter="url(#filter5_f)">
<path d="M1448 478L1453.61 495.275H1471.78L1457.08 505.951L1462.69 523.225L1448 512.549L1433.31 523.225L1438.92 505.951L1424.22 495.275H1442.39L1448 478Z" fill="white"/>
</g>
<g filter="url(#filter6_f)">
<path d="M1712 137L1717.61 154.275H1735.78L1721.08 164.951L1726.69 182.225L1712 171.549L1697.31 182.225L1702.92 164.951L1688.22 154.275H1706.39L1712 137Z" fill="white"/>
</g>
<g filter="url(#filter7_f)">
<path d="M1419 187L1430.23 221.549H1466.55L1437.16 242.902L1448.39 277.451L1419 256.098L1389.61 277.451L1400.84 242.902L1371.45 221.549H1407.77L1419 187Z" fill="white"/>
</g>
<g filter="url(#filter8_f)">
<path d="M1787 711L1798.23 745.549H1834.55L1805.16 766.902L1816.39 801.451L1787 780.098L1757.61 801.451L1768.84 766.902L1739.45 745.549H1775.77L1787 711Z" fill="white"/>
</g>
<g filter="url(#filter9_f)">
<path d="M982 705C1123.38 705 1238 590.385 1238 449C1238 307.615 1123.38 193 982 193C840.615 193 726 307.615 726 449C726 590.385 840.615 705 982 705Z" fill="#FEF0AE"/>
<path d="M879.422 449C879.422 334.34 954.819 237.29 1058.73 204.696C1034.51 197.099 1008.73 193 982 193C840.614 193 726 307.614 726 449C726 590.386 840.614 705 982 705C1008.73 705 1034.51 700.899 1058.73 693.301C954.827 660.707 879.422 563.66 879.422 449Z" fill="#FEE97D"/>
<path d="M1237.95 453.281H1237.96C1237.36 490.331 1228.88 525.468 1214.13 557.089L1214.11 557.079C1194.35 549.075 1180.41 529.718 1180.41 507.083C1180.41 477.302 1204.56 453.157 1234.34 453.157C1235.55 453.157 1236.75 453.209 1237.95 453.281Z" fill="#FEE97D"/>
<path d="M982 664.868C1004.3 664.868 1023.05 680.141 1028.33 700.812C1013.3 703.563 997.821 705 982 705C966.179 705 950.7 703.563 935.675 700.812C940.948 680.141 959.696 664.868 982 664.868Z" fill="#FEDF30"/>
<path d="M1043.78 550.668C1061.02 550.668 1075 564.648 1075 581.886C1075 599.134 1061.02 613.104 1043.78 613.104C1026.54 613.104 1012.56 599.134 1012.56 581.886C1012.56 564.648 1026.54 550.668 1043.78 550.668Z" fill="#FEE97D"/>
<path d="M1100.39 521.911C1112.58 521.911 1122.47 512.027 1122.47 499.834C1122.47 487.641 1112.58 477.757 1100.39 477.757C1088.2 477.757 1078.31 487.641 1078.31 499.834C1078.31 512.027 1088.2 521.911 1100.39 521.911Z" fill="#FEE97D"/>
<path d="M1052.84 441.079C1085.65 441.079 1112.25 414.482 1112.25 381.673C1112.25 348.864 1085.65 322.267 1052.84 322.267C1020.03 322.267 993.437 348.864 993.437 381.673C993.437 414.482 1020.03 441.079 1052.84 441.079Z" fill="#FEE97D"/>
<path d="M879.422 533.554C898.308 533.554 913.618 518.244 913.618 499.358C913.618 480.472 898.308 465.162 879.422 465.162C860.536 465.162 845.226 480.472 845.226 499.358C845.226 518.244 860.536 533.554 879.422 533.554Z" fill="#FEE45A"/>
<path d="M879.422 533.554C884.163 533.554 888.68 532.588 892.785 530.842C885.765 510.022 881.35 488.004 879.927 465.175C879.758 465.173 879.592 465.162 879.422 465.162C860.53 465.162 845.226 480.476 845.226 499.358C845.226 518.24 860.53 533.554 879.422 533.554Z" fill="#FEDF30"/>
<path d="M815.952 391.093C827.482 391.093 836.83 400.441 836.83 411.96C836.83 423.49 827.482 432.838 815.952 432.838C804.422 432.838 795.085 423.49 795.085 411.96C795.085 400.441 804.422 391.093 815.952 391.093Z" fill="#FEDF30"/>
<path d="M905.222 204.726C907.538 213.278 908.789 222.274 908.789 231.56C908.789 288.05 862.991 333.848 806.491 333.848C789.532 333.848 773.536 329.712 759.452 322.411H759.441C791.135 266.8 843.075 224.228 905.222 204.716V204.726Z" fill="#FEDF30"/>
</g>
<path d="M771.77 267.896L772.634 218.936C772.634 187.64 765.53 171.992 751.322 171.992C747.29 171.992 744.026 173.24 741.53 175.736C739.226 178.04 738.17 180.536 738.362 183.224C738.554 185.912 739.418 188.12 740.954 189.848C742.106 190.616 744.122 191.576 747.002 192.728C753.146 195.224 756.218 198.68 756.218 203.096C756.218 209.816 752.57 213.176 745.274 213.176C737.978 213.176 731.642 210.296 726.266 204.536C721.082 198.584 718.49 191.48 718.49 183.224C718.49 174.776 721.37 167.288 727.13 160.76C732.89 154.04 740.474 150.68 749.882 150.68C768.314 150.68 780.602 157.112 786.746 169.976C792.122 180.536 794.81 196.088 794.81 216.632L793.658 266.744C793.658 293.624 795.962 314.84 800.57 330.392C805.37 345.944 811.802 353.72 819.866 353.72C829.274 353.72 837.914 345.752 845.786 329.816C853.658 313.688 857.594 296.408 857.594 277.976L857.018 213.752C857.018 201.08 861.146 194.744 869.402 194.744C879.386 194.744 884.378 202.712 884.378 218.648C884.378 223.64 882.458 243.992 878.618 279.704C878.81 297.368 882.842 313.976 890.714 329.528C898.586 344.888 907.13 352.568 916.346 352.568C924.794 352.568 931.418 344.888 936.218 329.528C941.018 314.168 943.418 292.952 943.418 265.88L942.266 216.632C942.266 196.472 944.666 180.92 949.466 169.976C954.842 157.112 966.266 150.68 983.738 150.68C990.842 150.68 997.082 152.984 1002.46 157.592C1008.03 162.2 1010.81 166.808 1010.81 171.416C1010.81 176.024 1008.7 178.328 1004.47 178.328C1003.13 178.328 1000.44 177.272 996.41 175.16C992.378 173.048 988.826 171.992 985.754 171.992C971.546 171.992 964.442 187.64 964.442 218.936L965.306 267.032C965.306 301.4 961.082 327.8 952.634 346.232C944.378 364.664 931.994 373.88 915.482 373.88C904.922 373.88 895.61 369.176 887.546 359.768C879.482 350.168 873.05 337.016 868.25 320.312C863.642 337.4 857.21 350.84 848.954 360.632C840.89 370.424 831.482 375.32 820.73 375.32C804.41 375.32 792.122 366.104 783.866 347.672C775.802 329.24 771.77 302.648 771.77 267.896ZM1083.84 234.776C1097.85 228.056 1110.91 224.696 1123.01 224.696C1135.1 224.696 1143.65 227.096 1148.64 231.896C1154.4 236.12 1157.28 241.4 1157.28 247.736C1157.28 252.728 1155.65 257.144 1152.38 260.984C1145.28 268.664 1134.24 272.504 1119.26 272.504C1113.12 272.504 1106.3 271.16 1098.81 268.472C1091.33 265.592 1084.89 262.136 1079.52 258.104C1063.2 269.24 1055.04 284.312 1055.04 303.32C1055.04 316.184 1060.7 328.088 1072.03 339.032C1083.36 349.784 1098.72 355.16 1118.11 355.16C1137.69 355.16 1152.77 351.032 1163.33 342.776C1173.89 334.52 1180.61 330.392 1183.49 330.392C1188.86 330.392 1191.55 332.888 1191.55 337.88C1191.55 342.104 1188.48 347.096 1182.33 352.856C1176.19 358.616 1167.26 363.8 1155.55 368.408C1144.03 373.016 1132.13 375.32 1119.84 375.32C1092.77 375.32 1071.26 368.216 1055.33 354.008C1039.77 339.608 1032 323.576 1032 305.912C1032 280.184 1043.23 259.928 1065.69 245.144C1055.13 234.392 1049.85 220.856 1049.85 204.536C1049.85 188.216 1056.29 175.16 1069.15 165.368C1082.21 155.576 1096.89 150.68 1113.21 150.68C1129.53 150.68 1143.84 153.752 1156.13 159.896C1168.41 165.848 1174.56 172.472 1174.56 179.768C1174.56 184.376 1172.64 187.448 1168.8 188.984C1167.65 189.176 1165.92 189.272 1163.61 189.272C1161.5 189.272 1158.24 187.832 1153.82 184.952C1141.34 175.544 1128.77 170.84 1116.09 170.84C1103.61 170.84 1093.25 173.816 1084.99 179.768C1075.77 185.528 1071.17 194.456 1071.17 206.552C1071.17 218.456 1075.39 227.864 1083.84 234.776ZM1098.53 246.296L1095.36 247.736C1102.08 252.728 1110.53 255.224 1120.7 255.224C1130.88 255.224 1135.97 252.824 1135.97 248.024C1135.97 243.992 1131.26 241.976 1121.85 241.976C1112.45 241.976 1104.67 243.416 1098.53 246.296ZM806.176 635.656C787.936 576.52 777.568 546.952 775.072 546.952C772.768 546.952 764.704 568.84 750.88 612.616L743.968 634.504C752.416 633.16 761.728 632.488 771.904 632.488C782.272 632.488 793.696 633.544 806.176 635.656ZM716.608 658.408C703.168 662.824 691.648 669.736 682.048 679.144C672.64 688.552 667.936 697.384 667.936 705.64C667.936 709.672 668.896 712.84 670.816 715.144C672.928 717.256 675.616 718.312 678.88 718.312C689.44 718.312 702.016 698.344 716.608 658.408ZM868.096 718.024C868.096 723.784 866.56 728.488 863.488 732.136C860.416 735.592 856.576 737.32 851.968 737.32C843.52 737.32 837.088 731.08 832.672 718.6C824.032 692.872 817.12 671.56 811.936 654.664C797.344 652.168 784 650.92 771.904 650.92C760 650.92 749.056 651.88 739.072 653.8C726.592 685.096 717.376 705.448 711.424 714.856C701.824 729.832 690.688 737.32 678.016 737.32C669.184 737.32 662.176 734.344 656.992 728.392C651.808 722.44 649.216 715.048 649.216 706.216C649.216 692.968 655.936 679.624 669.376 666.184C682.816 652.744 700.288 643.528 721.792 638.536C730.24 615.112 738.112 591.976 745.408 569.128C752.896 546.28 757.12 533.704 758.08 531.4C762.112 519.88 767.68 514.12 774.784 514.12C782.656 514.12 788.512 519.112 792.352 529.096C793.312 531.784 796 539.752 800.416 553L828.928 639.4C836.8 641.704 843.232 644.68 848.224 648.328C853.216 651.976 855.712 655.144 855.712 657.832C855.712 662.248 853.312 664.456 848.512 664.456C846.784 664.456 842.176 663.112 834.688 660.424C842.944 687.112 848.32 702.376 850.816 706.216C853.312 710.056 855.328 712.36 856.864 713.128C858.4 713.896 860.128 714.472 862.048 714.856C866.08 715.624 868.096 716.68 868.096 718.024ZM943.374 539.464C943.374 550.408 943.758 569.32 944.526 596.2C955.47 597.352 965.934 601.096 975.918 607.432C986.094 613.768 994.158 621.256 1000.11 629.896C1009.52 624.136 1017.01 616.744 1022.57 607.72C1028.14 598.504 1030.93 589.096 1030.93 579.496C1030.93 565.096 1025.36 553.768 1014.22 545.512C1003.09 537.064 989.262 532.84 972.75 532.84C963.726 532.84 953.934 535.048 943.374 539.464ZM944.238 614.92V641.992C948.654 642.376 954.126 642.568 960.654 642.568C967.182 642.568 973.71 641.32 980.238 638.824C971.982 626.536 959.982 618.568 944.238 614.92ZM924.366 639.976V613.768C913.038 615.304 907.374 619.144 907.374 625.288C907.374 631.24 913.038 636.136 924.366 639.976ZM1076.43 734.728C1079.69 734.728 1081.33 735.208 1081.33 736.168V737.608C1081.33 742.6 1079.6 747.016 1076.14 750.856C1072.88 754.888 1069.52 756.904 1066.06 756.904C1062.61 756.904 1058.77 755.752 1054.54 753.448C1050.32 751.144 1044.75 745.288 1037.84 735.88C1031.12 726.472 1024.21 714.952 1017.1 701.32L990.606 654.952C978.702 659.176 966.51 661.288 954.03 661.288C949.038 661.288 945.87 661.192 944.526 661L946.254 721.192C946.254 725.608 945.198 729.16 943.086 731.848C940.974 734.536 938.094 735.88 934.446 735.88C930.798 735.88 927.918 734.536 925.806 731.848C923.694 729.16 922.638 724.36 922.638 717.448C922.638 710.344 923.022 690.76 923.79 658.696C911.886 656.008 902.862 651.688 896.718 645.736C890.574 639.784 887.502 632.968 887.502 625.288C887.502 617.608 890.862 610.888 897.582 605.128C904.494 599.368 913.23 596.008 923.79 595.048L921.486 537.736C921.486 529.48 924.846 523.72 931.566 520.456C943.086 515.272 956.91 512.68 973.038 512.68C996.462 512.68 1015.66 519.016 1030.64 531.688C1045.81 544.36 1053.39 560.104 1053.39 578.92C1053.39 592.168 1049.45 604.936 1041.58 617.224C1033.9 629.32 1023.53 639.112 1010.48 646.6C1032.17 685.768 1044.85 708.136 1048.49 713.704C1057.33 727.144 1065.87 734.152 1074.13 734.728H1076.43ZM1155.42 596.776C1169.43 590.056 1182.49 586.696 1194.58 586.696C1206.68 586.696 1215.22 589.096 1220.22 593.896C1225.98 598.12 1228.86 603.4 1228.86 609.736C1228.86 614.728 1227.22 619.144 1223.96 622.984C1216.86 630.664 1205.82 634.504 1190.84 634.504C1184.7 634.504 1177.88 633.16 1170.39 630.472C1162.9 627.592 1156.47 624.136 1151.1 620.104C1134.78 631.24 1126.62 646.312 1126.62 665.32C1126.62 678.184 1132.28 690.088 1143.61 701.032C1154.94 711.784 1170.3 717.16 1189.69 717.16C1209.27 717.16 1224.34 713.032 1234.9 704.776C1245.46 696.52 1252.18 692.392 1255.06 692.392C1260.44 692.392 1263.13 694.888 1263.13 699.88C1263.13 704.104 1260.06 709.096 1253.91 714.856C1247.77 720.616 1238.84 725.8 1227.13 730.408C1215.61 735.016 1203.7 737.32 1191.42 737.32C1164.34 737.32 1142.84 730.216 1126.9 716.008C1111.35 701.608 1103.58 685.576 1103.58 667.912C1103.58 642.184 1114.81 621.928 1137.27 607.144C1126.71 596.392 1121.43 582.856 1121.43 566.536C1121.43 550.216 1127.86 537.16 1140.73 527.368C1153.78 517.576 1168.47 512.68 1184.79 512.68C1201.11 512.68 1215.42 515.752 1227.7 521.896C1239.99 527.848 1246.14 534.472 1246.14 541.768C1246.14 546.376 1244.22 549.448 1240.38 550.984C1239.22 551.176 1237.5 551.272 1235.19 551.272C1233.08 551.272 1229.82 549.832 1225.4 546.952C1212.92 537.544 1200.34 532.84 1187.67 532.84C1175.19 532.84 1164.82 535.816 1156.57 541.768C1147.35 547.528 1142.74 556.456 1142.74 568.552C1142.74 580.456 1146.97 589.864 1155.42 596.776ZM1170.1 608.296L1166.94 609.736C1173.66 614.728 1182.1 617.224 1192.28 617.224C1202.46 617.224 1207.54 614.824 1207.54 610.024C1207.54 605.992 1202.84 603.976 1193.43 603.976C1184.02 603.976 1176.25 605.416 1170.1 608.296Z" fill="white"/>
<defs>
<filter id="filter0_f" x="16.4473" y="67" width="135.106" height="130.451" filterUnits="userSpaceOnUse" color-interpolation-filters="sRGB">
<feFlood flood-opacity="0" result="BackgroundImageFix"/>
<feBlend mode="normal" in="SourceGraphic" in2="BackgroundImageFix" result="shape"/>
<feGaussianBlur stdDeviation="10" result="effect1_foregroundBlur"/>
</filter>
<filter id="filter1_f" x="93.4473" y="327" width="135.106" height="130.451" filterUnits="userSpaceOnUse" color-interpolation-filters="sRGB">
<feFlood flood-opacity="0" result="BackgroundImageFix"/>
<feBlend mode="normal" in="SourceGraphic" in2="BackgroundImageFix" result="shape"/>
<feGaussianBlur stdDeviation="10" result="effect1_foregroundBlur"/>
</filter>
<filter id="filter2_f" x="392.447" y="661" width="135.106" height="130.451" filterUnits="userSpaceOnUse" color-interpolation-filters="sRGB">
<feFlood flood-opacity="0" result="BackgroundImageFix"/>
<feBlend mode="normal" in="SourceGraphic" in2="BackgroundImageFix" result="shape"/>
<feGaussianBlur stdDeviation="10" result="effect1_foregroundBlur"/>
</filter>
<filter id="filter3_f" x="471.224" y="167" width="87.5528" height="85.2254" filterUnits="userSpaceOnUse" color-interpolation-filters="sRGB">
<feFlood flood-opacity="0" result="BackgroundImageFix"/>
<feBlend mode="normal" in="SourceGraphic" in2="BackgroundImageFix" result="shape"/>
<feGaussianBlur stdDeviation="10" result="effect1_foregroundBlur"/>
</filter>
<filter id="filter4_f" x="142.224" y="591" width="87.5528" height="85.2254" filterUnits="userSpaceOnUse" color-interpolation-filters="sRGB">
<feFlood flood-opacity="0" result="BackgroundImageFix"/>
<feBlend mode="normal" in="SourceGraphic" in2="BackgroundImageFix" result="shape"/>
<feGaussianBlur stdDeviation="10" result="effect1_foregroundBlur"/>
</filter>
<filter id="filter5_f" x="1404.22" y="458" width="87.5528" height="85.2254" filterUnits="userSpaceOnUse" color-interpolation-filters="sRGB">
<feFlood flood-opacity="0" result="BackgroundImageFix"/>
<feBlend mode="normal" in="SourceGraphic" in2="BackgroundImageFix" result="shape"/>
<feGaussianBlur stdDeviation="10" result="effect1_foregroundBlur"/>
</filter>
<filter id="filter6_f" x="1668.22" y="117" width="87.5528" height="85.2254" filterUnits="userSpaceOnUse" color-interpolation-filters="sRGB">
<feFlood flood-opacity="0" result="BackgroundImageFix"/>
<feBlend mode="normal" in="SourceGraphic" in2="BackgroundImageFix" result="shape"/>
<feGaussianBlur stdDeviation="10" result="effect1_foregroundBlur"/>
</filter>
<filter id="filter7_f" x="1351.45" y="167" width="135.106" height="130.451" filterUnits="userSpaceOnUse" color-interpolation-filters="sRGB">
<feFlood flood-opacity="0" result="BackgroundImageFix"/>
<feBlend mode="normal" in="SourceGraphic" in2="BackgroundImageFix" result="shape"/>
<feGaussianBlur stdDeviation="10" result="effect1_foregroundBlur"/>
</filter>
<filter id="filter8_f" x="1719.45" y="691" width="135.106" height="130.451" filterUnits="userSpaceOnUse" color-interpolation-filters="sRGB">
<feFlood flood-opacity="0" result="BackgroundImageFix"/>
<feBlend mode="normal" in="SourceGraphic" in2="BackgroundImageFix" result="shape"/>
<feGaussianBlur stdDeviation="10" result="effect1_foregroundBlur"/>
</filter>
<filter id="filter9_f" x="716" y="183" width="532" height="532" filterUnits="userSpaceOnUse" color-interpolation-filters="sRGB">
<feFlood flood-opacity="0" result="BackgroundImageFix"/>
<feBlend mode="normal" in="SourceGraphic" in2="BackgroundImageFix" result="shape"/>
<feGaussianBlur stdDeviation="5" result="effect1_foregroundBlur"/>
</filter>
<linearGradient id="paint0_linear" x1="960" y1="0" x2="960" y2="978" gradientUnits="userSpaceOnUse">
<stop offset="0.854167"/>
<stop offset="1" stop-color="#007FFF"/>
</linearGradient>
</defs>
</svg>
