<svg width="1920" height="1811" viewBox="0 0 1920 1811" fill="none" xmlns="http://www.w3.org/2000/svg">
<g clip-path="url(#clip0)">
<g filter="url(#filter0_f)">
<path d="M447.052 1432.59C426.318 1432.59 378.209 1417.45 356.874 1398.56C349.005 1391.6 345.016 1384.42 345.016 1377.24C345.016 1361.3 357.983 1348.34 373.922 1348.34C376.654 1348.34 379.35 1348.72 381.938 1349.46C385.852 1338.08 396.639 1330 409.273 1330C419.715 1330 429.266 1335.68 434.355 1344.53C435.171 1344.46 435.991 1344.43 436.812 1344.43C452.752 1344.43 465.719 1357.4 465.719 1373.34C465.719 1375.21 465.541 1377.06 465.188 1378.87C473.621 1384.07 479 1393.4 479 1403.52C479 1411.12 475.943 1418.21 470.393 1423.49C465.332 1428.3 458.375 1431.46 450.805 1432.39C449.686 1432.52 448.429 1432.59 447.052 1432.59Z" fill="#EDF4FF"/>
<path d="M465.188 1378.87C465.541 1377.06 465.719 1375.21 465.719 1373.33C465.719 1357.4 452.752 1344.43 436.812 1344.43C435.991 1344.43 435.171 1344.46 434.355 1344.53C429.714 1336.46 421.362 1331.03 412.008 1330.13V1425.9C425.78 1430.11 438.659 1432.59 447.052 1432.59C448.429 1432.59 449.686 1432.52 450.805 1432.38C458.375 1431.46 465.332 1428.3 470.393 1423.48C475.943 1418.21 479 1411.12 479 1403.52C479 1393.4 473.621 1384.06 465.188 1378.87Z" fill="#DBEAFF"/>
<path d="M362.255 1473.18C355.58 1473.18 349.047 1470.87 343.862 1466.69C341.18 1464.52 338.91 1461.9 337.148 1458.98C333.346 1461.3 328.932 1462.58 324.388 1462.58C313.47 1462.58 304.067 1455.32 300.976 1445.27C295.937 1444.74 291.132 1442.67 287.272 1439.26C282.015 1434.61 279 1427.93 279 1420.91C279 1408.23 288.686 1397.77 301.046 1396.55C302.316 1392.54 304.608 1388.91 307.752 1385.99C312.29 1381.79 318.198 1379.47 324.388 1379.47C328.889 1379.47 333.267 1380.74 337.048 1383.02C338.804 1380.06 341.08 1377.4 343.777 1375.21C348.978 1370.98 355.541 1368.65 362.255 1368.65C368.97 1368.65 375.532 1370.98 380.733 1375.21C383.43 1377.4 385.706 1380.06 387.463 1383.02C391.243 1380.74 395.621 1379.47 400.122 1379.47C406.312 1379.47 412.22 1381.79 416.759 1385.99C419.903 1388.91 422.196 1392.54 423.465 1396.55C428.526 1397.06 433.353 1399.14 437.23 1402.56C442.493 1407.2 445.511 1413.89 445.511 1420.91C445.511 1427.93 442.495 1434.61 437.238 1439.26C433.378 1442.67 428.573 1444.74 423.534 1445.27C420.443 1455.31 411.039 1462.58 400.122 1462.58C395.578 1462.58 391.164 1461.3 387.362 1458.98C385.6 1461.9 383.33 1464.52 380.648 1466.68C375.462 1470.87 368.93 1473.18 362.255 1473.18Z" fill="#EDF4FF"/>
<path d="M437.23 1402.56C433.353 1399.14 428.526 1397.06 423.465 1396.55C422.196 1392.54 419.903 1388.91 416.758 1385.99C412.22 1381.79 406.312 1379.47 400.122 1379.47C395.621 1379.47 391.243 1380.74 387.462 1383.02C385.706 1380.06 383.431 1377.4 380.733 1375.21C375.532 1370.98 368.969 1368.65 362.255 1368.65V1473.18C368.93 1473.18 375.462 1470.87 380.648 1466.69C383.329 1464.52 385.599 1461.9 387.361 1458.98C391.163 1461.3 395.578 1462.58 400.122 1462.58C411.039 1462.58 420.443 1455.32 423.533 1445.27C428.572 1444.74 433.377 1442.67 437.238 1439.26C442.495 1434.62 445.51 1427.93 445.51 1420.91C445.51 1413.89 442.492 1407.2 437.23 1402.56Z" fill="#DBEAFF"/>
</g>
<g filter="url(#filter1_f)">
<path d="M159.676 514.643C151.101 532.508 74.7552 549.799 18.8011 547.13C2.76013 546.365 -6.08087 565.417 4.82213 577.206C43.8222 619.375 117.684 637.178 188.129 615.119L159.676 514.643Z" fill="#EDF4FF"/>
<path opacity="0.15" d="M159.676 514.643C155.668 522.993 136.853 531.218 112.236 537.337C111.354 544.144 110.896 551.084 110.896 558.131C110.896 574.144 113.84 589.468 119.202 603.6C72.9114 605.196 29.8254 589.176 3.90124 561.143C2.94424 560.108 2.16223 559.01 1.53323 557.873C-1.10977 563.944 -0.508767 571.441 4.82323 577.206C43.8234 619.375 117.685 637.178 188.13 615.119L159.676 514.643Z" fill="#DBEAFF"/>
<path d="M279.349 484.524C324.687 484.524 361.441 521.278 361.441 566.616C361.441 623.289 315.499 669.231 258.826 669.231C187.985 669.231 130.557 611.803 130.557 540.962C130.557 452.411 202.342 380.626 290.893 380.626C387.199 380.626 455.77 423.948 481.556 490.636C504.133 549.026 482.445 656.911 337.293 632.715" fill="#EDF4FF"/>
<path opacity="0.15" d="M327.197 382.82C328.201 400.836 334.411 417.883 337.243 428.737C337.957 421.448 348.579 390.095 352.104 387.136C344.086 385.33 335.783 383.882 327.197 382.82Z" fill="#51B4DB"/>
<path opacity="0.15" d="M279.349 484.523C300.601 484.523 319.967 492.599 334.546 505.849C337.462 508.499 340.186 511.356 342.695 514.397C344.368 516.424 345.946 518.533 347.421 520.717C355.535 532.727 360.554 547 361.334 562.391C361.405 563.79 361.441 565.198 361.441 566.615C361.441 591.409 352.647 614.15 338.009 631.888L338.515 632.903C363.244 636.917 384.366 637.08 402.269 634.294C448.931 503.354 321.522 459.982 279.349 484.523Z" fill="#51B4DB"/>
<path opacity="0.15" d="M471.881 470.22C414.289 483.964 405.958 444.317 400.104 425.56C386.72 487.502 450.981 505.137 481.204 489.78C478.539 483.007 475.416 476.486 471.881 470.22Z" fill="#51B4DB"/>
<path d="M400.105 425.56C398.464 452.808 419.222 476.228 446.471 477.87C480.532 479.922 509.806 453.973 511.858 419.912C514.423 377.336 481.987 340.743 439.411 338.178C386.191 334.972 340.449 375.517 337.244 428.737" fill="#EDF4FF"/>
</g>
<path d="M1865.04 880.999C1865.04 780.645 1783.39 699 1683.04 699C1582.68 699 1501.04 780.645 1501.04 880.999V1133.42C1518.5 1127.23 1531.04 1110.55 1531.04 1091V880.999C1531.04 797.187 1599.22 729 1683.04 729C1766.85 729 1835.04 797.187 1835.04 880.999V960.998C1835.04 980.553 1847.58 997.226 1865.04 1003.42V880.999Z" fill="#FF8856"/>
<path d="M1683.04 699C1683.02 699 1683.01 699 1683 699V729H1683.04C1766.85 729 1835.04 797.187 1835.04 880.999V960.998C1835.04 980.553 1847.58 997.226 1865.04 1003.42V880.999C1865.04 780.645 1783.39 699 1683.04 699Z" fill="#FF435B"/>
<path d="M1546.04 1076C1537.75 1076 1531.04 1069.28 1531.04 1061V881C1531.04 797.187 1599.22 729 1683.04 729C1766.85 729 1835.04 797.187 1835.04 881V970.999C1835.04 979.283 1828.32 985.999 1820.04 985.999C1811.75 985.999 1805.04 979.283 1805.04 970.999V881C1805.04 813.729 1750.31 759 1683.04 759C1615.77 759 1561.04 813.729 1561.04 881V1061C1561.04 1069.28 1554.32 1076 1546.04 1076Z" fill="#FDBF00"/>
<path d="M1683.04 729C1683.02 729 1683.01 729 1683 729V759H1683.04C1750.31 759 1805.04 813.729 1805.04 881V970.999C1805.04 979.283 1811.75 985.999 1820.04 985.999C1828.32 985.999 1835.04 979.283 1835.04 970.999V881C1835.04 797.187 1766.85 729 1683.04 729Z" fill="#FF8856"/>
<path d="M1606.04 1110.47C1597.75 1110.47 1591.04 1103.75 1591.04 1095.47V881.001C1591.04 830.272 1632.31 789.001 1683.04 789.001C1733.76 789.001 1775.04 830.272 1775.04 881.001V960.998C1775.04 969.282 1768.32 975.998 1760.04 975.998C1751.75 975.998 1745.04 969.282 1745.04 960.998V881.001C1745.04 846.814 1717.22 819.001 1683.04 819.001C1648.85 819.001 1621.04 846.814 1621.04 881.001V1095.47C1621.04 1103.75 1614.32 1110.47 1606.04 1110.47Z" fill="#7DD5F4"/>
<path d="M1683.04 789.001C1683.02 789.001 1683.01 789.001 1683 789.001V819.001C1683.01 819.001 1683.02 819 1683.04 819C1717.22 819 1745.04 846.813 1745.04 881V960.997C1745.04 969.281 1751.75 975.997 1760.04 975.997C1768.32 975.997 1775.04 969.281 1775.04 960.997V881C1775.04 830.272 1733.77 789.001 1683.04 789.001Z" fill="#4793FF"/>
<path d="M1486.04 1083.5C1477.75 1083.5 1471.04 1076.78 1471.04 1068.5V880.999C1471.04 824.59 1493.15 771.412 1533.3 731.262C1573.45 691.112 1626.63 669 1683.04 669C1739.45 669 1792.62 691.112 1832.77 731.263C1872.92 771.412 1895.04 824.59 1895.04 880.999V950.278C1895.04 958.562 1888.32 965.278 1880.04 965.278C1871.75 965.278 1865.04 958.562 1865.04 950.278V880.999C1865.04 780.645 1783.39 699 1683.04 699C1582.68 699 1501.04 780.645 1501.04 880.999V1068.5C1501.04 1076.78 1494.32 1083.5 1486.04 1083.5Z" fill="#FF435B"/>
<path d="M1832.77 731.263C1792.62 691.112 1739.45 669 1683.04 669C1683.02 669 1683.01 669 1683 669V699H1683.04C1783.39 699 1865.04 780.645 1865.04 880.999V950.278C1865.04 958.562 1871.75 965.278 1880.04 965.278C1888.32 965.278 1895.04 958.562 1895.04 950.278V880.999C1895.04 824.59 1872.92 771.412 1832.77 731.263Z" fill="#CC2E43"/>
<path d="M1805.04 881C1805.04 813.729 1750.31 759 1683.04 759C1615.77 759 1561.04 813.729 1561.04 881V1103.42C1578.5 1097.23 1591.04 1080.55 1591.04 1061V881C1591.04 830.271 1632.31 789 1683.04 789C1733.76 789 1775.04 830.271 1775.04 881V970.999C1775.04 990.554 1787.58 1007.23 1805.04 1013.42V881Z" fill="#BEE75E"/>
<path d="M1683.04 759C1683.02 759 1683.01 759 1683 759V789H1683.04C1733.77 789 1775.04 830.271 1775.04 881V970.999C1775.04 990.554 1787.58 1007.23 1805.04 1013.42V881C1805.04 813.729 1750.31 759 1683.04 759Z" fill="#00CB75"/>
<path d="M1987.09 1057.25C1950.81 1057.25 1866.62 1030.75 1829.28 997.702C1815.51 985.514 1808.53 972.961 1808.53 960.393C1808.53 932.5 1831.22 909.807 1859.11 909.807C1863.89 909.807 1868.61 910.478 1873.14 911.783C1879.99 891.865 1898.87 877.72 1920.98 877.72C1939.25 877.72 1955.97 887.657 1964.87 903.154C1966.3 903.033 1967.73 902.972 1969.17 902.972C1997.07 902.972 2019.76 925.664 2019.76 953.558C2019.76 956.838 2019.45 960.076 2018.83 963.25C2033.59 972.335 2043 988.673 2043 1006.39C2043 1019.68 2037.65 1032.08 2027.94 1041.32C2019.08 1049.74 2006.91 1055.28 1993.66 1056.9C1991.7 1057.13 1989.5 1057.25 1987.09 1057.25Z" fill="#EDF4FF"/>
<path d="M1838.7 1128.28C1827.01 1128.28 1815.58 1124.25 1806.51 1116.92C1801.82 1113.13 1797.84 1108.55 1794.76 1103.43C1788.11 1107.49 1780.38 1109.73 1772.43 1109.73C1753.32 1109.73 1736.87 1097.02 1731.46 1079.44C1722.64 1078.52 1714.23 1074.89 1707.48 1068.92C1698.28 1060.8 1693 1049.09 1693 1036.82C1693 1014.63 1709.95 996.326 1731.58 994.177C1733.8 987.17 1737.81 980.809 1743.32 975.713C1751.26 968.355 1761.6 964.302 1772.43 964.302C1780.31 964.302 1787.97 966.507 1794.58 970.5C1797.66 965.321 1801.64 960.673 1806.36 956.833C1815.46 949.43 1826.95 945.354 1838.7 945.354C1850.45 945.354 1861.93 949.43 1871.03 956.833C1875.75 960.673 1879.74 965.321 1882.81 970.5C1889.43 966.508 1897.09 964.302 1904.96 964.302C1915.8 964.302 1926.14 968.355 1934.08 975.713C1939.58 980.811 1943.59 987.174 1945.81 994.184C1954.67 995.076 1963.12 998.71 1969.9 1004.7C1979.11 1012.82 1984.39 1024.53 1984.39 1036.82C1984.39 1049.09 1979.12 1060.8 1969.92 1068.92C1963.16 1074.89 1954.75 1078.52 1945.93 1079.44C1940.53 1097.02 1924.07 1109.73 1904.96 1109.73C1897.01 1109.73 1889.29 1107.49 1882.63 1103.43C1879.55 1108.54 1875.58 1113.13 1870.88 1116.92C1861.81 1124.25 1850.38 1128.28 1838.7 1128.28Z" fill="#EDF4FF"/>
<path d="M1969.9 1004.7C1963.12 998.71 1954.67 995.076 1945.81 994.184C1943.59 987.174 1939.58 980.811 1934.08 975.713C1926.13 968.355 1915.8 964.302 1904.96 964.302C1897.09 964.302 1889.42 966.508 1882.81 970.5C1879.73 965.321 1875.75 960.673 1871.03 956.833C1861.93 949.43 1850.45 945.354 1838.7 945.354V1128.28C1850.38 1128.28 1861.81 1124.25 1870.88 1116.92C1875.58 1113.13 1879.55 1108.55 1882.63 1103.43C1889.28 1107.49 1897.01 1109.73 1904.96 1109.73C1924.07 1109.73 1940.52 1097.02 1945.93 1079.44C1954.75 1078.52 1963.16 1074.89 1969.92 1068.92C1979.12 1060.8 1984.39 1049.1 1984.39 1036.82C1984.39 1024.53 1979.11 1012.82 1969.9 1004.7Z" fill="#DBEAFF"/>
<path d="M1644.15 1048.46L1613.1 1046.65L1611.29 1030.82C1611.29 1005.81 1594.64 987.356 1569.64 987.356H1551.02C1538.34 963.255 1516.7 946.811 1487.57 946.811C1481.31 946.811 1475.22 945.761 1469.4 947.195C1436.34 955.336 1411.82 985.18 1411.82 1020.75V1046.65H1389.88C1351.29 1046.65 1320 1077.94 1320 1116.53C1320 1155.13 1351.29 1186.41 1389.88 1186.41H1626.04C1664.64 1186.41 1712.22 1155.13 1712.22 1116.53C1712.22 1077.94 1682.75 1048.46 1644.15 1048.46Z" fill="#EDF4FF"/>
<path d="M1644.15 1046.65H1614.91V1030.82C1614.91 1005.81 1594.64 985.545 1569.64 985.545H1554.64C1541.97 961.444 1516.7 945 1487.57 945C1481.31 945 1475.23 945.775 1469.4 947.209C1488.03 951.769 1503.96 963.192 1514.33 978.671C1517.25 983.03 1522.24 985.545 1527.49 985.545H1533.42C1558.42 985.545 1578.69 1005.81 1578.69 1030.82C1578.69 1039.56 1585.78 1046.65 1594.53 1046.65H1607.94C1646.53 1046.65 1677.82 1077.94 1677.82 1116.53C1677.82 1155.13 1646.53 1186.41 1607.94 1186.41H1644.15C1682.75 1186.41 1714.04 1155.13 1714.04 1116.53C1714.03 1077.94 1682.75 1046.65 1644.15 1046.65Z" fill="#DBEAFF"/>
<g clip-path="url(#clip1)">
<path d="M1491.31 546.424L1374.77 493.498L1491.31 515.198L1491.31 468.363L1266.11 388.233L1491.31 405.915L1491.31 281.017L429.689 281.017L429.689 1202.13L517.937 1233.36L429.689 1233.36L429.689 1280.19L429.689 1303.92L429.689 1342.64L429.689 1529.98L1491.31 1529.98L1491.31 546.424Z" fill="#FAE6A7"/>
<path d="M1522.54 1779.78L1522.54 1529.98L398.467 1529.98L398.467 1779.78L1522.54 1779.78Z" fill="#FAE6A7"/>
<path d="M1522.54 281.02L1522.54 31.2256L398.467 31.2255L398.467 281.02L1522.54 281.02Z" fill="#FAE6A7"/>
<path d="M1491.31 124.899L1491.31 31.2256L429.69 31.2255L429.69 124.899L1491.31 124.899Z" fill="#EBD798"/>
<path d="M1491.31 1623.66L1491.31 1529.98L429.69 1529.98L429.69 1623.66L1491.31 1623.66Z" fill="#EBD798"/>
<path d="M1491.31 1779.77L1491.31 1717.33L429.69 1717.33L429.69 1779.77L1491.31 1779.77Z" fill="#FFF4CB"/>
<path d="M1491.31 281.016L1491.31 218.568L429.69 218.568L429.69 281.016L1491.31 281.016Z" fill="#FFF4CB"/>
<path d="M1491.31 343.464L1491.31 281.017L429.69 281.017L429.69 343.464L1491.31 343.464Z" fill="#EBD798"/>
<path d="M1491.31 1529.98L1491.31 1467.54L429.69 1467.54L429.69 1529.98L1491.31 1529.98Z" fill="#E1CD93"/>
<path d="M1491.31 281.016L1491.31 31.2256C1491.31 13.9822 1505.29 -2.11865e-06 1522.54 -1.36492e-06C1539.78 -6.11181e-07 1553.76 13.9822 1553.76 31.2256L1553.76 281.02C1553.76 298.263 1539.78 312.246 1522.54 312.246C1505.29 312.242 1491.31 298.26 1491.31 281.016Z" fill="#895438"/>
<path d="M1553.76 187.346L1553.76 124.895L1803.86 99.8843C1837.13 96.5594 1866 122.684 1866 156.121C1866 189.557 1837.13 215.682 1803.86 212.354L1553.76 187.346Z" fill="#895438"/>
<path d="M1553.76 187.347L1553.76 124.896C1553.76 107.652 1567.74 93.6699 1584.98 93.6699C1602.23 93.6699 1616.21 107.652 1616.21 124.896L1616.21 187.343C1616.21 204.587 1602.23 218.569 1584.98 218.569C1567.74 218.569 1553.76 204.59 1553.76 187.347Z" fill="#FFE159"/>
<path d="M1553.76 124.896C1553.76 107.652 1567.74 93.6699 1584.98 93.6699C1602.23 93.6699 1616.21 107.652 1616.21 124.896C1616.21 142.139 1602.23 156.121 1584.98 156.121C1567.74 156.121 1553.76 142.139 1553.76 124.896Z" fill="#FFC83C"/>
<path d="M429.689 31.2256L429.689 281.02C429.689 298.263 415.707 312.245 398.464 312.245C381.221 312.245 367.239 298.263 367.239 281.02L367.239 31.2256C367.239 13.9822 381.221 -2.11864e-06 398.464 -1.36491e-06C415.707 -6.11179e-07 429.689 13.9822 429.689 31.2256Z" fill="#895438"/>
<path d="M367.242 124.896L367.242 187.344L117.14 212.355C83.8701 215.683 55.0002 189.558 55.0003 156.122C55.0003 122.685 83.8701 96.5603 117.14 99.8888L367.242 124.896Z" fill="#895438"/>
<path d="M367.242 124.896L367.242 187.343C367.242 204.587 353.26 218.569 336.016 218.569C318.773 218.569 304.791 204.587 304.791 187.343L304.791 124.896C304.791 107.652 318.773 93.6699 336.016 93.6699C353.26 93.6735 367.242 107.652 367.242 124.896Z" fill="#FFE159"/>
<path d="M1491.31 1779.77L1491.31 1529.98C1491.31 1512.74 1505.29 1498.75 1522.54 1498.75C1539.78 1498.75 1553.76 1512.74 1553.76 1529.98L1553.76 1779.77C1553.76 1797.02 1539.78 1811 1522.54 1811C1505.29 1811 1491.31 1797.02 1491.31 1779.77Z" fill="#895438"/>
<path d="M1553.76 1686.11L1553.76 1623.66L1803.86 1598.65C1837.13 1595.32 1866 1621.44 1866 1654.88C1866 1688.32 1837.13 1714.44 1803.86 1711.11L1553.76 1686.11Z" fill="#895438"/>
<path d="M1553.76 1686.1L1553.76 1623.66C1553.76 1606.41 1567.74 1592.43 1584.98 1592.43C1602.23 1592.43 1616.21 1606.41 1616.21 1623.66L1616.21 1686.1C1616.21 1703.35 1602.23 1717.33 1584.98 1717.33C1567.74 1717.33 1553.76 1703.35 1553.76 1686.1Z" fill="#FFE159"/>
<path d="M429.69 1529.98L429.69 1779.78C429.69 1797.02 415.708 1811 398.464 1811C381.221 1811 367.239 1797.02 367.239 1779.78L367.239 1529.98C367.239 1512.74 381.221 1498.76 398.464 1498.76C415.708 1498.76 429.69 1512.74 429.69 1529.98Z" fill="#895438"/>
<path d="M367.242 1623.65L367.242 1686.1L117.14 1711.11C83.8702 1714.44 55.0004 1688.32 55.0004 1654.88C55.0004 1621.44 83.8702 1595.32 117.14 1598.65L367.242 1623.65Z" fill="#895438"/>
<path d="M367.242 1623.65L367.242 1686.1C367.242 1703.34 353.26 1717.33 336.016 1717.33C318.773 1717.33 304.791 1703.34 304.791 1686.1L304.791 1623.65C304.791 1606.41 318.773 1592.43 336.016 1592.43C353.26 1592.43 367.242 1606.41 367.242 1623.65Z" fill="#FFE159"/>
<path d="M1491.31 124.895L1491.31 31.2256C1491.31 13.9822 1505.29 -2.11865e-06 1522.54 -1.36492e-06C1539.78 -6.11181e-07 1553.76 13.9822 1553.76 31.2256L1553.76 124.895C1553.76 142.139 1539.78 156.121 1522.54 156.121C1505.29 156.121 1491.31 142.139 1491.31 124.895Z" fill="#6C392C"/>
<path d="M367.242 124.895L367.242 31.2256C367.242 13.9822 381.224 -2.11865e-06 398.467 -1.36492e-06C415.711 -6.11182e-07 429.693 13.9822 429.693 31.2256L429.693 124.895C429.693 142.139 415.711 156.121 398.467 156.121C381.22 156.121 367.242 142.139 367.242 124.895Z" fill="#6C392C"/>
<path d="M1491.31 1623.65L1491.31 1529.98C1491.31 1512.74 1505.29 1498.75 1522.54 1498.75C1539.78 1498.75 1553.76 1512.74 1553.76 1529.98L1553.76 1623.65C1553.76 1640.9 1539.78 1654.88 1522.54 1654.88C1505.29 1654.88 1491.31 1640.9 1491.31 1623.65Z" fill="#6C392C"/>
<path d="M367.242 1623.65L367.242 1529.98C367.242 1512.74 381.224 1498.75 398.467 1498.75C415.711 1498.75 429.693 1512.74 429.693 1529.98L429.693 1623.65C429.693 1640.9 415.711 1654.88 398.467 1654.88C381.22 1654.88 367.242 1640.9 367.242 1623.65Z" fill="#6C392C"/>
<path d="M304.794 124.896C304.794 107.652 318.776 93.6699 336.02 93.6699C353.263 93.6699 367.245 107.652 367.245 124.896C367.245 142.139 353.263 156.121 336.02 156.121C318.773 156.121 304.794 142.139 304.794 124.896Z" fill="#FFC83C"/>
<path d="M1553.76 1623.65C1553.76 1606.41 1567.74 1592.43 1584.98 1592.43C1602.23 1592.43 1616.21 1606.41 1616.21 1623.65C1616.21 1640.9 1602.23 1654.88 1584.98 1654.88C1567.74 1654.88 1553.76 1640.9 1553.76 1623.65Z" fill="#FFC83C"/>
<path d="M304.794 1623.65C304.794 1606.41 318.777 1592.43 336.02 1592.43C353.263 1592.43 367.246 1606.41 367.246 1623.65C367.246 1640.9 353.263 1654.88 336.02 1654.88C318.773 1654.88 304.794 1640.9 304.794 1623.65Z" fill="#FFC83C"/>
</g>
</g>
<defs>
<filter id="filter0_f" x="259" y="1310" width="240" height="183.176" filterUnits="userSpaceOnUse" color-interpolation-filters="sRGB">
<feFlood flood-opacity="0" result="BackgroundImageFix"/>
<feBlend mode="normal" in="SourceGraphic" in2="BackgroundImageFix" result="shape"/>
<feGaussianBlur stdDeviation="10" result="effect1_foregroundBlur"/>
</filter>
<filter id="filter1_f" x="-10" y="328" width="532" height="351.231" filterUnits="userSpaceOnUse" color-interpolation-filters="sRGB">
<feFlood flood-opacity="0" result="BackgroundImageFix"/>
<feBlend mode="normal" in="SourceGraphic" in2="BackgroundImageFix" result="shape"/>
<feGaussianBlur stdDeviation="5" result="effect1_foregroundBlur"/>
</filter>
<clipPath id="clip0">
<rect width="1920" height="1811" fill="white"/>
</clipPath>
<clipPath id="clip1">
<rect width="1811" height="1811" fill="white" transform="translate(1866) rotate(90)"/>
</clipPath>
</defs>
</svg>
