<svg width="1920" height="822" viewBox="0 0 1920 822" fill="none" xmlns="http://www.w3.org/2000/svg">
<g clip-path="url(#clip0)">
<g filter="url(#filter0_f)">
<path d="M424.052 781.615C403.318 781.615 355.209 766.471 333.874 747.587C326.005 740.622 322.016 733.449 322.016 726.267C322.016 710.328 334.983 697.361 350.922 697.361C353.654 697.361 356.35 697.744 358.938 698.49C362.852 687.108 373.639 679.026 386.273 679.026C396.715 679.026 406.266 684.704 411.355 693.559C412.171 693.49 412.991 693.455 413.812 693.455C429.752 693.455 442.719 706.422 442.719 722.361C442.719 724.236 442.541 726.086 442.188 727.9C450.621 733.091 456 742.427 456 752.549C456 760.144 452.943 767.233 447.393 772.512C442.332 777.325 435.375 780.486 427.805 781.412C426.686 781.548 425.429 781.615 424.052 781.615Z" fill="#EDF4FF"/>
<path d="M442.188 727.899C442.541 726.085 442.719 724.235 442.719 722.361C442.719 706.422 429.752 693.454 413.812 693.454C412.991 693.454 412.171 693.489 411.355 693.558C406.714 685.483 398.362 680.052 389.008 679.158V774.926C402.78 779.133 415.659 781.615 424.052 781.615C425.429 781.615 426.686 781.548 427.805 781.411C435.375 780.486 442.332 777.325 447.393 772.511C452.943 767.233 456 760.144 456 752.549C456 742.427 450.621 733.091 442.188 727.899Z" fill="#DBEAFF"/>
<path d="M339.255 822.204C332.58 822.204 326.047 819.899 320.862 815.713C318.18 813.548 315.91 810.927 314.148 808.004C310.346 810.324 305.932 811.606 301.388 811.606C290.47 811.606 281.067 804.343 277.976 794.293C272.937 793.771 268.132 791.696 264.272 788.286C259.015 783.642 256 776.955 256 769.939C256 757.26 265.686 746.802 278.046 745.574C279.316 741.57 281.608 737.934 284.752 735.022C289.29 730.818 295.198 728.502 301.388 728.502C305.889 728.502 310.267 729.763 314.048 732.044C315.804 729.084 318.08 726.429 320.777 724.234C325.978 720.004 332.541 717.674 339.255 717.674C345.97 717.674 352.532 720.004 357.733 724.234C360.43 726.429 362.706 729.085 364.463 732.044C368.243 729.763 372.621 728.502 377.122 728.502C383.312 728.502 389.22 730.818 393.759 735.022C396.903 737.936 399.196 741.572 400.465 745.577C405.526 746.087 410.353 748.163 414.23 751.585C419.493 756.229 422.511 762.918 422.511 769.939C422.511 776.955 419.495 783.642 414.238 788.286C410.378 791.695 405.573 793.771 400.534 794.293C397.443 804.342 388.039 811.606 377.122 811.606C372.578 811.606 368.164 810.323 364.362 808.003C362.6 810.927 360.33 813.548 357.648 815.712C352.462 819.898 345.93 822.204 339.255 822.204Z" fill="#EDF4FF"/>
<path d="M414.23 751.585C410.353 748.163 405.526 746.087 400.465 745.577C399.196 741.572 396.903 737.936 393.758 735.022C389.22 730.818 383.312 728.502 377.122 728.502C372.621 728.502 368.243 729.763 364.462 732.044C362.706 729.084 360.431 726.429 357.733 724.234C352.532 720.004 345.969 717.674 339.255 717.674V822.204C345.93 822.204 352.462 819.899 357.648 815.713C360.329 813.548 362.599 810.927 364.361 808.004C368.163 810.324 372.578 811.606 377.122 811.606C388.039 811.606 397.443 804.343 400.533 794.293C405.572 793.771 410.377 791.695 414.238 788.286C419.495 783.643 422.51 776.956 422.51 769.939C422.51 762.918 419.492 756.229 414.23 751.585Z" fill="#DBEAFF"/>
</g>
<g filter="url(#filter1_f)">
<path d="M36.6762 176.643C28.1012 194.508 -48.2448 211.799 -104.199 209.13C-120.24 208.365 -129.081 227.417 -118.178 239.206C-79.1778 281.375 -5.31575 299.178 65.1292 277.119L36.6762 176.643Z" fill="#EDF4FF"/>
<path opacity="0.15" d="M36.6764 176.643C32.6684 184.993 13.8534 193.218 -10.7636 199.337C-11.6456 206.144 -12.1036 213.084 -12.1036 220.131C-12.1036 236.144 -9.15954 251.468 -3.79754 265.6C-50.0886 267.196 -93.1746 251.176 -119.099 223.143C-120.056 222.108 -120.838 221.01 -121.467 219.873C-124.11 225.944 -123.509 233.441 -118.177 239.206C-79.1766 281.375 -5.31454 299.178 65.1304 277.119L36.6764 176.643Z" fill="#DBEAFF"/>
<path d="M156.349 146.524C201.687 146.524 238.441 183.278 238.441 228.616C238.441 285.289 192.499 331.231 135.826 331.231C64.9846 331.231 7.55664 273.803 7.55664 202.962C7.55664 114.411 79.3416 42.626 167.893 42.626C264.199 42.626 332.77 85.948 358.556 152.636C381.133 211.026 359.445 318.911 214.293 294.715" fill="#EDF4FF"/>
<path opacity="0.15" d="M204.197 44.8203C205.201 62.8363 211.411 79.8833 214.243 90.7373C214.957 83.4483 225.579 52.0953 229.104 49.1363C221.086 47.3303 212.783 45.8823 204.197 44.8203Z" fill="#51B4DB"/>
<path opacity="0.15" d="M156.349 146.523C177.601 146.523 196.967 154.599 211.546 167.849C214.462 170.499 217.186 173.356 219.695 176.397C221.368 178.424 222.946 180.533 224.421 182.717C232.535 194.727 237.554 209 238.334 224.391C238.405 225.79 238.441 227.198 238.441 228.615C238.441 253.409 229.647 276.15 215.009 293.888L215.515 294.903C240.244 298.917 261.366 299.08 279.269 296.294C325.931 165.354 198.522 121.982 156.349 146.523Z" fill="#51B4DB"/>
<path opacity="0.15" d="M348.881 132.22C291.289 145.964 282.958 106.317 277.104 87.5596C263.72 149.502 327.981 167.137 358.204 151.78C355.539 145.007 352.416 138.486 348.881 132.22Z" fill="#51B4DB"/>
<path d="M277.105 87.5598C275.464 114.808 296.222 138.228 323.471 139.87C357.532 141.922 386.806 115.973 388.858 81.9118C391.423 39.3358 358.987 2.74276 316.411 0.177757C263.191 -3.02824 217.449 37.5167 214.244 90.7367" fill="#EDF4FF"/>
</g>
<path d="M1194.48 252.38L1143 229L1194.48 238.586V217.897L1095 182.5L1194.48 190.311V135.137H725.517V542.034L764.5 555.828H725.517V576.517V587V604.103V686.862H1194.48V252.38Z" fill="#FAE6A7"/>
<path d="M1208.28 797.208V686.863H711.725V797.208H1208.28Z" fill="#FAE6A7"/>
<path d="M1208.28 135.139V24.7939H711.725V135.139H1208.28Z" fill="#FAE6A7"/>
<path d="M1194.48 66.1729V24.7939H725.517V66.1729H1194.48Z" fill="#EBD798"/>
<path d="M1194.48 728.242V686.862H725.517V728.242H1194.48Z" fill="#EBD798"/>
<path d="M1194.48 797.206V769.62H725.517V797.206H1194.48Z" fill="#FFF4CB"/>
<path d="M1194.48 135.137V107.552L725.517 107.551V135.137H1194.48Z" fill="#FFF4CB"/>
<path d="M1194.48 162.723V135.137H725.517V162.723H1194.48Z" fill="#EBD798"/>
<path d="M1194.48 686.863V659.277H725.517V686.863H1194.48Z" fill="#E1CD93"/>
<path d="M1194.48 135.138V24.794C1194.48 17.177 1200.66 11 1208.28 11C1215.89 11 1222.07 17.177 1222.07 24.794V135.139C1222.07 142.756 1215.89 148.933 1208.28 148.933C1200.66 148.931 1194.48 142.755 1194.48 135.138Z" fill="#895438"/>
<path d="M1222.07 93.7591V66.1721L1332.55 55.1231C1347.25 53.6551 1360 65.1951 1360 79.9661C1360 94.7361 1347.25 106.277 1332.55 104.806L1222.07 93.7591Z" fill="#895438"/>
<path d="M1222.07 93.7589V66.1719C1222.07 58.5549 1228.25 52.3779 1235.86 52.3779C1243.48 52.3779 1249.66 58.5549 1249.66 66.1719V93.7579C1249.66 101.375 1243.48 107.552 1235.86 107.552C1228.25 107.552 1222.07 101.377 1222.07 93.7589Z" fill="#FFE159"/>
<path d="M1222.07 66.1719C1222.07 58.5549 1228.25 52.3779 1235.86 52.3779C1243.48 52.3779 1249.66 58.5549 1249.66 66.1719C1249.66 73.7889 1243.48 79.9659 1235.86 79.9659C1228.25 79.9659 1222.07 73.7889 1222.07 66.1719Z" fill="#FFC83C"/>
<path d="M725.518 24.794V135.139C725.518 142.756 719.341 148.933 711.724 148.933C704.107 148.933 697.93 142.756 697.93 135.139V24.794C697.93 17.177 704.107 11 711.724 11C719.341 11 725.518 17.177 725.518 24.794Z" fill="#895438"/>
<path d="M697.932 66.1724V93.7584L587.45 104.806C572.753 106.277 560 94.7364 560 79.9664C560 65.1954 572.753 53.6554 587.45 55.1254L697.932 66.1724Z" fill="#895438"/>
<path d="M697.932 66.1719V93.7579C697.932 101.375 691.755 107.551 684.138 107.551C676.521 107.551 670.344 101.375 670.344 93.7579V66.1719C670.344 58.5549 676.521 52.3779 684.138 52.3779C691.755 52.3799 697.932 58.5549 697.932 66.1719Z" fill="#FFE159"/>
<path d="M1194.48 797.206V686.861C1194.48 679.244 1200.66 673.067 1208.28 673.067C1215.89 673.067 1222.07 679.244 1222.07 686.861V797.206C1222.07 804.823 1215.89 811 1208.28 811C1200.66 811 1194.48 804.823 1194.48 797.206Z" fill="#895438"/>
<path d="M1222.07 755.828V728.242L1332.55 717.194C1347.25 715.724 1360 727.264 1360 742.034C1360 756.805 1347.25 768.345 1332.55 766.875L1222.07 755.828Z" fill="#895438"/>
<path d="M1222.07 755.828V728.242C1222.07 720.625 1228.25 714.448 1235.86 714.448C1243.48 714.448 1249.66 720.625 1249.66 728.242V755.828C1249.66 763.445 1243.48 769.622 1235.86 769.622C1228.25 769.62 1222.07 763.445 1222.07 755.828Z" fill="#FFE159"/>
<path d="M725.518 686.863V797.208C725.518 804.825 719.341 811.002 711.724 811.002C704.107 811.002 697.93 804.825 697.93 797.208V686.863C697.93 679.245 704.107 673.069 711.724 673.069C719.341 673.069 725.518 679.245 725.518 686.863Z" fill="#895438"/>
<path d="M697.932 728.241V755.827L587.45 766.875C572.753 768.344 560 756.805 560 742.034C560 727.264 572.753 715.724 587.45 717.194L697.932 728.241Z" fill="#895438"/>
<path d="M697.932 728.241V755.827C697.932 763.444 691.755 769.62 684.138 769.62C676.521 769.62 670.344 763.444 670.344 755.827V728.241C670.344 720.623 676.521 714.447 684.138 714.447C691.755 714.448 697.932 720.623 697.932 728.241Z" fill="#FFE159"/>
<path d="M1194.48 66.172V24.794C1194.48 17.177 1200.66 11 1208.28 11C1215.89 11 1222.07 17.177 1222.07 24.794V66.172C1222.07 73.789 1215.89 79.966 1208.28 79.966C1200.66 79.966 1194.48 73.789 1194.48 66.172Z" fill="#6C392C"/>
<path d="M697.931 66.172V24.794C697.931 17.177 704.108 11 711.725 11C719.342 11 725.519 17.177 725.519 24.794V66.172C725.519 73.789 719.342 79.966 711.725 79.966C704.106 79.966 697.931 73.789 697.931 66.172Z" fill="#6C392C"/>
<path d="M1194.48 728.241V686.861C1194.48 679.244 1200.66 673.067 1208.28 673.067C1215.89 673.067 1222.07 679.244 1222.07 686.861V728.241C1222.07 735.858 1215.89 742.034 1208.28 742.034C1200.66 742.034 1194.48 735.859 1194.48 728.241Z" fill="#6C392C"/>
<path d="M697.931 728.241V686.861C697.931 679.244 704.108 673.067 711.725 673.067C719.342 673.067 725.519 679.244 725.519 686.861V728.241C725.519 735.858 719.342 742.034 711.725 742.034C704.106 742.034 697.931 735.859 697.931 728.241Z" fill="#6C392C"/>
<path d="M670.345 66.1719C670.345 58.5549 676.522 52.3779 684.139 52.3779C691.756 52.3779 697.933 58.5549 697.933 66.1719C697.933 73.7889 691.756 79.9659 684.139 79.9659C676.52 79.9659 670.345 73.7889 670.345 66.1719Z" fill="#FFC83C"/>
<path d="M1222.07 728.241C1222.07 720.624 1228.25 714.447 1235.86 714.447C1243.48 714.447 1249.66 720.624 1249.66 728.241C1249.66 735.858 1243.48 742.035 1235.86 742.035C1228.25 742.035 1222.07 735.86 1222.07 728.241Z" fill="#FFC83C"/>
<path d="M670.345 728.241C670.345 720.624 676.522 714.447 684.139 714.447C691.756 714.447 697.933 720.624 697.933 728.241C697.933 735.858 691.756 742.035 684.139 742.035C676.52 742.035 670.345 735.86 670.345 728.241Z" fill="#FFC83C"/>
<path d="M1865.04 353.614C1865.04 253.26 1783.39 171.615 1683.04 171.615C1582.68 171.615 1501.04 253.26 1501.04 353.614V606.034C1518.5 599.842 1531.04 583.169 1531.04 563.614V353.614C1531.04 269.802 1599.22 201.615 1683.04 201.615C1766.85 201.615 1835.04 269.802 1835.04 353.614V433.613C1835.04 453.168 1847.58 469.841 1865.04 476.033V353.614Z" fill="#FF8856"/>
<path d="M1683.04 171.615C1683.02 171.615 1683.01 171.615 1683 171.615V201.615H1683.04C1766.85 201.615 1835.04 269.802 1835.04 353.614V433.613C1835.04 453.168 1847.58 469.841 1865.04 476.033V353.614C1865.04 253.26 1783.39 171.615 1683.04 171.615Z" fill="#FF435B"/>
<path d="M1546.04 548.614C1537.75 548.614 1531.04 541.898 1531.04 533.614V353.615C1531.04 269.802 1599.22 201.615 1683.04 201.615C1766.85 201.615 1835.04 269.802 1835.04 353.615V443.614C1835.04 451.898 1828.32 458.614 1820.04 458.614C1811.75 458.614 1805.04 451.898 1805.04 443.614V353.615C1805.04 286.344 1750.31 231.615 1683.04 231.615C1615.77 231.615 1561.04 286.344 1561.04 353.615V533.614C1561.04 541.898 1554.32 548.614 1546.04 548.614Z" fill="#FDBF00"/>
<path d="M1683.04 201.615C1683.02 201.615 1683.01 201.615 1683 201.615V231.615H1683.04C1750.31 231.615 1805.04 286.344 1805.04 353.615V443.614C1805.04 451.898 1811.75 458.614 1820.04 458.614C1828.32 458.614 1835.04 451.898 1835.04 443.614V353.615C1835.04 269.802 1766.85 201.615 1683.04 201.615Z" fill="#FF8856"/>
<path d="M1606.04 583.086C1597.75 583.086 1591.04 576.37 1591.04 568.086V353.616C1591.04 302.887 1632.31 261.616 1683.04 261.616C1733.76 261.616 1775.04 302.887 1775.04 353.616V433.613C1775.04 441.897 1768.32 448.613 1760.04 448.613C1751.75 448.613 1745.04 441.897 1745.04 433.613V353.616C1745.04 319.429 1717.22 291.616 1683.04 291.616C1648.85 291.616 1621.04 319.429 1621.04 353.616V568.086C1621.04 576.37 1614.32 583.086 1606.04 583.086Z" fill="#7DD5F4"/>
<path d="M1683.04 261.616C1683.02 261.616 1683.01 261.616 1683 261.616V291.616C1683.01 291.616 1683.02 291.615 1683.04 291.615C1717.22 291.615 1745.04 319.428 1745.04 353.615V433.612C1745.04 441.896 1751.75 448.612 1760.04 448.612C1768.32 448.612 1775.04 441.896 1775.04 433.612V353.615C1775.04 302.887 1733.77 261.616 1683.04 261.616Z" fill="#4793FF"/>
<path d="M1486.04 556.114C1477.75 556.114 1471.04 549.398 1471.04 541.114V353.614C1471.04 297.205 1493.15 244.027 1533.3 203.877C1573.45 163.727 1626.63 141.615 1683.04 141.615C1739.45 141.615 1792.62 163.727 1832.77 203.878C1872.92 244.027 1895.04 297.205 1895.04 353.614V422.893C1895.04 431.177 1888.32 437.893 1880.04 437.893C1871.75 437.893 1865.04 431.177 1865.04 422.893V353.614C1865.04 253.26 1783.39 171.615 1683.04 171.615C1582.68 171.615 1501.04 253.26 1501.04 353.614V541.114C1501.04 549.398 1494.32 556.114 1486.04 556.114Z" fill="#FF435B"/>
<path d="M1832.77 203.878C1792.62 163.727 1739.45 141.615 1683.04 141.615C1683.02 141.615 1683.01 141.615 1683 141.615V171.615H1683.04C1783.39 171.615 1865.04 253.26 1865.04 353.614V422.893C1865.04 431.177 1871.75 437.893 1880.04 437.893C1888.32 437.893 1895.04 431.177 1895.04 422.893V353.614C1895.04 297.205 1872.92 244.027 1832.77 203.878Z" fill="#CC2E43"/>
<path d="M1805.04 353.615C1805.04 286.344 1750.31 231.615 1683.04 231.615C1615.77 231.615 1561.04 286.344 1561.04 353.615V576.034C1578.5 569.842 1591.04 553.169 1591.04 533.614V353.615C1591.04 302.886 1632.31 261.615 1683.04 261.615C1733.76 261.615 1775.04 302.886 1775.04 353.615V443.614C1775.04 463.169 1787.58 479.842 1805.04 486.034V353.615Z" fill="#BEE75E"/>
<path d="M1683.04 231.615C1683.02 231.615 1683.01 231.615 1683 231.615V261.615H1683.04C1733.77 261.615 1775.04 302.886 1775.04 353.615V443.614C1775.04 463.169 1787.58 479.842 1805.04 486.034V353.615C1805.04 286.344 1750.31 231.615 1683.04 231.615Z" fill="#00CB75"/>
<path d="M1987.09 529.867C1950.81 529.867 1866.62 503.365 1829.28 470.317C1815.51 458.129 1808.53 445.576 1808.53 433.008C1808.53 405.115 1831.22 382.422 1859.11 382.422C1863.89 382.422 1868.61 383.093 1873.14 384.398C1879.99 364.48 1898.87 350.335 1920.98 350.335C1939.25 350.335 1955.97 360.272 1964.87 375.769C1966.3 375.648 1967.73 375.587 1969.17 375.587C1997.07 375.587 2019.76 398.279 2019.76 426.173C2019.76 429.453 2019.45 432.691 2018.83 435.865C2033.59 444.95 2043 461.288 2043 479.001C2043 492.292 2037.65 504.699 2027.94 513.936C2019.08 522.359 2006.91 527.891 1993.66 529.511C1991.7 529.75 1989.5 529.867 1987.09 529.867Z" fill="#EDF4FF"/>
<path d="M1838.7 600.895C1827.01 600.895 1815.58 596.861 1806.51 589.536C1801.82 585.748 1797.84 581.161 1794.76 576.045C1788.11 580.106 1780.38 582.349 1772.43 582.349C1753.32 582.349 1736.87 569.638 1731.46 552.052C1722.64 551.138 1714.23 547.506 1707.48 541.539C1698.28 533.413 1693 521.71 1693 509.432C1693 487.244 1709.95 468.942 1731.58 466.793C1733.8 459.786 1737.81 453.424 1743.32 448.328C1751.26 440.97 1761.6 436.918 1772.43 436.918C1780.31 436.918 1787.97 439.123 1794.58 443.116C1797.66 437.937 1801.64 433.289 1806.36 429.449C1815.46 422.046 1826.95 417.969 1838.7 417.969C1850.45 417.969 1861.93 422.046 1871.03 429.449C1875.75 433.289 1879.74 437.937 1882.81 443.116C1889.43 439.124 1897.09 436.918 1904.96 436.918C1915.8 436.918 1926.14 440.97 1934.08 448.328C1939.58 453.426 1943.59 459.789 1945.81 466.799C1954.67 467.691 1963.12 471.325 1969.9 477.312C1979.11 485.439 1984.39 497.146 1984.39 509.432C1984.39 521.71 1979.12 533.413 1969.92 541.539C1963.16 547.506 1954.75 551.138 1945.93 552.051C1940.53 569.638 1924.07 582.349 1904.96 582.349C1897.01 582.349 1889.29 580.104 1882.63 576.044C1879.55 581.16 1875.58 585.747 1870.88 589.535C1861.81 596.861 1850.38 600.895 1838.7 600.895Z" fill="#EDF4FF"/>
<path d="M1969.9 477.312C1963.12 471.325 1954.67 467.691 1945.81 466.799C1943.59 459.789 1939.58 453.426 1934.08 448.328C1926.13 440.97 1915.8 436.918 1904.96 436.918C1897.09 436.918 1889.42 439.124 1882.81 443.116C1879.73 437.937 1875.75 433.289 1871.03 429.449C1861.93 422.046 1850.45 417.969 1838.7 417.969V600.895C1850.38 600.895 1861.81 596.861 1870.88 589.536C1875.58 585.748 1879.55 581.161 1882.63 576.045C1889.28 580.105 1897.01 582.349 1904.96 582.349C1924.07 582.349 1940.52 569.638 1945.93 552.052C1954.75 551.138 1963.16 547.506 1969.92 541.539C1979.12 533.413 1984.39 521.711 1984.39 509.432C1984.39 497.146 1979.11 485.439 1969.9 477.312Z" fill="#DBEAFF"/>
<path d="M1644.15 521.076L1613.1 519.265L1611.29 503.431C1611.29 478.428 1594.64 459.97 1569.64 459.97H1551.02C1538.34 435.869 1516.7 419.425 1487.57 419.425C1481.31 419.425 1475.22 418.375 1469.4 419.809C1436.34 427.95 1411.82 457.794 1411.82 493.364V519.265H1389.88C1351.29 519.265 1320 550.551 1320 589.146C1320 627.741 1351.29 659.028 1389.88 659.028H1626.04C1664.64 659.028 1712.22 627.741 1712.22 589.146C1712.22 550.553 1682.75 521.076 1644.15 521.076Z" fill="#EDF4FF"/>
<path d="M1644.15 519.266H1614.91V503.432C1614.91 478.429 1594.64 458.16 1569.64 458.16H1554.64C1541.97 434.059 1516.7 417.615 1487.57 417.615C1481.31 417.615 1475.23 418.39 1469.4 419.824C1488.03 424.384 1503.96 435.807 1514.33 451.286C1517.25 455.645 1522.24 458.16 1527.49 458.16H1533.42C1558.42 458.16 1578.69 478.429 1578.69 503.432C1578.69 512.177 1585.78 519.266 1594.53 519.266H1607.94C1646.53 519.266 1677.82 550.552 1677.82 589.147C1677.82 627.742 1646.53 659.029 1607.94 659.029H1644.15C1682.75 659.029 1714.04 627.742 1714.04 589.147C1714.03 550.554 1682.75 519.266 1644.15 519.266Z" fill="#DBEAFF"/>
</g>
<defs>
<filter id="filter0_f" x="236" y="659.026" width="240" height="183.177" filterUnits="userSpaceOnUse" color-interpolation-filters="sRGB">
<feFlood flood-opacity="0" result="BackgroundImageFix"/>
<feBlend mode="normal" in="SourceGraphic" in2="BackgroundImageFix" result="shape"/>
<feGaussianBlur stdDeviation="10" result="effect1_foregroundBlur"/>
</filter>
<filter id="filter1_f" x="-133" y="-10" width="532" height="351.231" filterUnits="userSpaceOnUse" color-interpolation-filters="sRGB">
<feFlood flood-opacity="0" result="BackgroundImageFix"/>
<feBlend mode="normal" in="SourceGraphic" in2="BackgroundImageFix" result="shape"/>
<feGaussianBlur stdDeviation="5" result="effect1_foregroundBlur"/>
</filter>
<clipPath id="clip0">
<rect width="1920" height="822" fill="white"/>
</clipPath>
</defs>
</svg>
