<svg width="1920" height="1080" viewBox="0 0 1920 1080" fill="none" xmlns="http://www.w3.org/2000/svg">
<path d="M675.702 336.144L651.798 335.568L651.222 403.824C651.222 421.488 651.894 433.008 653.238 438.384C654.582 443.568 658.422 446.16 664.758 446.16C667.83 446.16 671.478 445.2 675.702 443.28C679.926 441.168 682.518 440.112 683.478 440.112C687.51 440.112 689.526 442.128 689.526 446.16C689.526 450.192 685.974 454.32 678.87 458.544C671.766 462.768 664.758 464.88 657.846 464.88C641.142 464.88 632.79 452.592 632.79 428.016L632.502 335.568C626.166 336.144 621.75 336.432 619.254 336.432C609.654 336.432 604.854 333.264 604.854 326.928C604.854 320.592 609.654 317.424 619.254 317.424L631.926 318L631.35 285.744C631.35 276.144 634.998 271.344 642.294 271.344C649.59 271.344 653.238 276.144 653.238 285.744L652.374 318.288L675.702 317.136C685.302 317.136 690.102 320.4 690.102 326.928C690.102 333.072 685.302 336.144 675.702 336.144ZM838.397 371.28L836.957 416.496V428.88C837.341 436.752 839.261 441.456 842.717 442.992C844.061 443.376 845.597 443.76 847.325 444.144C849.053 444.336 850.205 444.624 850.781 445.008C851.549 445.392 851.933 446.16 851.933 447.312C851.933 452.304 850.301 456.528 847.037 459.984C843.965 463.248 840.317 464.88 836.093 464.88C828.989 464.88 823.997 462.096 821.117 456.528C818.237 450.96 816.797 442.416 816.797 430.896L817.949 377.904C817.949 364.656 815.069 354.096 809.309 346.224C803.741 338.16 796.061 334.128 786.269 334.128C776.477 334.128 766.973 339.6 757.757 350.544C748.733 361.296 742.301 373.68 738.461 387.696L739.325 450.192C739.325 459.984 735.677 464.88 728.381 464.88C719.549 464.88 715.133 458.352 715.133 445.296C715.133 432.048 717.053 412.848 720.893 387.696C720.893 374.64 720.029 350.064 718.301 313.968C716.573 277.68 715.709 258.096 715.709 255.216C715.709 252.336 716.669 249.552 718.589 246.864C720.701 244.176 722.813 242.832 724.925 242.832C727.229 242.832 729.341 243.312 731.261 244.272C735.869 246.384 738.173 250.128 738.173 255.504C738.173 256.272 738.173 256.944 738.173 257.52V351.696C752.189 327.312 769.469 315.12 790.013 315.12C805.565 315.12 817.469 320.688 825.725 331.824C834.173 342.768 838.397 355.92 838.397 371.28ZM896.04 253.2C903.912 253.2 907.848 257.808 907.848 267.024C907.848 271.248 906.408 275.28 903.528 279.12C900.84 282.768 897.576 284.592 893.736 284.592C885.672 284.592 881.64 279.696 881.64 269.904C881.64 265.296 882.984 261.36 885.672 258.096C888.552 254.832 892.008 253.2 896.04 253.2ZM905.544 329.52L904.104 390L905.544 450.48C905.544 460.08 901.896 464.88 894.6 464.88C887.304 464.88 883.656 460.08 883.656 450.48L885.096 390L883.656 329.52C883.656 319.92 887.304 315.12 894.6 315.12C901.896 315.12 905.544 319.92 905.544 329.52ZM1046.56 420.528C1046.56 433.392 1041.18 444.048 1030.43 452.496C1019.87 460.752 1007.2 464.88 992.414 464.88C977.63 464.88 964.67 461.52 953.534 454.8C942.59 447.888 937.118 441.072 937.118 434.352C937.118 429.936 938.942 426.96 942.59 425.424C946.238 423.888 949.022 424.08 950.942 426C951.326 426.192 955.166 429.936 962.462 437.232C964.574 439.152 968.51 441.168 974.27 443.28C980.03 445.2 985.118 446.16 989.534 446.16C1000.29 446.16 1009.02 443.952 1015.74 439.536C1022.46 435.12 1025.82 428.88 1025.82 420.816C1025.82 410.64 1016.22 402.288 997.022 395.76C975.71 388.464 962.078 382.224 956.126 377.04C953.246 374.544 950.558 371.28 948.062 367.248C945.758 363.024 944.606 358.608 944.606 354C944.606 343.632 949.31 334.608 958.718 326.928C968.318 319.056 979.742 315.12 992.99 315.12C1006.24 315.12 1016.99 317.424 1025.25 322.032C1033.5 326.448 1037.63 331.44 1037.63 337.008C1037.63 343.344 1034.27 346.512 1027.55 346.512C1024.86 346.512 1021.98 345.456 1018.91 343.344C1009.69 337.008 1000.77 333.84 992.126 333.84C983.678 333.84 977.246 335.76 972.83 339.6C967.646 343.248 965.054 347.568 965.054 352.56C965.054 357.36 967.55 361.296 972.542 364.368C977.534 367.44 985.694 371.28 997.022 375.888C1008.35 380.304 1015.26 383.088 1017.76 384.24C1026.21 387.888 1033.12 392.88 1038.49 399.216C1043.87 405.552 1046.56 412.656 1046.56 420.528ZM1160.13 253.2C1168.01 253.2 1171.94 257.808 1171.94 267.024C1171.94 271.248 1170.5 275.28 1167.62 279.12C1164.93 282.768 1161.67 284.592 1157.83 284.592C1149.77 284.592 1145.73 279.696 1145.73 269.904C1145.73 265.296 1147.08 261.36 1149.77 258.096C1152.65 254.832 1156.1 253.2 1160.13 253.2ZM1169.64 329.52L1168.2 390L1169.64 450.48C1169.64 460.08 1165.99 464.88 1158.69 464.88C1151.4 464.88 1147.75 460.08 1147.75 450.48L1149.19 390L1147.75 329.52C1147.75 319.92 1151.4 315.12 1158.69 315.12C1165.99 315.12 1169.64 319.92 1169.64 329.52ZM1310.65 420.528C1310.65 433.392 1305.28 444.048 1294.52 452.496C1283.96 460.752 1271.29 464.88 1256.51 464.88C1241.72 464.88 1228.76 461.52 1217.63 454.8C1206.68 447.888 1201.21 441.072 1201.21 434.352C1201.21 429.936 1203.04 426.96 1206.68 425.424C1210.33 423.888 1213.12 424.08 1215.04 426C1215.42 426.192 1219.26 429.936 1226.56 437.232C1228.67 439.152 1232.6 441.168 1238.36 443.28C1244.12 445.2 1249.21 446.16 1253.63 446.16C1264.38 446.16 1273.12 443.952 1279.84 439.536C1286.56 435.12 1289.92 428.88 1289.92 420.816C1289.92 410.64 1280.32 402.288 1261.12 395.76C1239.8 388.464 1226.17 382.224 1220.22 377.04C1217.34 374.544 1214.65 371.28 1212.16 367.248C1209.85 363.024 1208.7 358.608 1208.7 354C1208.7 343.632 1213.4 334.608 1222.81 326.928C1232.41 319.056 1243.84 315.12 1257.08 315.12C1270.33 315.12 1281.08 317.424 1289.34 322.032C1297.6 326.448 1301.72 331.44 1301.72 337.008C1301.72 343.344 1298.36 346.512 1291.64 346.512C1288.96 346.512 1286.08 345.456 1283 343.344C1273.79 337.008 1264.86 333.84 1256.22 333.84C1247.77 333.84 1241.34 335.76 1236.92 339.6C1231.74 343.248 1229.15 347.568 1229.15 352.56C1229.15 357.36 1231.64 361.296 1236.64 364.368C1241.63 367.44 1249.79 371.28 1261.12 375.888C1272.44 380.304 1279.36 383.088 1281.85 384.24C1290.3 387.888 1297.21 392.88 1302.59 399.216C1307.96 405.552 1310.65 412.656 1310.65 420.528ZM749.28 800.96C751.2 800.96 757.44 782.912 768 746.816C778.56 710.528 784.512 690.752 785.856 687.488C788.544 680.576 792.768 677.12 798.528 677.12C804.48 677.12 808.608 680.48 810.912 687.2L827.616 746.816C838.368 782.912 844.512 800.96 846.048 800.96C848.16 800.96 854.496 783.008 865.056 747.104C867.552 738.848 870.72 727.616 874.56 713.408L881.472 688.352C883.776 680.864 887.328 677.12 892.128 677.12C895.008 677.12 897.408 677.984 899.328 679.712C901.44 681.44 902.496 683.744 902.496 686.624C902.496 689.504 900.768 696.32 897.312 707.072C893.856 717.824 891.36 725.216 889.824 729.248C888.48 733.28 884.064 746.816 876.576 769.856C869.28 792.896 864.096 808.16 861.024 815.648C858.144 823.136 852.864 826.88 845.184 826.88C837.504 826.88 831.936 821.888 828.48 811.904C821.568 791.936 814.944 770.912 808.608 748.832C802.272 726.56 798.336 715.424 796.8 715.424C795.456 715.424 793.632 719.264 791.328 726.944L783.84 753.44C773.856 788.576 766.944 809.696 763.104 816.8C759.84 823.52 754.56 826.88 747.264 826.88C739.968 826.88 734.496 821.6 730.848 811.04C730.464 809.888 729.888 808.256 729.12 806.144C728.352 804.032 727.296 801.056 725.952 797.216C724.8 793.376 723.552 789.536 722.208 785.696C721.056 781.856 717.792 771.872 712.416 755.744L704.64 732.992C702.912 727.808 700.992 722.24 698.88 716.288C693.312 701.12 690.528 691.808 690.528 688.352C690.528 684.704 691.488 681.92 693.408 680C695.52 678.08 698.016 677.12 700.896 677.12C706.464 677.12 710.304 680.48 712.416 687.2C712.608 687.392 715.104 695.84 719.904 712.544L729.12 743.072C729.888 745.184 730.944 748.256 732.288 752.288C736.896 767.456 740.64 779.36 743.52 788C746.4 796.64 748.32 800.96 749.28 800.96ZM1052.01 733.28L1050.57 778.496V790.88C1050.95 798.752 1052.87 803.456 1056.33 804.992C1057.67 805.376 1059.21 805.76 1060.93 806.144C1062.66 806.336 1063.81 806.624 1064.39 807.008C1065.16 807.392 1065.54 808.16 1065.54 809.312C1065.54 814.304 1063.91 818.528 1060.65 821.984C1057.57 825.248 1053.93 826.88 1049.7 826.88C1042.6 826.88 1037.61 824.096 1034.73 818.528C1031.85 812.96 1030.41 804.416 1030.41 792.896L1031.56 739.904C1031.56 726.656 1028.68 716.096 1022.92 708.224C1017.35 700.16 1009.67 696.128 999.878 696.128C990.086 696.128 980.582 701.6 971.366 712.544C962.342 723.296 955.91 735.68 952.07 749.696L952.934 812.192C952.934 821.984 949.286 826.88 941.99 826.88C933.158 826.88 928.742 820.352 928.742 807.296C928.742 794.048 930.662 774.848 934.502 749.696C934.502 736.64 933.638 712.064 931.91 675.968C930.182 639.68 929.318 620.096 929.318 617.216C929.318 614.336 930.278 611.552 932.198 608.864C934.31 606.176 936.422 604.832 938.534 604.832C940.838 604.832 942.95 605.312 944.87 606.272C949.478 608.384 951.782 612.128 951.782 617.504C951.782 618.272 951.782 618.944 951.782 619.52V713.696C965.798 689.312 983.078 677.12 1003.62 677.12C1019.17 677.12 1031.08 682.688 1039.33 693.824C1047.78 704.768 1052.01 717.92 1052.01 733.28ZM1109.65 752.288C1109.65 768.224 1114.07 781.76 1122.9 792.896C1131.73 804.032 1142.77 809.6 1156.02 809.6C1169.46 809.6 1180.79 804.032 1190 792.896C1199.41 781.568 1204.11 767.936 1204.11 752C1204.11 736.064 1199.6 722.528 1190.58 711.392C1181.75 700.064 1170.71 694.4 1157.46 694.4C1144.4 694.4 1133.07 700.064 1123.47 711.392C1114.26 722.72 1109.65 736.352 1109.65 752.288ZM1108.21 806.432C1095.54 791.648 1089.2 773.6 1089.2 752.288C1089.2 730.976 1095.63 712.928 1108.5 698.144C1121.36 683.168 1137.59 675.68 1157.17 675.68C1176.75 675.68 1192.88 683.072 1205.55 697.856C1218.23 712.448 1224.56 730.496 1224.56 752C1224.56 773.312 1218.03 791.36 1204.98 806.144C1192.11 820.928 1175.89 828.32 1156.31 828.32C1136.91 828.32 1120.88 821.024 1108.21 806.432Z" fill="black"/>
</svg>
