<svg width="200" height="200" viewBox="0 0 300 300" fill="none" xmlns="http://www.w3.org/2000/svg">
<g clip-path="url(#clip0)">
<path d="M283.766 216.719C275.253 210.761 264.317 207.184 252.585 206.447V91.0239C252.585 88.5199 250.557 86.4897 248.053 86.4897C245.549 86.4897 243.519 88.5199 243.519 91.0239V99.8015H208.9C206.396 99.8015 204.366 101.832 204.366 104.336C204.366 106.837 206.396 108.868 208.9 108.868H218.463V122.12H208.9C206.396 122.12 204.366 124.148 204.366 126.652C204.366 129.156 206.396 131.184 208.9 131.184H218.463V144.436H208.9C206.396 144.436 204.366 146.466 204.366 148.968C204.366 151.472 206.396 153.502 208.9 153.502H243.519V206.447C231.789 207.184 220.853 210.761 212.341 216.719C202.251 223.785 196.692 233.336 196.692 243.615C196.692 246.838 197.25 250.024 198.349 253.084L199.88 257.35L208.413 254.286L206.879 250.019C206.136 247.946 205.758 245.792 205.758 243.615C205.758 236.38 209.942 229.466 217.541 224.149C225.629 218.484 236.465 215.367 248.048 215.367C259.637 215.367 270.474 218.484 278.565 224.149C286.162 229.466 290.348 236.38 290.348 243.615C290.348 250.85 286.162 257.765 278.565 263.086C270.474 268.751 259.637 271.871 248.048 271.871C243.423 271.871 238.875 271.365 234.538 270.372L230.118 269.36L228.092 278.197L232.512 279.209C237.513 280.355 242.741 280.937 248.048 280.937C261.482 280.937 274.164 277.233 283.766 270.511C293.855 263.446 299.414 253.892 299.414 243.615C299.414 233.334 293.857 223.785 283.766 216.719Z" fill="#FFC627"/>
<path d="M231.929 67.4742C229.425 67.4742 227.397 65.444 227.397 62.9423V37.7584C227.397 35.2544 229.425 33.2265 231.929 33.2265C234.433 33.2265 236.463 35.2544 236.463 37.7584V62.9423C236.463 65.444 234.433 67.4742 231.929 67.4742Z" fill="#FFC627"/>
<path d="M259.937 67.4765C259.271 67.4765 258.593 67.3277 257.955 67.0164C255.705 65.9201 254.769 63.2055 255.867 60.9556L265.492 41.2168C266.591 38.9669 269.303 38.0308 271.553 39.1294C273.803 40.2257 274.739 42.938 273.64 45.1902L264.016 64.929C263.231 66.538 261.617 67.4765 259.937 67.4765Z" fill="#FFC627"/>
<path d="M203.92 67.4765C202.242 67.4765 200.629 66.5403 199.844 64.929L190.217 45.1902C189.121 42.938 190.055 40.2257 192.304 39.1294C194.554 38.0308 197.269 38.9669 198.365 41.2168L207.992 60.9556C209.088 63.2055 208.155 65.9201 205.905 67.0164C205.266 67.3277 204.586 67.4765 203.92 67.4765Z" fill="#FFC627"/>
<path d="M219.253 289.241L217.298 291.193H162.98L192.085 262.081L216.477 270.284L219.253 289.241Z" fill="#515F75"/>
<path d="M241.89 266.604L219.249 289.243L192.083 262.084L214.721 239.445C217.228 236.946 221.279 236.946 223.771 239.445L241.89 257.556C244.382 260.056 244.387 264.105 241.89 266.604Z" fill="#F4AF9D"/>
<path d="M214.724 239.443L192.085 262.081L208.301 278.298L230.94 255.659C233.442 253.157 233.442 249.111 230.94 246.609L223.774 239.443C221.277 236.948 217.225 236.943 214.724 239.443Z" fill="#F9C2AF"/>
<path d="M236.261 272.232L227.964 280.529C227.186 280.03 226.454 279.442 225.778 278.767L202.565 255.547C201.89 254.872 201.295 254.141 200.803 253.363L209.093 245.071C208.69 246.165 208.93 247.435 209.805 248.303L233.022 271.52C233.604 272.102 234.375 272.422 235.201 272.422C235.572 272.422 235.927 272.36 236.261 272.232Z" fill="#F4AF9D"/>
<path d="M219.253 289.241L217.298 291.193H195.568L208.386 278.376L219.253 289.241Z" fill="#3B485B"/>
<path d="M162.788 255.423V291.378H5.13818V255.423C5.13818 239.971 17.6603 227.451 33.1053 227.451H134.816C150.266 227.449 162.788 239.971 162.788 255.423Z" fill="#3B485B"/>
<path d="M162.788 255.423V291.378H14.7217V255.423C14.7217 239.971 27.2438 227.451 42.6934 227.451H134.816C150.266 227.449 162.788 239.971 162.788 255.423Z" fill="#515F75"/>
<path d="M33.8928 227.451L32.1968 270.468L50.2785 274.988L34.0439 291.223H133.882L117.648 274.988L135.729 270.468L134.031 227.451" fill="#3B485B"/>
<path d="M118.433 227.451L100.221 291.374H67.7083L49.4961 227.451" fill="#F2F2F2"/>
<path d="M61.686 243.146L83.9654 271.033L106.021 243.251L83.9654 239.129L61.686 243.146Z" fill="#F74866"/>
<path d="M59.7294 263.365L83.9658 239.129L108.2 263.365L118.433 227.451H49.4961L59.7294 263.365Z" fill="#E6E6E6"/>
<path d="M104.686 191.54V227.454L83.9653 239.129L77.5612 235.524L63.2446 227.454V191.517L77.5612 191.522L104.686 191.54Z" fill="#F9C2AF"/>
<path d="M67.8203 291.374L83.9657 271.033L100.221 291.374" fill="#F74866"/>
<path d="M77.5612 191.522L63.2446 191.517V227.454L77.5612 235.524V218.907C79.6784 219.113 81.8207 219.232 83.9928 219.232C91.2255 219.232 98.1881 218.051 104.686 215.87V191.54L77.5612 191.522Z" fill="#EA9E8F"/>
<path d="M18.9492 153.726C8.15966 153.726 -0.585938 145.896 -0.585938 136.24C-0.585938 126.581 8.15966 118.751 18.9492 118.751H149.039C159.829 118.751 168.574 126.581 168.574 136.24C168.574 145.896 159.829 153.726 149.039 153.726" fill="#EA9E8F"/>
<path d="M149.041 80.477V145.525C149.041 181.446 119.918 210.567 83.993 210.567C66.0349 210.567 49.7682 203.286 37.9991 191.517C26.2323 179.748 18.9492 163.483 18.9492 145.525V80.477H149.041Z" fill="#F9C2AF"/>
<path d="M83.5329 210.567C65.7511 210.448 49.6744 203.19 37.9991 191.519C26.2277 179.746 18.9492 163.488 18.9492 145.523V80.477H48.2324V145.523C48.2324 163.488 52.2333 179.743 58.7061 191.519C65.0782 203.108 73.8398 210.34 83.5329 210.567Z" fill="#EA9E8F"/>
<path d="M107.133 144.816C104.75 144.816 102.818 142.884 102.818 140.501V131.463C102.818 129.08 104.75 127.148 107.133 127.148C109.515 127.148 111.447 129.08 111.447 131.463V140.501C111.447 142.884 109.515 144.816 107.133 144.816Z" fill="#293544"/>
<path d="M60.8554 144.816C58.4728 144.816 56.541 142.884 56.541 140.501V131.463C56.541 129.08 58.4728 127.148 60.8554 127.148C63.2381 127.148 65.1699 129.08 65.1699 131.463V140.501C65.1699 142.884 63.2381 144.816 60.8554 144.816Z" fill="#293544"/>
<path d="M149.041 80.477V96.778C144.583 99.9709 139.252 102.772 132.919 105.054C109.346 113.544 86.529 110.685 70.3951 106.187C70.3951 106.187 70.3882 106.187 70.3882 106.183C56.3303 102.271 47.3466 97.1053 47.3466 97.1053C47.3466 97.1053 41.4163 125.652 18.9492 125.652V80.477H149.041Z" fill="#EA9E8F"/>
<path d="M132.916 98.1513C109.348 106.645 86.5311 103.784 70.3926 99.2866C70.3926 99.2866 70.3858 99.2866 70.3858 99.282C56.3324 95.3658 47.3488 90.2022 47.3488 90.2022C47.3488 90.2022 41.4161 118.748 18.9491 118.748C18.9491 118.748 4.00304 92.3079 4.47225 67.8473C4.71486 55.1603 15.1748 45.6755 27.0629 45.6755C29.2831 45.6755 31.5559 46.0028 33.815 46.7077C40.1847 29.6102 57.0053 18.7887 75.2175 19.8964C78.0533 20.0704 80.9075 20.297 83.7731 20.5579C84.3201 20.6037 84.874 20.654 85.4233 20.7044C85.4783 20.709 85.5355 20.7158 85.5927 20.7204C115.32 23.5128 145.432 28.9487 163.124 9.37473C163.124 9.37473 192.366 76.7348 132.916 98.1513Z" fill="#515F75"/>
<path d="M75.2175 19.8964C78.0533 20.0704 80.9075 20.297 83.7731 20.5579C57.5409 19.4501 36.7035 77.2154 70.3858 99.282C56.3324 95.3658 47.3488 90.2022 47.3488 90.2022C47.3488 90.2022 41.4161 118.748 18.9491 118.748C18.9491 118.748 4.00304 92.3079 4.47225 67.8473C4.71486 55.1603 15.1748 45.6754 27.0629 45.6754C29.2831 45.6754 31.5559 46.0027 33.815 46.7077C40.1825 29.6102 57.0053 18.7886 75.2175 19.8964Z" fill="#3B485B"/>
<path d="M85.6045 20.7273C85.5426 20.7158 85.4853 20.709 85.4233 20.7044C85.4784 20.709 85.5357 20.7158 85.593 20.7204L85.6045 20.7273Z" fill="#F4AF9D"/>
<path d="M83.9932 179.379C77.1107 179.379 70.2259 176.759 64.9868 171.52C63.3 169.835 63.3 167.102 64.9868 165.418C66.6714 163.733 69.402 163.733 71.0865 165.418C78.2025 172.536 89.7839 172.536 96.9022 165.418C98.5868 163.733 101.317 163.733 103.002 165.418C104.686 167.102 104.686 169.835 103.002 171.52C97.7628 176.759 90.878 179.379 83.9932 179.379Z" fill="#E06E86"/>
</g>
<defs>
<clipPath id="clip0">
<rect width="300" height="300" fill="white"/>
</clipPath>
</defs>
</svg>
