<svg width="200" height="200" viewBox="0 0 300 300" fill="none" xmlns="http://www.w3.org/2000/svg">
<g clip-path="url(#clip0)">
<path d="M300.327 68.866V300H64V0H231.455L300.327 68.866Z" fill="#F2F2F2"/>
<path d="M300.327 68.866H231.455V0" fill="#CCCCCC"/>
<path d="M260.529 103.329H199.306C196.77 103.329 194.714 101.273 194.714 98.7373C194.714 96.2013 196.77 94.146 199.306 94.146H260.529C263.065 94.146 265.121 96.2013 265.121 98.7373C265.121 101.273 263.065 103.329 260.529 103.329Z" fill="#79BBE8"/>
<path d="M260.529 127.819H199.306C196.77 127.819 194.714 125.761 194.714 123.225C194.714 120.692 196.77 118.634 199.306 118.634H260.529C263.065 118.634 265.121 120.692 265.121 123.225C265.121 125.761 263.065 127.819 260.529 127.819Z" fill="#79BBE8"/>
<path d="M126.448 163.023C126.448 170.798 120.142 177.104 112.365 177.104C104.59 177.104 98.2842 170.798 98.2842 163.023C98.2842 155.246 104.59 148.94 112.365 148.94C120.142 148.94 126.448 155.246 126.448 163.023Z" fill="#FFC627"/>
<path d="M126.448 262.207C126.448 269.982 120.142 276.288 112.365 276.288C104.59 276.288 98.2842 269.982 98.2842 262.207C98.2842 254.43 104.59 248.124 112.365 248.124C120.142 248.124 126.448 254.43 126.448 262.207Z" fill="#FFC627"/>
<path d="M126.448 212.615C126.448 220.39 120.142 226.696 112.365 226.696C104.59 226.696 98.2842 220.39 98.2842 212.615C98.2842 204.838 104.59 198.532 112.365 198.532C120.142 198.532 126.448 204.838 126.448 212.615Z" fill="#FFC627"/>
<path d="M260.529 167.615H150.325C147.789 167.615 145.734 165.559 145.734 163.023C145.734 160.487 147.789 158.43 150.325 158.43H260.529C263.065 158.43 265.121 160.487 265.121 163.023C265.121 165.559 263.065 167.615 260.529 167.615Z" fill="#79BBE8"/>
<path d="M260.529 217.207H150.325C147.789 217.207 145.734 215.151 145.734 212.615C145.734 210.079 147.789 208.022 150.325 208.022H260.529C263.065 208.022 265.121 210.079 265.121 212.615C265.121 215.151 263.065 217.207 260.529 217.207Z" fill="#79BBE8"/>
<path d="M260.529 266.798H150.325C147.789 266.798 145.734 264.743 145.734 262.207C145.734 259.671 147.789 257.613 150.325 257.613H260.529C263.065 257.613 265.121 259.671 265.121 262.207C265.121 264.743 263.065 266.798 260.529 266.798Z" fill="#79BBE8"/>
<path d="M101.333 93.9629C95.3384 93.9629 90.4792 89.6141 90.4792 84.2468C90.4792 78.8818 95.3384 74.5308 101.333 74.5308H173.609C179.604 74.5308 184.46 78.8818 184.46 84.2468C184.46 89.6141 179.601 93.9629 173.609 93.9629" fill="#EA9E8F"/>
<path d="M173.609 53.2677V89.4058C173.609 109.364 157.43 125.544 137.471 125.544C127.492 125.544 118.456 121.497 111.917 114.96C105.38 108.421 101.333 99.3828 101.333 89.4058V53.2677H173.609Z" fill="#F9C2AF"/>
<path d="M137.215 125.542C127.336 125.475 118.403 121.445 111.917 114.96C105.377 108.419 101.333 99.3851 101.333 89.4058V53.2677H117.604V89.4058C117.604 99.3851 119.827 108.417 123.422 114.96C126.961 121.397 131.829 125.418 137.215 125.542Z" fill="#EA9E8F"/>
<path d="M150.325 89.0121C149.002 89.0121 147.929 87.9387 147.929 86.6158V81.5941C147.929 80.2711 149.002 79.1977 150.325 79.1977C151.65 79.1977 152.724 80.2711 152.724 81.5941V86.6158C152.724 87.9387 151.65 89.0121 150.325 89.0121Z" fill="#293544"/>
<path d="M124.615 89.0121C123.292 89.0121 122.218 87.9387 122.218 86.6158V81.5941C122.218 80.2711 123.292 79.1977 124.615 79.1977C125.94 79.1977 127.011 80.2711 127.011 81.5941V86.6158C127.011 87.9387 125.94 89.0121 124.615 89.0121Z" fill="#293544"/>
<path d="M173.609 53.2677V62.3245C171.133 64.0961 168.171 65.6525 164.653 66.9228C151.557 71.6377 138.879 70.0516 129.916 67.5522C129.916 67.5522 129.913 67.5522 129.913 67.5476C122.102 65.3755 117.11 62.5053 117.11 62.5053C117.11 62.5053 113.816 78.3669 101.333 78.3669V53.2677H173.609Z" fill="#EA9E8F"/>
<path d="M164.651 63.0867C151.556 67.8062 138.881 66.2178 129.913 63.7184C129.913 63.7184 129.911 63.7184 129.911 63.7161C122.104 61.5395 117.112 58.6693 117.112 58.6693C117.112 58.6693 113.816 74.5308 101.335 74.5308C101.335 74.5308 93.029 59.8412 93.29 46.2502C93.425 39.2029 99.2363 33.9317 105.842 33.9317C107.076 33.9317 108.337 34.1125 109.593 34.5062C113.132 25.0076 122.477 18.9949 132.596 19.6106C134.173 19.7067 135.757 19.8326 137.35 19.9768C137.654 20.002 137.961 20.0294 138.265 20.0592C138.297 20.0615 138.329 20.0638 138.359 20.0684C154.875 21.6179 171.606 24.6391 181.435 13.765C181.435 13.765 197.681 51.1894 164.651 63.0867Z" fill="#515F75"/>
<path d="M132.594 19.6106C134.171 19.7067 135.757 19.8326 137.347 19.9768C122.775 19.3611 111.198 51.4549 129.911 63.7138C122.104 61.5395 117.112 58.6693 117.112 58.6693C117.112 58.6693 113.816 74.5308 101.333 74.5308C101.333 74.5308 93.029 59.8412 93.29 46.2502C93.425 39.2029 99.2363 33.9317 105.842 33.9317C107.076 33.9317 108.337 34.1125 109.593 34.5062C113.132 25.0076 122.477 18.9949 132.594 19.6106Z" fill="#3B485B"/>
<path d="M138.366 20.0706C138.332 20.0661 138.3 20.0615 138.265 20.0592C138.295 20.0615 138.327 20.0661 138.359 20.0684L138.366 20.0706Z" fill="#F4AF9D"/>
<path d="M137.471 108.215C133.646 108.215 129.822 106.76 126.91 103.848C125.974 102.912 125.974 101.395 126.91 100.459C127.846 99.5224 129.364 99.5224 130.3 100.459C134.253 104.414 140.687 104.414 144.642 100.459C145.578 99.5224 147.095 99.5224 148.032 100.459C148.968 101.395 148.968 102.912 148.032 103.848C145.12 106.76 141.296 108.215 137.471 108.215Z" fill="#E06E86"/>
<path d="M91.9062 35C91.9062 53.726 76.726 68.9062 58 68.9062C39.274 68.9062 24.0938 53.726 24.0938 35C24.0938 16.274 39.274 1.09375 58 1.09375C76.726 1.09375 91.9062 16.274 91.9062 35ZM54.0781 52.9531L79.2343 27.7968C80.0886 26.9426 80.0886 25.5575 79.2343 24.7033L76.1408 21.6098C75.2866 20.7554 73.9015 20.7554 73.0471 21.6098L52.5312 42.1255L42.9529 32.5471C42.0987 31.6929 40.7136 31.6929 39.8592 32.5471L36.7657 35.6407C35.9114 36.4949 35.9114 37.88 36.7657 38.7342L50.9844 52.9529C51.8388 53.8073 53.2237 53.8073 54.0781 52.9531Z" fill="#1EBB10"/>
</g>
<defs>
<clipPath id="clip0">
<rect width="300" height="300" fill="white"/>
</clipPath>
</defs>
</svg>
