<svg width="200" height="200" viewBox="0 0 300 300" fill="none" xmlns="http://www.w3.org/2000/svg">
<g clip-path="url(#clip0)">
<path d="M262.672 286.239L249.122 299.789H186.914L231.562 255.793L250.23 273.795L262.672 286.239Z" fill="#515F75"/>
<path d="M262.672 286.239L249.122 299.789H224.235L250.23 273.795L262.672 286.239Z" fill="#3B485B"/>
<path d="M268.222 255.796H231.557V299.789H268.222C272.275 299.789 275.551 296.504 275.551 292.46V263.124C275.551 259.08 272.275 255.796 268.222 255.796Z" fill="#F4AF9D"/>
<path d="M268.222 255.796H231.557V282.057H268.222C272.275 282.057 275.551 278.782 275.551 274.731V263.124C275.551 259.08 272.275 255.796 268.222 255.796Z" fill="#F9C2AF"/>
<path d="M286.759 261.868V282.923C286.759 292.355 279.121 300 269.691 300H231.56V223.439C231.56 217.973 235.991 213.544 241.454 213.544C246.92 213.544 251.351 217.973 251.351 223.439V244.793H269.691C279.121 244.791 286.759 252.438 286.759 261.868Z" fill="#F4AF9D"/>
<path d="M286.759 261.868V282.923C286.759 291.728 280.101 298.979 271.531 299.894C262.969 298.983 256.295 291.728 256.295 282.923V261.868C256.295 253.063 262.969 245.805 271.531 244.896C280.101 245.812 286.759 253.063 286.759 261.868Z" fill="#F9C2AF"/>
<path d="M186.692 261.749V299.999H18.9814V261.749C18.9814 245.313 32.3024 231.992 48.7315 231.992H156.935C173.371 231.992 186.692 245.313 186.692 261.749Z" fill="#3B485B"/>
<path d="M186.692 261.749V299.999H29.1758V261.749C29.1758 245.313 42.4967 231.992 58.9327 231.992H156.935C173.371 231.992 186.692 245.313 186.692 261.749Z" fill="#515F75"/>
<path d="M49.5714 231.996L47.7656 277.755L67.0008 282.566L49.7317 299.835H155.94L138.671 282.566L157.906 277.755L156.1 231.996" fill="#3B485B"/>
<path d="M139.506 231.996L120.131 299.997H85.5448L66.1699 231.996" fill="#F2F2F2"/>
<path d="M79.1383 248.691L102.839 278.356L126.302 248.803L102.839 244.418L79.1383 248.691Z" fill="#F74866"/>
<path d="M77.0555 270.199L102.839 244.418L128.62 270.199L139.506 231.996H66.1699L77.0555 270.199Z" fill="#E6E6E6"/>
<path d="M124.88 193.789V231.999L102.839 244.418L96.0275 240.582L80.7954 231.999V193.766L96.0275 193.773L124.88 193.789Z" fill="#F9C2AF"/>
<path d="M85.6638 299.997L102.839 278.356L120.131 299.997" fill="#F74866"/>
<path d="M96.0275 193.773L80.7954 193.766V231.997L96.0275 240.582V222.903C98.2797 223.125 100.559 223.251 102.869 223.251C110.564 223.251 117.968 221.994 124.883 219.674V193.789L96.0275 193.773Z" fill="#EA9E8F"/>
<path d="M33.6734 153.563C22.1949 153.563 12.8909 145.234 12.8909 134.96C12.8909 124.685 22.1949 116.356 33.6734 116.356H172.064C183.543 116.356 192.847 124.685 192.847 134.96C192.847 145.234 183.543 153.563 172.064 153.563" fill="#EA9E8F"/>
<path d="M172.067 75.6384V144.839C172.067 183.053 141.088 214.034 102.867 214.034C83.7641 214.034 66.4584 206.286 53.9385 193.767C41.421 181.247 33.6733 163.943 33.6733 144.839V75.6384H172.067Z" fill="#F9C2AF"/>
<path d="M102.377 214.032C83.4643 213.904 66.3577 206.183 53.9385 193.769C41.4164 181.242 33.6733 163.948 33.6733 144.839V75.6407H64.8264V144.839C64.8264 163.948 69.0814 181.242 75.9684 193.769C82.7456 206.096 92.0657 213.791 102.377 214.032Z" fill="#EA9E8F"/>
<path d="M127.485 144.083C124.949 144.083 122.896 142.03 122.896 139.494V129.879C122.896 127.345 124.949 125.29 127.485 125.29C130.019 125.29 132.074 127.345 132.074 129.879V139.494C132.074 142.03 130.019 144.083 127.485 144.083Z" fill="#293544"/>
<path d="M78.2526 144.083C75.7189 144.083 73.6635 142.03 73.6635 139.494V129.879C73.6635 127.345 75.7189 125.29 78.2526 125.29C80.7886 125.29 82.8417 127.345 82.8417 129.879V139.494C82.8417 142.03 80.7886 144.083 78.2526 144.083Z" fill="#293544"/>
<path d="M172.067 75.6384V92.9808C167.324 96.3774 161.653 99.3575 154.917 101.786C129.84 110.818 105.565 107.776 88.4013 102.992C88.4013 102.992 88.3967 102.992 88.3967 102.985C73.4416 98.8242 63.8834 93.3287 63.8834 93.3287C63.8834 93.3287 57.5732 123.699 33.6733 123.699V75.6384H172.067Z" fill="#EA9E8F"/>
<path d="M154.914 94.4435C129.84 103.477 105.567 100.436 88.399 95.652C88.399 95.652 88.3921 95.652 88.3921 95.6451C73.4438 91.4795 63.8857 85.984 63.8857 85.984C63.8857 85.984 57.5732 116.354 33.6711 116.354C33.6711 116.354 17.7729 88.2271 18.2719 62.2032C18.5282 48.7083 29.6565 38.6169 42.3045 38.6169C44.6665 38.6169 47.0835 38.9648 49.4868 39.7156C56.2617 21.5263 74.158 10.0136 93.5328 11.1923C96.5495 11.38 99.5867 11.6203 102.633 11.895C103.217 11.9453 103.805 11.998 104.389 12.0529C104.448 12.0575 104.508 12.0644 104.569 12.0689C136.194 15.0398 168.228 20.8237 187.049 0C187.049 0 218.159 71.6606 154.914 94.4435Z" fill="#515F75"/>
<path d="M93.5328 11.1923C96.5518 11.38 99.5867 11.6203 102.633 11.895C74.7302 10.7185 52.5607 72.171 88.3921 95.6451C73.4438 91.4795 63.8857 85.984 63.8857 85.984C63.8857 85.984 57.5732 116.354 33.6711 116.354C33.6711 116.354 17.7729 88.2271 18.2719 62.2032C18.5282 48.7083 29.6565 38.6169 42.3045 38.6169C44.6665 38.6169 47.0835 38.9648 49.4868 39.7155C56.264 21.5263 74.158 10.0158 93.5328 11.1923Z" fill="#3B485B"/>
<path d="M104.581 12.0757C104.514 12.0643 104.455 12.0597 104.388 12.0529C104.448 12.0597 104.51 12.0643 104.569 12.0712L104.581 12.0757Z" fill="#F4AF9D"/>
<path d="M102.869 180.855C95.5446 180.855 88.2226 178.067 82.6471 172.492C80.8549 170.7 80.8549 167.795 82.6471 166.003C84.4392 164.211 87.346 164.211 89.1382 166.003C96.7096 173.574 109.028 173.574 116.599 166.003C118.392 164.211 121.298 164.211 123.091 166.003C124.883 167.795 124.883 170.7 123.091 172.492C117.515 178.067 110.191 180.855 102.869 180.855Z" fill="#E06E86"/>
</g>
<defs>
<clipPath id="clip0">
<rect width="300" height="300" fill="white"/>
</clipPath>
</defs>
</svg>
