<svg height="200" viewBox="0 0 471 471.7" width="200" xmlns="http://www.w3.org/2000/svg"><path d="m273.550781 411.5v60.101562h-263.601562v-60.101562c0-25.800781 20.902343-46.800781 46.800781-46.800781h170.101562c25.699219.101562 46.699219 21 46.699219 46.800781zm0 0" fill="#3b485b"/><path d="m273.550781 411.5v60.101562h-247.601562v-60.101562c0-25.800781 20.902343-46.800781 46.800781-46.800781h154c25.800781.101562 46.800781 21 46.800781 46.800781zm0 0" fill="#515f75"/><path d="m58.050781 364.800781-2.902343 71.898438 30.300781 7.601562-27.199219 27.097657h167l-27.199219-27.097657 30.199219-7.601562-2.800781-71.898438" fill="#3b485b"/><path d="m199.351562 364.800781-30.402343 106.898438h-54.398438l-30.5-106.898438" fill="#f2f2f2"/><path d="m104.449219 391 37.300781 46.699219 36.898438-46.5-36.898438-6.898438z" fill="#f74866"/><path d="m101.25 424.800781 40.5-40.5 40.5 40.5 17.101562-60h-115.300781zm0 0" fill="#e6e6e6"/><path d="m176.351562 304.699219v60.101562l-34.601562 19.5-10.699219-6-24-13.5v-60.101562zm0 0" fill="#f9c2af"/><path d="m114.75 471.699219 27-34 27.199219 34" fill="#f74866"/><path d="m131.050781 304.699219h-23.902343v60.101562l23.902343 13.5v-27.800781c3.5.300781 7.097657.5 10.800781.5 12.097657 0 23.699219-2 34.597657-5.601562v-40.699219zm0 0" fill="#ea9e8f"/><path d="m33.050781 241.5c-18 0-32.699219-13.101562-32.699219-29.199219 0-16.101562 14.597657-29.199219 32.699219-29.199219h217.5c18 0 32.699219 13.097657 32.699219 29.199219 0 16.097657-14.601562 29.199219-32.699219 29.199219" fill="#ea9e8f"/><path d="m250.550781 119v108.800781c0 60.097657-48.699219 108.800781-108.800781 108.800781-30 0-57.199219-12.203124-76.898438-31.902343-19.703124-19.699219-31.902343-46.898438-31.902343-76.898438v-108.800781zm0 0" fill="#f9c2af"/><path d="m141.050781 336.5c-29.699219-.199219-56.601562-12.300781-76.101562-31.800781-19.699219-19.699219-31.898438-46.898438-31.898438-76.898438v-108.800781h49v108.800781c0 30 6.699219 57.199219 17.5 76.898438 10.597657 19.402343 25.300781 31.5 41.5 31.800781zm0 0" fill="#ea9e8f"/><path d="m180.449219 226.601562c-4 0-7.199219-3.203124-7.199219-7.203124v-15.097657c0-4 3.199219-7.199219 7.199219-7.199219s7.199219 3.199219 7.199219 7.199219v15.097657c0 4-3.199219 7.203124-7.199219 7.203124zm0 0" fill="#293544"/><path d="m103.050781 226.601562c-4 0-7.199219-3.203124-7.199219-7.203124v-15.097657c0-4 3.199219-7.199219 7.199219-7.199219s7.199219 3.199219 7.199219 7.199219v15.097657c.101562 4-3.199219 7.203124-7.199219 7.203124zm0 0" fill="#293544"/><path d="m250.550781 119v27.300781c-7.5 5.300781-16.402343 10-27 13.800781-39.402343 14.199219-77.601562 9.398438-104.5 1.898438-23.5-6.5-38.5-15.199219-38.5-15.199219s-9.902343 47.699219-47.5 47.699219v-75.5zm0 0" fill="#ea9e8f"/><path d="m223.550781 148.601562c-39.402343 14.199219-77.601562 9.398438-104.5 1.898438-23.5-6.5-38.5-15.199219-38.5-15.199219s-9.902343 47.699219-47.5 47.699219c0 0-25-44.199219-24.199219-85.101562.398438-21.199219 17.898438-37.097657 37.796876-37.097657 3.703124 0 7.5.5 11.300781 1.699219 10.601562-28.601562 38.800781-46.699219 69.199219-44.800781 4.703124.300781 9.5.699219 14.300781 1.101562.902343.097657 1.800781.199219 2.800781.199219h.300781c49.699219 4.699219 100.097657 13.800781 129.597657-19-.097657.101562 48.800781 112.800781-50.597657 148.601562zm0 0" fill="#515f75"/><path d="m127.148438 17.699219c4.703124.300781 9.5.699219 14.300781 1.101562-43.898438-1.902343-78.699219 94.699219-22.398438 131.597657-23.5-6.5-38.5-15.199219-38.5-15.199219s-9.902343 47.699219-47.5 47.699219c0 0-25-44.199219-24.199219-85.097657.398438-21.199219 17.898438-37.101562 37.796876-37.101562 3.703124 0 7.5.5 11.300781 1.699219 10.601562-28.398438 38.699219-46.5 69.199219-44.699219zm0 0" fill="#3b485b"/><path d="m345.351562 25.601562c-69 0-125 47.898438-125 107.097657 0 23.699219 9 45.5 24.097657 63.199219-3.097657 16.800781-10.199219 40.601562-25.898438 56.300781 0 0 40.199219-1.199219 70.699219-23.800781 16.898438 7.300781 35.898438 11.402343 56.101562 11.402343 69 0 125-47.902343 125-107.101562s-56-107.097657-125-107.097657zm0 0" fill="#79bbe8"/><path d="m338.949219 192.800781c-1.898438 0-3.699219-.800781-5.097657-2.101562l-39.902343-40.097657c-2.800781-2.800781-2.800781-7.402343 0-10.203124 2.800781-2.796876 7.402343-2.796876 10.199219 0l32.800781 33 46-89.796876c1.800781-3.5 6.199219-4.902343 9.699219-3.101562s4.902343 6.199219 3.101562 9.699219l-50.300781 98.699219c-1.097657 2.101562-3 3.5-5.300781 3.800781-.398438 0-.796876.101562-1.199219.101562zm0 0" fill="#fff"/><path d="m139.75 290.898438h6.898438c18.902343 0 34.203124-15.296876 34.203124-34.199219v-5.300781h-75.402343v5.300781c.101562 18.800781 15.402343 34.199219 34.300781 34.199219zm0 0" fill="#f74866"/></svg>