<svg width="200" height="200" viewBox="0 0 300 300" fill="none" xmlns="http://www.w3.org/2000/svg">
<path d="M78.8498 166.285H0L12.2383 147.315L0 128.345H87.4168" fill="#CCCCCC"/>
<path d="M61.9492 185.339L31.8443 215.444L27.0836 193.38L5.01709 188.619L45.3918 148.244" fill="#CCCCCC"/>
<path d="M201.883 261.749V300H34.1721V261.749C34.1721 245.313 47.4953 231.992 63.9245 231.992H172.126C188.562 231.992 201.883 245.313 201.883 261.749Z" fill="#3B485B"/>
<path d="M201.883 261.749V300H44.3665V261.749C44.3665 245.313 57.6874 231.992 74.1234 231.992H172.126C188.562 231.992 201.883 245.313 201.883 261.749Z" fill="#515F75"/>
<path d="M64.7622 231.997L62.9563 277.755L82.1938 282.566L64.9224 299.835H171.133L153.861 282.566L173.097 277.755L171.293 231.997" fill="#3B485B"/>
<path d="M154.699 231.997L135.324 299.998H100.735L81.3606 231.997" fill="#F2F2F2"/>
<path d="M94.3291 248.692L118.03 278.357L141.495 248.804L118.03 244.418L94.3291 248.692Z" fill="#F74866"/>
<path d="M92.2485 270.2L118.03 244.418L143.811 270.2L154.699 231.997H81.3606L92.2485 270.2Z" fill="#E6E6E6"/>
<path d="M140.073 193.79V231.999L118.03 244.418L111.218 240.582L95.9862 231.999V193.767L111.218 193.774L140.073 193.79Z" fill="#F9C2AF"/>
<path d="M100.854 299.998L118.03 278.357L135.324 299.998" fill="#F74866"/>
<path d="M111.218 193.774L95.9862 193.767V231.997L111.218 240.582V222.903C113.47 223.125 115.75 223.251 118.06 223.251C125.755 223.251 133.161 221.995 140.073 219.674V193.79L111.218 193.774Z" fill="#EA9E8F"/>
<path d="M187.26 75.6386V144.839C187.26 148.352 186.996 151.797 186.495 155.168C181.508 188.486 152.767 214.034 118.059 214.034C98.957 214.034 81.6512 206.287 69.1314 193.767C58.9141 183.549 51.876 170.142 49.6307 155.175C49.1294 151.804 48.8662 148.352 48.8662 144.839V75.6386H187.26Z" fill="#F9C2AF"/>
<path d="M117.57 214.032C98.655 213.904 81.5506 206.184 69.1315 193.769C56.6094 181.242 48.864 163.948 48.864 144.839V75.6409H80.0194V144.839C80.0194 163.948 84.2743 181.242 91.1591 193.769C97.9363 206.097 107.259 213.792 117.57 214.032Z" fill="#EA9E8F"/>
<path d="M187.26 75.6386V92.981C182.517 96.3776 176.846 99.3576 170.107 101.786C145.031 110.818 120.758 107.776 103.594 102.992C103.594 102.992 103.587 102.992 103.587 102.985C88.6322 98.8243 79.0741 93.3289 79.0741 93.3289C79.0741 93.3289 72.7661 123.699 48.864 123.699V75.6386H187.26Z" fill="#EA9E8F"/>
<path d="M170.105 94.4435C145.033 103.477 120.758 100.436 103.59 95.652C103.59 95.652 103.585 95.652 103.585 95.6451C88.6345 91.4795 79.0764 85.984 79.0764 85.984C79.0764 85.984 72.7638 116.354 48.864 116.354C48.864 116.354 32.9636 88.2271 33.4626 62.2032C33.7212 48.7083 44.8471 38.6169 57.4951 38.6169C59.8572 38.6169 62.2742 38.9648 64.6797 39.7156C71.4546 21.5263 89.3486 10.0136 108.723 11.1923C111.742 11.38 114.777 11.6203 117.824 11.895C118.407 11.9453 118.998 11.998 119.579 12.0529C119.641 12.0575 119.701 12.0644 119.76 12.0689C151.387 15.0398 183.419 20.8237 202.24 0C202.24 0 233.35 71.6606 170.105 94.4435Z" fill="#515F75"/>
<path d="M108.723 11.1923C111.742 11.38 114.777 11.6203 117.826 11.895C89.9208 10.7185 67.7513 72.171 103.585 95.6451C88.6345 91.4795 79.0764 85.984 79.0764 85.984C79.0764 85.984 72.7638 116.354 48.864 116.354C48.864 116.354 32.9636 88.2271 33.4626 62.2032C33.7212 48.7083 44.8471 38.6169 57.4951 38.6169C59.8572 38.6169 62.2742 38.9648 64.6797 39.7156C71.4546 21.5263 89.3486 10.0159 108.723 11.1923Z" fill="#3B485B"/>
<path d="M119.774 12.0758C119.707 12.0644 119.646 12.0598 119.582 12.0529C119.641 12.0598 119.701 12.0644 119.76 12.0712L119.774 12.0758Z" fill="#F4AF9D"/>
<path d="M118.06 180.856C110.738 180.856 103.413 178.068 97.8401 172.492C96.0479 170.7 96.0479 167.796 97.8401 166.003C99.6322 164.211 102.537 164.211 104.329 166.003C111.9 173.575 124.221 173.575 131.79 166.003C133.585 164.211 136.489 164.211 138.281 166.003C140.073 167.796 140.073 170.7 138.281 172.492C132.706 178.068 125.384 180.856 118.06 180.856Z" fill="#E06E86"/>
<path d="M187.26 120.241V144.839C187.26 148.352 186.996 151.797 186.495 155.168C186.452 155.168 186.404 155.168 186.356 155.161C140.909 151.27 95.2056 151.27 49.7589 155.168C49.7177 155.175 49.6742 155.175 49.6307 155.175C49.1294 151.804 48.8662 148.352 48.8662 144.839V120.241C94.9172 116.412 141.209 116.412 187.26 120.241Z" fill="#EA9E8F"/>
<path d="M193.318 120.341V141.27C193.318 145.125 190.199 148.244 186.344 148.244H49.7727C45.9229 148.244 42.8032 145.125 42.8032 141.27V120.341C42.8032 116.487 45.9229 113.367 49.7727 113.367H186.344C190.199 113.367 193.318 116.487 193.318 120.341Z" fill="#CCCCCC"/>
<path d="M193.318 120.341V141.27C193.318 145.125 190.198 148.244 186.344 148.244H80.9784C77.1309 148.244 74.0089 145.125 74.0089 141.27V120.341C74.0089 116.487 77.1309 113.367 80.9784 113.367H186.344C190.198 113.367 193.318 116.487 193.318 120.341Z" fill="#E6E6E6"/>
</svg>
