<svg width="200" height="200" viewBox="0 0 300 300" fill="none" xmlns="http://www.w3.org/2000/svg">
<g clip-path="url(#clip0)">
<path d="M209.608 199.143H252.466V252.306H209.608V199.143Z" fill="#E6E6E6"/>
<path d="M209.608 199.143H252.466V224.224H209.608V199.143Z" fill="#CCCCCC"/>
<path d="M196.893 208.903H209.608V239.545H196.893V208.903Z" fill="#CCCCCC"/>
<path d="M21.4279 253.633H278.572V300H21.4279V253.633Z" fill="#EFA233"/>
<path d="M21.4279 253.633H278.572V276.816H21.4279V253.633Z" fill="#DD8C22"/>
<path d="M0 236.998H300V261.594H0V236.998Z" fill="#EFA233"/>
<path d="M162.076 94.3428H300V212.002H162.076V94.3428Z" fill="#CCCCCC"/>
<path d="M180.002 94.3428H300V212.002H180.002V94.3428Z" fill="#E6E6E6"/>
<path d="M143.328 206.781V236.998H10.8375V206.781C10.8375 193.797 21.3615 183.273 34.3391 183.273H119.82C132.804 183.273 143.328 193.797 143.328 206.781Z" fill="#3B485B"/>
<path d="M143.328 206.781V236.998H18.8896V206.781C18.8896 193.797 29.4136 183.273 42.3981 183.273H119.82C132.804 183.273 143.328 193.797 143.328 206.781Z" fill="#515F75"/>
<path d="M35.0029 183.275L33.577 219.424L48.7724 223.224L35.1288 236.868H119.035L105.391 223.224L120.586 219.424L119.16 183.275" fill="#3B485B"/>
<path d="M106.05 183.275L90.7448 236.996H63.4209L48.1155 183.275" fill="#F2F2F2"/>
<path d="M58.3603 196.465L77.0828 219.901L95.62 196.552L77.0828 193.089L58.3603 196.465Z" fill="#F74866"/>
<path d="M56.7146 213.455L77.0828 193.089L97.451 213.455L106.05 183.275H48.1155L56.7146 213.455Z" fill="#E6E6E6"/>
<path d="M94.4962 153.094V183.277L77.0828 193.089L71.7018 190.059L59.6695 183.277V153.074L71.7018 153.078L94.4962 153.094Z" fill="#F9C2AF"/>
<path d="M63.5147 236.996L77.0828 219.901L90.7448 236.996" fill="#F74866"/>
<path d="M71.7018 153.078L59.6695 153.074V183.277L71.7018 190.059V176.092C73.4802 176.269 75.2815 176.367 77.1057 176.367C83.1848 176.367 89.035 175.376 94.4962 173.543V153.094L71.7018 153.078Z" fill="#EA9E8F"/>
<path d="M22.4442 121.314C13.3759 121.314 6.02649 114.734 6.02649 106.618C6.02649 98.5016 13.3759 91.9213 22.4442 91.9213H131.772C140.84 91.9213 148.19 98.5016 148.19 106.618C148.19 114.736 140.84 121.314 131.772 121.314" fill="#EA9E8F"/>
<path d="M131.774 59.7542V114.423C131.774 144.612 107.3 169.086 77.1057 169.086C62.0132 169.086 48.3444 162.966 38.4521 153.076C28.5622 143.186 22.4442 129.515 22.4442 114.423V59.7542H131.774Z" fill="#F9C2AF"/>
<path d="M76.7189 169.084C61.7775 168.983 48.2643 162.884 38.4521 153.076C28.5622 143.182 22.4442 129.52 22.4442 114.423V59.7565H47.0535V114.42C47.0535 129.517 50.4158 143.182 55.854 153.076C61.2099 162.815 68.573 168.894 76.7189 169.084Z" fill="#EA9E8F"/>
<path d="M108.799 113.825C106.796 113.825 105.173 112.202 105.173 110.2V102.603C105.173 100.603 106.796 98.9777 108.799 98.9777C110.802 98.9777 112.424 100.603 112.424 102.603V110.2C112.424 112.202 110.802 113.825 108.799 113.825Z" fill="#293544"/>
<path d="M69.9073 113.825C67.9046 113.825 66.2819 112.202 66.2819 110.2V102.603C66.2819 100.603 67.9046 98.9777 69.9073 98.9777C71.9101 98.9777 73.5328 100.603 73.5328 102.603V110.2C73.5328 112.202 71.9101 113.825 69.9073 113.825Z" fill="#293544"/>
<path d="M131.774 59.7542V73.455C128.027 76.1375 123.546 78.4927 118.224 80.4107C98.4146 87.545 79.2389 85.144 65.6799 81.3629C65.6799 81.3629 65.6754 81.3629 65.6754 81.3583C53.8605 78.0716 46.3097 73.7297 46.3097 73.7297C46.3097 73.7297 41.3269 97.7211 22.4442 97.7211V59.7542H131.774Z" fill="#EA9E8F"/>
<path d="M118.222 74.6086C98.4146 81.7474 79.2389 79.3442 65.6754 75.563C65.6754 75.563 65.6708 75.563 65.6708 75.5585C53.8605 72.2672 46.3097 67.9276 46.3097 67.9276C46.3097 67.9276 41.3246 91.9189 22.4419 91.9189C22.4419 91.9189 9.88084 69.6991 10.2768 49.1409C10.4805 38.4796 19.2696 30.5077 29.2626 30.5077C31.1279 30.5077 33.0368 30.7823 34.9365 31.3751C40.2878 17.0059 54.4258 7.91244 69.7312 8.84171C72.1161 8.99048 74.5125 9.18045 76.9203 9.39789C77.3804 9.4368 77.8473 9.478 78.3074 9.52148C78.3554 9.52606 78.4012 9.53064 78.4493 9.53522C103.434 11.8813 128.741 16.4497 143.61 0C143.61 0 168.185 56.6116 118.222 74.6086Z" fill="#515F75"/>
<path d="M69.7311 8.84171C72.1161 8.99048 74.5148 9.18046 76.9203 9.39789C54.8767 8.46634 37.3627 57.0145 65.6708 75.5585C53.8605 72.2672 46.3097 67.9276 46.3097 67.9276C46.3097 67.9276 41.3246 91.919 22.4419 91.919C22.4419 91.919 9.88084 69.6991 10.2768 49.1409C10.4805 38.4796 19.2696 30.5077 29.2626 30.5077C31.1279 30.5077 33.0368 30.7823 34.9365 31.3751C40.2878 17.0059 54.4258 7.91245 69.7311 8.84171Z" fill="#3B485B"/>
<path d="M78.4607 9.54208C78.4081 9.53293 78.36 9.52606 78.3096 9.52148C78.3554 9.52606 78.4035 9.53293 78.4515 9.53522L78.4607 9.54208Z" fill="#F4AF9D"/>
<path d="M89.3532 142.875C83.567 142.875 77.7832 140.673 73.3772 136.269C71.9627 134.853 71.9627 132.557 73.3772 131.142C74.794 129.726 77.0897 129.726 78.5042 131.142C84.4871 137.123 94.2192 137.123 100.2 131.142C101.617 129.726 103.912 129.726 105.327 131.142C106.744 132.557 106.744 134.853 105.327 136.269C100.923 140.673 95.1393 142.875 89.3532 142.875Z" fill="#E06E86"/>
<path d="M219.186 198.225H196.532C193.996 198.225 191.94 196.17 191.94 193.634C191.94 191.098 193.996 189.043 196.532 189.043H219.186C221.722 189.043 223.778 191.098 223.778 193.634C223.778 196.17 221.722 198.225 219.186 198.225Z" fill="#CCCCCC"/>
<path d="M219.186 183.531H196.532C193.996 183.531 191.94 181.476 191.94 178.94C191.94 176.404 193.996 174.349 196.532 174.349H219.186C221.722 174.349 223.778 176.404 223.778 178.94C223.778 181.476 221.722 183.531 219.186 183.531Z" fill="#CCCCCC"/>
<path d="M219.186 168.837H196.532C193.996 168.837 191.94 166.782 191.94 164.246C191.94 161.71 193.996 159.654 196.532 159.654H219.186C221.722 159.654 223.778 161.71 223.778 164.246C223.778 166.782 221.722 168.837 219.186 168.837Z" fill="#CCCCCC"/>
<path d="M283.777 198.225H261.124C258.588 198.225 256.531 196.17 256.531 193.634C256.531 191.098 258.588 189.043 261.124 189.043H283.777C286.313 189.043 288.368 191.098 288.368 193.634C288.368 196.17 286.313 198.225 283.777 198.225Z" fill="#CCCCCC"/>
<path d="M283.777 183.531H261.124C258.588 183.531 256.531 181.476 256.531 178.94C256.531 176.404 258.588 174.349 261.124 174.349H283.777C286.313 174.349 288.368 176.404 288.368 178.94C288.368 181.476 286.313 183.531 283.777 183.531Z" fill="#CCCCCC"/>
<path d="M283.777 168.837H261.124C258.588 168.837 256.531 166.782 256.531 164.246C256.531 161.71 258.588 159.654 261.124 159.654H283.777C286.313 159.654 288.368 161.71 288.368 164.246C288.368 166.782 286.313 168.837 283.777 168.837Z" fill="#CCCCCC"/>
<path d="M265.105 41.185C265.105 59.4429 250.303 74.2447 232.043 74.2447C213.783 74.2447 198.981 59.4429 198.981 41.185C198.981 22.9248 213.783 8.12305 232.043 8.12305C250.303 8.12305 265.105 22.9248 265.105 41.185Z" fill="#79BBE8"/>
<path d="M249.797 41.185L222.86 25.6324V56.7375L249.797 41.185Z" fill="white"/>
</g>
<defs>
<clipPath id="clip0">
<rect width="300" height="300" fill="white"/>
</clipPath>
</defs>
</svg>
