<svg width="200" height="200" viewBox="0 0 300 300" fill="none" xmlns="http://www.w3.org/2000/svg">
<g clip-path="url(#clip0)">
<path d="M176.594 194.859L194.531 176.921L241.084 223.474L223.146 241.411L176.594 194.859Z" fill="#CCCCCC"/>
<path d="M176.594 194.859L185.564 185.891L232.116 232.444L223.146 241.411L176.594 194.859Z" fill="#B3B3B3"/>
<path d="M229.537 113.597C229.537 176.658 178.416 227.779 115.354 227.779C52.2925 227.779 1.17163 176.658 1.17163 113.597C1.17163 50.5349 52.2925 -0.585938 115.354 -0.585938C178.416 -0.585938 229.537 50.5349 229.537 113.597Z" fill="#FFC627"/>
<path d="M210.878 238.47L238.14 211.206L299.085 272.15L271.822 299.415L210.878 238.47Z" fill="#79BBE8"/>
<path d="M210.878 238.47L221.741 227.607L282.685 288.552L271.822 299.415L210.878 238.47Z" fill="#58ACDB"/>
<path d="M178.322 176.564C174.106 180.78 169.572 184.491 164.79 187.679C159.826 191.002 154.607 193.767 149.208 195.978C147.64 196.619 146.063 197.221 144.47 197.766C142.532 198.439 140.565 199.038 138.59 199.569C136.587 200.11 134.569 200.581 132.536 200.972C126.661 202.128 120.687 202.68 114.72 202.636C113.038 202.63 111.349 202.57 109.671 202.458C102.914 202.03 96.1944 200.837 89.6575 198.867C88.2132 198.432 86.7736 197.96 85.3476 197.452C83.8736 196.926 82.4156 196.363 80.9668 195.752C80.7402 195.66 80.5182 195.562 80.2939 195.463C73.9516 192.758 67.8679 189.277 62.1756 185.028C58.7607 182.488 55.4922 179.666 52.3909 176.564C17.6145 141.788 17.6145 85.4074 52.3909 50.6311C87.165 15.8615 143.548 15.8615 178.322 50.6311C213.091 85.4074 213.091 141.788 178.322 176.564Z" fill="#79BBE8"/>
<path d="M178.322 50.6288C159.066 31.3752 133.182 22.7898 108.011 24.8589C128.295 26.5275 148.116 35.1128 163.634 50.6288C198.404 85.4051 198.404 141.786 163.634 176.562C159.416 180.778 154.882 184.486 150.101 187.677C141.943 193.135 133.081 197.102 123.9 199.567C118.691 200.972 113.379 201.883 108.032 202.325C108.579 202.369 109.124 202.421 109.671 202.456C111.349 202.568 113.038 202.627 114.72 202.634C122.749 202.696 130.785 201.673 138.59 199.567C147.771 197.102 156.633 193.135 164.79 187.677C169.572 184.486 174.106 180.778 178.322 176.562C213.091 141.786 213.091 85.4051 178.322 50.6288Z" fill="#A2D6F4"/>
<path d="M112.475 59.2645C112.434 59.2576 112.397 59.2531 112.356 59.2508C112.392 59.2531 112.429 59.2576 112.466 59.2622L112.475 59.2645Z" fill="#F4AF9D"/>
<path d="M115.361 207.23C115.134 207.23 114.912 207.228 114.688 207.228C112.955 207.221 111.161 207.157 109.371 207.04C102.228 206.587 95.146 205.314 88.3322 203.261C86.8147 202.806 85.2904 202.304 83.8072 201.776C82.205 201.206 80.7013 200.622 79.209 199.993C79.0075 199.908 78.8084 199.823 78.607 199.736L78.4674 199.675C71.7543 196.811 65.341 193.117 59.4312 188.707C55.8355 186.033 52.3725 183.037 49.143 179.808C12.634 143.299 12.634 83.8945 49.143 47.3855C85.6543 10.8811 145.058 10.8811 181.567 47.3855C218.072 83.8945 218.072 143.299 181.57 179.808C181.57 179.808 181.57 179.808 181.567 179.81C177.196 184.184 172.408 188.114 167.338 191.497C162.188 194.946 156.67 197.882 150.948 200.226C149.245 200.924 147.565 201.556 145.958 202.108C143.983 202.792 141.898 203.433 139.783 204.003C137.636 204.58 135.489 205.076 133.404 205.479C127.51 206.64 121.435 207.23 115.361 207.23ZM115.356 29.1848C93.727 29.1848 72.1022 37.4131 55.6364 53.8766C22.7071 86.8082 22.7071 140.387 55.6364 173.319C58.5501 176.23 61.672 178.933 64.9153 181.346C70.2482 185.324 76.0252 188.652 82.0952 191.24L82.2737 191.318C82.4133 191.38 82.5484 191.439 82.6903 191.497C82.7109 191.506 82.7315 191.513 82.7521 191.522C84.0933 192.087 85.446 192.614 86.8903 193.129C88.2292 193.605 89.6048 194.058 90.9804 194.47C97.1236 196.322 103.509 197.468 109.962 197.878C111.575 197.983 113.177 198.04 114.736 198.045C120.435 198.086 126.123 197.555 131.65 196.468C133.534 196.104 135.461 195.658 137.395 195.138C139.302 194.623 141.177 194.049 142.966 193.428C144.42 192.929 145.928 192.36 147.466 191.73C152.623 189.62 157.592 186.974 162.236 183.863C166.811 180.812 171.128 177.265 175.076 173.319C208.001 140.387 208.001 86.8059 175.076 53.8766C158.613 37.4177 136.981 29.1848 115.356 29.1848ZM178.324 176.564H178.329H178.324Z" fill="#EAAD18"/>
<path d="M113.957 64C98.3674 64 88.2699 70.3873 80.3424 81.7785C78.9043 83.8449 79.3477 86.6781 81.3537 88.1992L89.7791 94.5877C91.8051 96.1238 94.6877 95.7646 96.2738 93.7775C101.166 87.6484 104.795 84.1195 112.437 84.1195C118.446 84.1195 125.878 87.9865 125.878 93.8131C125.878 98.2178 122.242 100.48 116.309 103.806C109.39 107.685 100.235 112.512 100.235 124.588V126.5C100.235 129.089 102.334 131.188 104.922 131.188H119.077C121.666 131.188 123.764 129.089 123.764 126.5V125.372C123.764 117.001 148.231 116.653 148.231 94C148.231 76.9406 130.535 64 113.957 64ZM112 136.941C104.54 136.941 98.4703 143.011 98.4703 150.471C98.4703 157.931 104.54 164 112 164C119.46 164 125.529 157.931 125.529 150.471C125.529 143.01 119.46 136.941 112 136.941Z" fill="black"/>
</g>
<defs>
<clipPath id="clip0">
<rect width="300" height="300" fill="white"/>
</clipPath>
</defs>
</svg>
