<svg width="30" height="30" viewBox="0 0 30 30" fill="none" xmlns="http://www.w3.org/2000/svg">
<path d="M6.72119 8.52608C7.17719 8.41808 7.66919 8.34608 8.19719 8.31008C8.72519 8.27408 9.24719 8.25608 9.76319 8.25608C10.3152 8.25608 10.8732 8.31008 11.4372 8.41808C12.0132 8.52608 12.5352 8.72408 13.0032 9.01208C13.4712 9.30008 13.8492 9.69608 14.1372 10.2001C14.4372 10.7041 14.5872 11.3461 14.5872 12.1261C14.5872 12.8941 14.4492 13.5421 14.1732 14.0701C13.8972 14.5981 13.5312 15.0301 13.0752 15.3661C12.6192 15.6901 12.0972 15.9241 11.5092 16.0681C10.9212 16.2121 10.3152 16.2841 9.69119 16.2841C9.63119 16.2841 9.52919 16.2841 9.38519 16.2841C9.25319 16.2841 9.10919 16.2841 8.95319 16.2841C8.80919 16.2721 8.66519 16.2601 8.52119 16.2481C8.37719 16.2361 8.27519 16.2241 8.21519 16.2121V21.0001H6.72119V8.52608ZM9.79919 9.55208C9.48719 9.55208 9.18719 9.55808 8.89919 9.57008C8.61119 9.58208 8.38319 9.61208 8.21519 9.66008V14.8801C8.27519 14.9041 8.37119 14.9221 8.50319 14.9341C8.63519 14.9341 8.77319 14.9401 8.91719 14.9521C9.06119 14.9521 9.19919 14.9521 9.33119 14.9521C9.46319 14.9521 9.55919 14.9521 9.61919 14.9521C10.0272 14.9521 10.4292 14.9161 10.8252 14.8441C11.2332 14.7601 11.5992 14.6161 11.9232 14.4121C12.2472 14.2081 12.5052 13.9201 12.6972 13.5481C12.9012 13.1761 13.0032 12.7021 13.0032 12.1261C13.0032 11.6341 12.9072 11.2261 12.7152 10.9021C12.5352 10.5661 12.2892 10.3021 11.9772 10.1101C11.6772 9.90608 11.3352 9.76208 10.9512 9.67808C10.5672 9.59408 10.1832 9.55208 9.79919 9.55208ZM22.4639 17.7961C22.4639 17.2921 22.3139 16.8841 22.0139 16.5721C21.7139 16.2481 21.3359 15.9661 20.8799 15.7261C20.4359 15.4741 19.9499 15.2401 19.4219 15.0241C18.8939 14.8081 18.4019 14.5501 17.9459 14.2501C17.5019 13.9381 17.1299 13.5601 16.8299 13.1161C16.5299 12.6601 16.3799 12.0841 16.3799 11.3881C16.3799 10.4041 16.7219 9.62408 17.4059 9.04808C18.0899 8.47208 19.0619 8.18408 20.3219 8.18408C21.0539 8.18408 21.7199 8.23808 22.3199 8.34608C22.9199 8.45408 23.3879 8.59208 23.7239 8.76008L23.2739 10.0741C22.9979 9.94208 22.5899 9.81608 22.0499 9.69608C21.5219 9.57608 20.9219 9.51608 20.2499 9.51608C19.4579 9.51608 18.8639 9.69608 18.4679 10.0561C18.0719 10.4041 17.8739 10.8181 17.8739 11.2981C17.8739 11.7661 18.0239 12.1561 18.3239 12.4681C18.6239 12.7801 18.9959 13.0621 19.4399 13.3141C19.8959 13.5541 20.3879 13.7941 20.9159 14.0341C21.4439 14.2741 21.9299 14.5561 22.3739 14.8801C22.8299 15.1921 23.2079 15.5701 23.5079 16.0141C23.8079 16.4581 23.9579 17.0101 23.9579 17.6701C23.9579 18.2101 23.8619 18.6961 23.6699 19.1281C23.4779 19.5601 23.1959 19.9321 22.8239 20.2441C22.4519 20.5561 22.0019 20.7961 21.4739 20.9641C20.9459 21.1321 20.3459 21.2161 19.6739 21.2161C18.7739 21.2161 18.0299 21.1441 17.4419 21.0001C16.8539 20.8681 16.3979 20.7181 16.0739 20.5501L16.5779 19.2001C16.8539 19.3561 17.2619 19.5121 17.8019 19.6681C18.3419 19.8121 18.9479 19.8841 19.6199 19.8841C20.0159 19.8841 20.3879 19.8481 20.7359 19.7761C21.0839 19.6921 21.3839 19.5661 21.6359 19.3981C21.8879 19.2181 22.0859 18.9961 22.2299 18.7321C22.3859 18.4681 22.4639 18.1561 22.4639 17.7961Z" fill="black"/>
</svg>
