<svg width="4800" height="2667" viewBox="0 0 4800 2667" fill="none" xmlns="http://www.w3.org/2000/svg">
<path d="M0 2666.67H4800V0H0V2666.67Z" fill="white"/>
<path d="M4348.2 2071.07C4287.25 2209.56 4168.64 2270.69 4055.23 2295.77H723.794C409.313 2178.29 241.969 1323.89 708.313 1116.05C963.858 1002.16 1139.89 982.387 1189.57 802.893C1333.8 281.84 1735.4 344.747 2061.55 407.653C2207.91 435.88 2339.07 464.107 2424.96 439.56C2942.37 291.667 3147.56 601.6 3314.48 911.547C3465.68 1192.28 3585.49 1473.01 3877.53 1413.51C4159.51 1356.07 4527.17 1664.4 4348.2 2071.07Z" fill="#EBF2F9"/>
<path d="M2680.52 1656.31C2680.52 1656.31 2570.97 1737.77 2549.61 1732.83C2528.25 1727.88 2629.67 1644.89 2629.67 1644.89C2591.51 1626.55 2472.88 1638.05 2472.88 1638.05C2472.88 1638.05 2433.36 1765.48 2413.88 1755.43C2394.39 1745.39 2454.63 1644.39 2454.63 1644.39C2412.12 1641.83 2359.99 1673.39 2359.99 1673.39C2288.61 1729.75 2364.68 1818.48 2364.68 1818.48C2364.68 1818.48 2350.03 1862.35 2304.96 1902.29C2304.96 1902.29 2240.59 1949.89 2236.12 2034.95L2247.8 2036C2247.8 2036 2266.32 1956.77 2299.99 1919.31C2301.29 1917.95 2303.19 1916.01 2305.52 1913.65C2311.03 1908.56 2314.87 1904.73 2317.45 1901.89C2334.2 1885.81 2357.35 1865.32 2368.49 1863.33C2368.49 1863.33 2367.93 1861.28 2368.01 1857.72C2368.17 1859.52 2368.33 1861.36 2368.49 1863.33C2372.32 1908.17 2459.32 1947.35 2512.84 1955.4C2566.37 1963.45 2549.83 1941.45 2531.39 1908.83C2512.93 1876.2 2454.57 1861.6 2441.25 1846.57C2427.95 1831.56 2455.48 1831.52 2487.72 1846.25C2519.97 1860.97 2524.39 1900.25 2576.12 1925.03C2627.85 1949.8 2705.71 1863.96 2705.71 1863.96C2664.47 1861.87 2605.59 1817.09 2607.72 1803.39C2609.85 1789.68 2707.67 1827.03 2724.39 1828.81C2741.11 1830.61 2779.16 1809.81 2785.04 1742.45C2790.93 1675.09 2680.52 1656.31 2680.52 1656.31Z" fill="#82B378"/>
<path d="M2098.75 1706.89C2098.75 1706.89 2219.73 1639.13 2163.28 1547.19C2163.28 1547.19 2118.11 1490.72 2069.71 1476.2C2069.71 1476.2 2095.52 1613.32 2069.71 1616.55C2043.91 1619.77 2051.96 1461.68 2051.96 1461.68C2051.96 1461.68 1924.52 1400.39 1874.52 1405.21C1874.52 1405.21 1953.56 1539.12 1927.75 1535.89C1901.93 1532.67 1813.21 1397.15 1813.21 1397.15C1813.21 1397.15 1682.55 1372.96 1661.57 1450.39C1640.6 1527.83 1674.48 1566.53 1693.84 1571.37C1713.2 1576.21 1837.41 1574.6 1834.19 1590.73C1830.96 1606.87 1747.07 1632.68 1700.29 1618.16C1700.29 1618.16 1751.91 1745.6 1819.67 1739.15C1887.43 1732.69 1908.39 1690.76 1950.33 1687.53C1992.28 1684.31 2022.93 1695.6 2001.96 1706.89C1980.99 1718.17 1910 1710.59 1876.13 1739.39C1842.25 1768.19 1814.83 1785.93 1877.75 1798.84C1940.65 1811.75 2053.57 1803.68 2076.16 1755.28C2098.75 1706.89 2098.75 1706.89 2098.75 1706.89Z" fill="#A8D29F"/>
<path d="M2131.01 1824.65C2097.13 1761.73 2098.75 1706.89 2098.75 1706.89C2060.03 1584.28 1721.27 1474.59 1721.27 1474.59C2151.99 1648.81 2076.16 1755.28 2076.16 1755.28C2087.77 1762.05 2105.17 1794.35 2117.25 1819.11C2118.97 1823.33 2121.69 1829.16 2125.75 1837.08C2127.39 1840.67 2128.69 1843.59 2129.6 1845.64C2151.79 1901.13 2140.03 1996.95 2140.03 1996.95L2153.47 2000.56C2183.25 1903.99 2131.01 1824.65 2131.01 1824.65Z" fill="#82B378"/>
<path d="M2291.24 1613.44C2291.24 1613.44 2131.75 1524.13 2206.17 1402.92C2206.17 1402.92 2265.72 1328.49 2329.51 1309.36C2329.51 1309.36 2295.49 1490.11 2329.51 1494.36C2363.53 1498.61 2352.91 1290.21 2352.91 1290.21C2352.91 1290.21 2520.89 1209.41 2586.81 1215.79C2586.81 1215.79 2482.61 1392.29 2516.64 1388.04C2550.67 1383.79 2667.63 1205.16 2667.63 1205.16C2667.63 1205.16 2839.87 1173.27 2867.51 1275.33C2895.16 1377.4 2850.51 1428.44 2824.99 1434.83C2799.47 1441.2 2635.72 1439.07 2639.97 1460.33C2644.23 1481.6 2754.81 1515.63 2816.48 1496.49C2816.48 1496.49 2748.43 1664.48 2659.12 1655.97C2569.8 1647.47 2542.16 1592.17 2486.87 1587.93C2431.59 1583.68 2391.17 1598.56 2418.83 1613.44C2446.47 1628.33 2540.04 1618.32 2584.69 1656.29C2629.35 1694.25 2665.49 1717.64 2582.56 1734.65C2499.63 1751.67 2350.77 1741.04 2321 1677.24C2291.24 1613.44 2291.24 1613.44 2291.24 1613.44Z" fill="#A8D29F"/>
<path d="M2788.84 1307.23C2788.84 1307.23 2342.27 1451.83 2291.24 1613.44C2291.24 1613.44 2293.36 1685.75 2248.71 1768.68C2248.71 1768.68 2179.84 1873.25 2219.09 2000.56L2236.81 1995.8C2236.81 1995.8 2221.33 1869.49 2250.56 1796.35C2251.76 1793.65 2253.48 1789.79 2255.65 1785.07C2260.99 1774.63 2264.57 1766.93 2266.84 1761.39C2282.76 1728.72 2305.71 1686.16 2321 1677.24C2321 1677.24 2221.05 1536.89 2788.84 1307.23Z" fill="#82B378"/>
<path d="M2025.36 1598.4C2025.36 1598.4 2289.32 1523 2355.63 1594.73C2413.71 1657.57 2571.21 1906.32 2579.51 2053.53C2587.56 2196.59 2436.13 2290.65 2280.37 2290.65H2003.73L2025.36 1598.4Z" fill="#F1A34F"/>
<path d="M1842.68 1671.71C1842.68 1671.71 2215.87 1502.17 2286.56 1612.92C2324.09 1671.72 2427.37 1906.32 2435 2053.53C2442.41 2196.59 2303.16 2290.65 2159.92 2290.65H1905.52L1842.68 1671.71Z" fill="#D16E24"/>
<path d="M1106.85 1150.17C1106.85 1150.17 1571.05 1137.6 1748.24 1138C1839.4 1138.2 1837.15 1207.2 1880.95 1287.15C1968.67 1447.28 2114.32 1722.71 2102.73 1765.75C2086.23 1827.01 1464.84 1869.43 1420.84 1855.29C1376.85 1841.16 1106.85 1150.17 1106.85 1150.17Z" fill="#E78B37"/>
<path d="M1349.8 1649.37C1337.36 1612.32 1324.96 1575.41 1312.83 1539.35C1320.21 1301.29 1434.87 1198.07 1454.61 1191.01C1455.52 1190.69 1456.37 1190.53 1457.19 1190.53C1476.09 1190.53 1470.32 1274.27 1470.32 1274.27L1870.89 1599.45L1749.65 1619.6C1747.84 1616.48 1746.13 1613.67 1744.55 1611.17C1727.13 1583.83 1691.39 1573.51 1647.4 1573.51C1573.56 1573.51 1476.51 1602.53 1403.85 1628.77C1383.59 1636.08 1365.23 1643.19 1349.8 1649.37Z" fill="#D97321"/>
<path d="M2095.37 1643.55L1929.76 1725.36C1929.76 1725.36 1787.85 1203.59 1778.43 1163.79C1774.23 1146.05 1761.28 1139.64 1748.24 1138C1771.2 1135.91 1787.89 1135.75 1787.89 1135.75C1833.08 1135.75 1873.23 1164.53 1887.72 1207.31C1919.35 1300.6 1977.59 1472.65 2036.57 1647.88C2052 1641.71 2070.36 1634.63 2090.63 1627.33L2095.37 1643.55Z" fill="#F1A34F"/>
<path d="M1763.91 1671.81C1763.91 1671.81 2299.09 1624.41 2365.08 1687.6C2395.71 1716.95 2412.91 1849.8 2422.55 1983.72C2434.57 2150.79 2299.19 2293.73 2132.65 2291.33L1552.47 2291.6L1763.91 1671.81Z" fill="#DF812F"/>
<path d="M1563.59 1026.08C1548.25 1022.64 1532.36 1026.61 1521.61 1030.6C1523.53 1026.83 1528.76 1024.08 1528.76 1024.08C1521.67 1025.15 1508.57 1036.51 1508.57 1036.51C1403.03 1028.95 1430.65 1172.52 1442.49 1204.21C1454.33 1235.91 1465.92 1273.01 1427.63 1316.37C1352.29 1401.71 1460.93 1477.31 1460.93 1477.31C1461.8 1477.52 1526.19 1536.52 1526.19 1536.52C1515.84 1511.15 1594.21 1336.61 1644.44 1276.17C1652.87 1248.99 1646.15 1207.55 1645.6 1204.29C1652.6 1236.64 1652.6 1255.97 1650.83 1267.41C1689.07 1202.2 1604.2 1035.17 1563.59 1026.08Z" fill="#B5453C"/>
<path d="M1968.29 1276.63C1969.87 1274.27 1983.21 1233.43 1997.36 1234.21C2011.49 1235 2033.49 1237.36 2038.99 1235.79C2044.48 1234.21 2062.92 1220.29 2066.08 1223.61C2073.93 1231.85 2056.27 1257.39 2043.69 1261.31C2031.13 1265.24 2010.71 1259.35 2006 1264.07C2001.28 1268.77 2002.07 1285.67 2002.07 1285.67L1968.29 1276.63Z" fill="#FFB27D"/>
<path d="M2342.13 2180.64C2340.59 2197.31 2363.8 2201.36 2390.67 2202.69C2417.53 2204.04 2409.41 2209.55 2446.24 2216.21C2483.07 2222.88 2497.83 2212.8 2500.49 2207.83C2502.87 2203.41 2485.75 2196.51 2467.49 2188.71C2465.2 2187.73 2462.91 2186.72 2460.6 2185.72C2440.07 2176.69 2428.55 2158.28 2412.53 2141.2C2397.37 2125.03 2382.97 2073.24 2382.97 2073.24L2332.92 2062.56C2332.92 2062.56 2346.97 2109.16 2351.85 2129.05C2354.72 2140.76 2350.49 2153.85 2346.73 2163.81C2344.71 2169.23 2342.67 2174.77 2342.13 2180.64Z" fill="#FFB27D"/>
<path d="M2390.67 2202.69C2417.53 2204.04 2409.41 2209.55 2446.24 2216.21C2483.07 2222.88 2497.83 2212.8 2500.49 2207.83C2502.87 2203.41 2485.75 2196.51 2467.49 2188.71L2467.21 2189.01C2467.21 2189.01 2441.32 2197.81 2411.43 2189.68C2387.07 2183.07 2363.52 2168.51 2346.73 2163.81C2344.71 2169.23 2342.67 2174.77 2342.13 2180.64C2340.59 2197.31 2363.8 2201.36 2390.67 2202.69Z" fill="#C65447"/>
<path d="M1843.8 1587.23C1843.8 1587.23 2176.33 1562.2 2238.95 1601.71C2301.55 1641.21 2401.95 2101.43 2401.95 2101.43C2401.95 2101.43 2395.75 2106.4 2381.91 2107.89C2369.04 2109.28 2340.69 2101.72 2340.69 2101.72C2340.69 2101.72 2196.4 1895.8 2186.23 1843.93C2176.07 1792.05 2178.55 1745.76 2155.4 1744.52C2132.27 1743.28 1843.76 1779.6 1800.12 1702.72C1756.48 1625.84 1792.56 1549.73 1792.56 1549.73L1843.8 1587.23Z" fill="#AA413E"/>
<path d="M2001.49 1325.99C1978.88 1383.23 1924.28 1476.53 1910.17 1480.07C1898.28 1483.03 1840.15 1469.76 1792.91 1453.64C1765.25 1444.2 1741.36 1433.79 1732.65 1425.08C1709.09 1401.52 1631.53 1263.08 1631.53 1263.08C1631.53 1263.08 1704.39 1253.85 1738.95 1274.27C1773.51 1294.69 1856.76 1388.95 1869.33 1385.81C1881.89 1382.67 1941.59 1277.41 1965.16 1267.99C1965.16 1267.99 2001.28 1260.13 2010.71 1285.27C2013.08 1291.59 2009.09 1306.75 2001.49 1325.99Z" fill="#699DEE"/>
<path d="M2214.89 2234.05C2213.35 2250.72 2236.55 2254.77 2263.43 2256.11C2290.29 2257.45 2282.17 2262.95 2319 2269.63C2355.83 2276.29 2370.59 2266.21 2373.24 2261.24C2375.61 2256.83 2358.49 2249.92 2340.25 2242.12C2337.96 2241.15 2335.65 2240.13 2333.36 2239.13C2312.83 2230.11 2301.31 2211.68 2285.29 2194.61C2270.12 2178.44 2255.72 2126.65 2255.72 2126.65L2205.68 2115.96C2205.68 2115.96 2219.73 2162.57 2224.61 2182.47C2227.48 2194.17 2223.25 2207.25 2219.49 2217.21C2217.47 2222.64 2215.43 2228.19 2214.89 2234.05Z" fill="#FFB27D"/>
<path d="M2263.43 2256.11C2290.29 2257.45 2282.17 2262.95 2319 2269.63C2355.83 2276.29 2370.59 2266.21 2373.24 2261.24C2375.61 2256.83 2358.49 2249.92 2340.25 2242.12L2339.97 2242.43C2339.97 2242.43 2314.08 2251.23 2284.19 2243.09C2259.83 2236.48 2236.27 2221.92 2219.49 2217.21C2217.47 2222.64 2215.43 2228.19 2214.89 2234.05C2213.35 2250.72 2236.55 2254.77 2263.43 2256.11Z" fill="#C65447"/>
<path d="M2001.49 1325.99C1978.88 1383.23 1924.28 1476.53 1910.17 1480.07C1898.28 1483.03 1840.15 1469.76 1792.91 1453.64C1773.35 1436.96 1761.35 1422.53 1759.39 1419.6C1760.93 1420.17 1871.05 1461.93 1892.89 1452.57C1912.68 1444.09 1968.71 1348.49 2001.49 1325.99Z" fill="#4A75CB"/>
<path d="M1641.35 1279.36C1641.71 1279.41 1615.92 1304.68 1590.93 1305.41C1567.44 1306.13 1544.68 1282.33 1544.96 1282.19C1553.59 1277.55 1552.39 1264.12 1535.63 1209.95L1540.03 1209.49L1614.07 1202C1614.07 1202 1619.19 1224.45 1625.45 1245.17C1630.72 1262.56 1636.8 1278.72 1641.35 1279.36Z" fill="#FFB27D"/>
<path d="M1614.07 1202C1614.07 1202 1619.19 1224.45 1625.45 1245.17C1586.05 1256 1554.52 1226.67 1540.03 1209.49L1614.07 1202Z" fill="#E2915A"/>
<path d="M1778.67 1607.83C1778.67 1607.83 2074.08 1621.81 2135.09 1663.73C2196.11 1705.64 2278.53 2169.41 2278.53 2169.41C2278.53 2169.41 2272.15 2174.13 2258.25 2175.09C2245.33 2175.99 2217.31 2167.32 2217.31 2167.32C2217.31 2167.32 2081.13 1955.95 2073 1903.72C2064.87 1851.48 2069.15 1805.33 2046.07 1803.19C2022.99 1801.05 1733.28 1826.11 1692.67 1747.59C1652.05 1669.07 1778.67 1607.83 1778.67 1607.83Z" fill="#C65447"/>
<path d="M1530.49 1204.09C1530.49 1204.09 1500.15 1178 1486.79 1151.84C1477.24 1133.16 1464.95 1056.89 1541.73 1044.97C1541.73 1044.97 1563.73 1040.55 1587.96 1047.99C1607.23 1053.89 1637.39 1070.15 1631.12 1141.88L1631.01 1165.51L1530.49 1204.09Z" fill="#B5453C"/>
<path d="M1780.31 1632.96C1777.72 1632.97 1774.07 1632.8 1769.8 1632.47C1752.53 1631.15 1725.01 1627.45 1715.39 1624.59C1634.11 1600.29 1556.01 1570.35 1522.76 1465.11C1518.73 1452.39 1515.37 1438.56 1512.73 1423.51L1525.41 1375.19L1550.13 1273.19C1550.13 1273.19 1580.56 1289.45 1608.81 1283.17C1623.28 1279.96 1631.53 1263.09 1631.53 1263.09C1631.53 1263.09 1784.51 1322.97 1836.35 1447.07C1888.19 1571.17 1905.99 1552.32 1921.69 1579.03C1937.4 1605.73 1867.76 1632.44 1780.31 1632.96Z" fill="#699DEE"/>
<path d="M1633.09 1217.61C1633.09 1217.61 1541.13 1247.36 1523.48 1189.81C1505.84 1132.25 1482.08 1097.33 1540.05 1075.89C1598.03 1054.47 1616.23 1072.92 1626.79 1090.69C1637.35 1108.48 1656.56 1208.39 1633.09 1217.61Z" fill="#FFB27D"/>
<path d="M1581.72 1061.63C1581.72 1061.63 1577.04 1136.91 1541.25 1158.76C1505.47 1180.61 1485.44 1175.35 1485.44 1175.35C1485.44 1175.35 1508 1142.59 1501.57 1099.37C1501.57 1099.37 1552.81 1035.31 1581.72 1061.63Z" fill="#B5453C"/>
<path d="M1577.12 1069.03C1577.12 1069.03 1600.63 1078.35 1609.72 1091.6C1618.8 1104.85 1630.09 1134.4 1638.57 1130.69C1638.57 1130.69 1643.61 1078.95 1614.27 1059.52C1583.13 1038.92 1577.12 1069.03 1577.12 1069.03Z" fill="#B5453C"/>
<path d="M1769.8 1632.47C1752.53 1631.15 1725.01 1627.45 1715.39 1624.59C1634.11 1600.29 1556.01 1570.35 1522.76 1465.11C1522.64 1464.33 1522.49 1463.56 1522.35 1462.79L1533.63 1453.91C1556.69 1435.76 1587.8 1431.61 1614.83 1443.01C1679.03 1470.13 1767.23 1519.28 1769.8 1632.47Z" fill="#4A75CB"/>
<path d="M1550.13 1273.19C1550.13 1273.19 1455.13 1287.47 1439.43 1347.09C1423.72 1406.71 1409.75 1601.49 1423.89 1616.88C1438.03 1632.27 1480.27 1614.41 1489.69 1606.72C1499.12 1599.03 1547.81 1400.93 1547.81 1400.93C1547.81 1400.93 1571.64 1311.4 1550.13 1273.19Z" fill="#699DEE"/>
<path d="M1694.79 1546.95C1694.79 1546.95 1749.44 1536.37 1755.6 1539.01C1761.77 1541.67 1796.15 1572.51 1792.63 1578.68C1789.09 1584.85 1775 1589.25 1759.13 1583.97C1743.27 1578.68 1708.89 1576.04 1702.72 1568.11C1696.55 1560.17 1694.79 1546.95 1694.79 1546.95Z" fill="#FFB27D"/>
<path d="M1709.48 1539.31C1709.48 1539.31 1496.17 1535.79 1445.04 1569.28C1445.04 1569.28 1415.08 1600.13 1423.89 1616.88C1432.71 1633.63 1460.03 1630.97 1472.37 1630.09C1484.71 1629.21 1700.67 1579.85 1700.67 1579.85C1700.67 1579.85 1725.35 1561.35 1709.48 1539.31Z" fill="#699DEE"/>
<path d="M1527.92 1598.4C1527.92 1598.4 1770.65 1523 1831.63 1594.73C1885.04 1657.57 2029.88 1906.32 2037.51 2053.53C2044.92 2196.59 1905.67 2290.65 1762.43 2290.65H1508.01L1527.92 1598.4Z" fill="#F1A34F"/>
<path d="M1892.99 2053.53C1885.36 1906.32 1782.08 1671.72 1744.55 1612.92C1689.79 1527.13 1453.51 1609.53 1349.8 1651.03C1290.81 1475.79 1232.57 1303.75 1200.95 1210.45C1186.45 1167.67 1146.3 1138.89 1101.13 1138.89C1101.13 1138.89 932.464 1113.97 906.363 1338.68C822.813 2057.96 889.947 2289.91 1189.65 2291.69C1227.24 2291.92 1300.7 2291.25 1363.48 2290.55L1363.49 2290.65H1617.91C1761.15 2290.65 1900.39 2196.59 1892.99 2053.53Z" fill="#F1A34F"/>
<path d="M1892.99 2053.07C1885.36 1905.41 1782.08 1670.15 1744.55 1611.17C1697.93 1537.92 1519.79 1586.91 1403.85 1628.77C1383.59 1636.08 1365.23 1643.19 1349.8 1649.37C1290.81 1473.63 1232.58 1301.08 1200.96 1207.52C1186.46 1164.61 1146.31 1135.75 1101.13 1135.75C1101.13 1135.75 1084.43 1135.91 1061.48 1138H1061.45C1024.47 1141.37 971.309 1149.79 945.828 1170.69C928.548 1184.88 916.673 1247.09 906.367 1336.12C882.003 1546.44 870.456 1715.21 873.74 1848.84C875.42 1917.37 881.012 1976.64 890.784 2027.55C897.617 2063.2 906.493 2094.73 917.537 2122.45C965.371 2242.68 1053.51 2291.11 1189.65 2291.92C1205.47 2292.03 1227.65 2291.96 1252.72 2291.8C1287.2 2291.57 1327.13 2291.17 1363.48 2290.76L1363.51 2290.87H1617.91C1761.15 2290.87 1900.4 2196.53 1892.99 2053.07Z" fill="#D16E24"/>
<path d="M1347 1639.55C1308.72 1654.59 1266.29 1671.24 1231.96 1684.72C1198.4 1561.24 1099.47 1196.79 1091.65 1163.79C1087.47 1146.05 1074.52 1139.64 1061.48 1138C1084.43 1135.91 1101.13 1135.75 1101.13 1135.75C1146.31 1135.75 1186.45 1164.53 1200.96 1207.31C1232.08 1299.12 1288.97 1467.21 1347 1639.55Z" fill="#F1A34F"/>
<path d="M1253.22 2292.52H842.16C842.16 2281.31 853.36 2272.21 867.184 2272.21H971.807C899.263 2248.43 847.548 2191.56 845.065 2124.61H838.296V2119.57H916.3C930.915 2157.12 949.409 2187.79 971.988 2212.25C1022.87 2267.55 1094.54 2291.35 1189.65 2291.92C1194.72 2291.96 1200.44 2291.97 1206.69 2291.97C1219.97 2291.97 1235.68 2291.91 1252.72 2291.8C1252.88 2291.8 1253.04 2291.8 1253.2 2291.8C1253.21 2292.04 1253.22 2292.28 1253.22 2292.52Z" fill="#DBB195"/>
<path d="M971.988 2212.25C949.409 2187.79 930.914 2157.12 916.3 2119.57H916.405C916.78 2120.53 917.157 2121.49 917.537 2122.45C931.953 2158.68 950.038 2188.4 971.988 2212.25Z" fill="#DF812F"/>
<path d="M1206.69 2291.97C1200.44 2291.97 1194.72 2291.96 1189.65 2291.92C1094.54 2291.35 1022.87 2267.55 971.988 2212.25C950.038 2188.4 931.953 2158.68 917.537 2122.45C917.157 2121.49 916.78 2120.53 916.405 2119.57H954.7C955.688 2102.24 955.344 2075.49 946.294 2057.13C945.713 2056.05 944.849 2054.49 943.781 2052.6C941.174 2048.44 939.398 2045.39 938.282 2043.15C930.445 2030.12 919.149 2013.11 911.625 2009.53C911.625 2009.53 912.568 2008.45 913.448 2006.35C912.866 2007.37 912.253 2008.41 911.625 2009.53C907.933 2015.96 900.488 2021.05 890.778 2024.95C881.006 1974.19 875.416 1915.09 873.734 1846.76C886.945 1851.37 895.916 1854.88 895.916 1854.88C895.916 1854.88 890.789 1936.48 906.93 1936.48C907.096 1936.48 907.262 1936.48 907.43 1936.45C924.177 1934.75 907.43 1862.53 907.43 1862.53C938.833 1870.16 968.145 1899.92 968.145 1899.92C1004.78 1948.35 926.282 1984.04 926.282 1984.04C926.282 1984.04 925.228 2012.93 947.206 2046.08C947.206 2046.08 972.922 2077.77 966.78 2119.57H998.841C987.154 2061.51 1023.58 2016.59 1023.58 2016.59C1052.57 1972.91 1051.18 1934.83 1051.18 1934.83C1051.18 1934.83 947.693 1887.77 995.982 1823.93C995.982 1823.93 1034.63 1784.72 1076.02 1774.64C1076.02 1774.64 1053.95 1869.85 1076.02 1872.09C1076.24 1872.12 1076.46 1872.13 1076.68 1872.13C1097.97 1872.13 1091.19 1764.55 1091.19 1764.55C1091.19 1764.55 1192.09 1725.17 1237.84 1725.17C1239.65 1725.17 1241.37 1725.23 1242.99 1725.36C1242.99 1725.36 1176.98 1816.12 1196.7 1816.12C1196.94 1816.12 1197.19 1816.11 1197.45 1816.08C1219.54 1813.85 1295.43 1719.75 1295.43 1719.75C1295.43 1719.75 1311.95 1717.27 1333.32 1717.27C1367.51 1717.27 1414.09 1723.63 1425.13 1756.71C1443.08 1810.48 1414.11 1837.36 1397.53 1840.72C1380.99 1844.09 1274.73 1842.97 1277.49 1854.17C1279.68 1863.07 1325.32 1876.19 1364.07 1876.19C1374.15 1876.19 1383.76 1875.29 1392.03 1873.21C1392.03 1873.21 1350.01 1957.39 1294.18 1957.39C1292.77 1957.39 1291.34 1957.33 1289.91 1957.23C1281.53 1956.56 1274 1955.4 1267.11 1953.88C1263.67 1956.21 1258.12 1960.03 1251.96 1964.45C1258.95 1969.24 1264.94 1973.53 1268.61 1977.41C1287.28 1967.37 1303.8 1957.4 1303.8 1957.4C1303.8 1957.4 1375.45 1967.29 1371.61 2002.76C1367.95 2036.88 1345.01 2048.31 1333.59 2048.31C1333.13 2048.31 1332.69 2048.29 1332.27 2048.25C1323.09 2047.47 1276.31 2033.28 1261.23 2033.28C1258.48 2033.28 1256.78 2033.76 1256.57 2034.88C1255.18 2042.08 1293.39 2065.67 1320.14 2066.77C1320.14 2066.77 1281.56 2101.31 1249.43 2101.31C1244.79 2101.31 1240.28 2100.59 1236.05 2098.93C1202.48 2085.89 1199.62 2065.21 1178.69 2057.45C1168.29 2053.59 1158.64 2051.65 1152.63 2051.65C1146.55 2051.65 1144.19 2053.64 1148.53 2057.63C1157.17 2065.53 1195.05 2073.23 1207.02 2090.4C1217.31 2105.19 1226.69 2115.83 1207.04 2115.83C1203.84 2115.83 1199.86 2115.53 1194.99 2114.95C1160.25 2110.71 1103.79 2090.05 1101.31 2066.45C1094.07 2067.48 1079.02 2078.31 1068.15 2086.79C1066.47 2088.28 1064 2090.28 1060.47 2092.93C1059.13 2094.04 1058.03 2094.95 1057.2 2095.64C1050.05 2101.99 1043.96 2110.68 1038.96 2119.57H1255.04V2124.61H1250.33C1247.83 2191.56 1196.13 2248.43 1123.59 2272.21H1228.21C1240.31 2272.21 1250.39 2279.19 1252.72 2288.43C1252.99 2289.52 1253.15 2290.65 1253.2 2291.8C1253.04 2291.8 1252.88 2291.8 1252.72 2291.8C1235.68 2291.91 1219.97 2291.97 1206.69 2291.97ZM1070.51 1968.43C1060.58 1973.12 1045.69 1995.53 1035.35 2012.73C1034.61 2014.2 1033.67 2015.95 1032.47 2018C1031.27 2020.08 1029.82 2022.47 1028.09 2025.21C1026.68 2027.71 1025.56 2029.73 1024.79 2031.17C1011.76 2057.64 1012.41 2097.33 1014.11 2119.57H1027.83C1041.08 2098.4 1060.09 2086.96 1060.09 2086.96C1089.34 2065.93 1098.85 2042.83 1098.85 2042.83C1098.85 2042.83 1062.56 2008.45 1081.41 1979.93C1076.7 1976.53 1072.96 1972.69 1070.51 1968.43ZM1101.01 2063.48C1100.95 2065.36 1101.31 2066.45 1101.31 2066.45C1101.22 2065.41 1101.11 2064.44 1101.01 2063.48ZM1068.09 1964.21C1069.17 1966.83 1070.35 1968.24 1070.49 1968.41C1069.66 1966.93 1068.86 1965.56 1068.09 1964.21ZM1218.22 1945.89C1226.86 1945.89 1235.7 1946.12 1243.84 1946.69C1218.3 1936.55 1202.27 1922.88 1178.13 1921.37C1173.88 1921.11 1169.77 1920.99 1165.85 1920.99C1136.67 1920.99 1118.16 1927.89 1133.97 1934.83C1147.06 1940.52 1182.84 1939.28 1212.52 1945.93C1214.4 1945.91 1216.3 1945.89 1218.22 1945.89Z" fill="#CC6216"/>
<path d="M1034.04 1984.91C1034.04 1984.91 984.688 1927.32 1031 1890.75C1031 1890.75 1064.83 1870.27 1092.41 1871.93C1092.41 1871.93 1053.33 1937.47 1065.97 1943.99C1078.62 1950.51 1104.26 1867.81 1104.26 1867.81C1104.26 1867.81 1181.24 1860.35 1206.01 1872.25C1206.01 1872.25 1140.2 1926.12 1154.06 1929.32C1167.92 1932.52 1239 1879.67 1239 1879.67C1239 1879.67 1310.65 1891.85 1306.83 1935.57C1303.01 1979.28 1278.32 1992.77 1267.47 1991.61C1256.62 1990.45 1193.15 1966.21 1191.76 1975.11C1190.38 1984 1228.59 2013.05 1255.34 2014.41C1255.34 2014.41 1204.83 2070.12 1171.26 2054.04C1137.69 2037.97 1134.82 2012.48 1113.89 2002.92C1092.97 1993.36 1075.1 1993.39 1083.74 2003.13C1092.38 2012.88 1130.26 2022.36 1142.22 2043.53C1154.19 2064.69 1164.93 2078.97 1130.19 2073.75C1095.46 2068.52 1039 2043.11 1036.52 2014C1034.04 1984.91 1034.04 1984.91 1034.04 1984.91Z" fill="#82B378"/>
<path d="M1271.63 1936.75C1271.63 1936.75 1077.02 1929.25 1034.04 1984.91C1034.04 1984.91 1024.54 2013.37 995.293 2039.29C995.293 2039.29 953.522 2070.17 950.621 2125.37L958.202 2126.05C958.202 2126.05 970.222 2074.64 992.061 2050.33C992.912 2049.45 994.145 2048.19 995.668 2046.65C999.21 2043.37 1001.68 2040.92 1003.36 2039.08C1014.23 2028.63 1029.28 2015.29 1036.52 2014C1036.52 2014 1017.65 1945.05 1271.63 1936.75Z" fill="#82B378"/>
<path d="M861.478 1912.49C861.478 1912.49 939.992 1868.52 903.352 1808.85C903.352 1808.85 874.04 1772.21 842.636 1762.79C842.636 1762.79 859.385 1851.77 842.636 1853.87C825.885 1855.96 831.12 1753.37 831.12 1753.37C831.12 1753.37 748.42 1713.59 715.968 1716.73C715.968 1716.73 767.263 1803.61 750.513 1801.52C733.764 1799.43 676.188 1711.49 676.188 1711.49C676.188 1711.49 591.393 1695.79 577.784 1746.04C564.176 1796.29 586.16 1821.41 598.721 1824.56C611.283 1827.69 691.889 1826.65 689.797 1837.12C687.702 1847.59 633.266 1864.33 602.909 1854.91C602.909 1854.91 636.408 1937.61 680.375 1933.43C724.343 1929.24 737.95 1902.01 765.169 1899.92C792.386 1897.83 812.277 1905.16 798.668 1912.49C785.058 1919.81 738.998 1914.89 717.014 1933.57C695.03 1952.27 677.234 1963.79 718.061 1972.16C758.888 1980.53 832.166 1975.29 846.822 1943.89C861.478 1912.49 861.478 1912.49 861.478 1912.49Z" fill="#A8D29F"/>
<path d="M882.416 1988.91C860.432 1948.08 861.479 1912.49 861.479 1912.49C836.355 1832.93 616.518 1761.75 616.518 1761.75C896.024 1874.8 846.823 1943.89 846.823 1943.89C854.355 1948.28 865.65 1969.24 873.487 1985.32C874.603 1988.05 876.371 1991.84 878.998 1996.97C880.062 1999.29 880.912 2001.2 881.5 2002.52C895.892 2038.53 888.268 2100.72 888.268 2100.72L896.99 2103.05C916.318 2040.39 882.416 1988.91 882.416 1988.91Z" fill="#82B378"/>
<path d="M986.387 1851.85C986.387 1851.85 882.891 1793.89 931.189 1715.24C931.189 1715.24 969.827 1666.95 1011.23 1654.52C1011.23 1654.52 989.145 1771.81 1011.23 1774.57C1033.3 1777.33 1026.4 1642.11 1026.4 1642.11C1026.4 1642.11 1135.42 1589.67 1178.2 1593.8C1178.2 1593.8 1110.58 1708.33 1132.66 1705.57C1154.74 1702.81 1230.63 1586.91 1230.63 1586.91C1230.63 1586.91 1342.41 1566.2 1360.35 1632.44C1378.28 1698.68 1349.31 1731.8 1332.75 1735.93C1316.19 1740.08 1209.93 1738.69 1212.69 1752.49C1215.45 1766.29 1287.21 1788.37 1327.23 1775.96C1327.23 1775.96 1283.07 1884.97 1225.11 1879.45C1167.16 1873.93 1149.22 1838.05 1113.34 1835.29C1077.46 1832.53 1051.24 1842.19 1069.18 1851.85C1087.12 1861.51 1147.84 1855.01 1176.82 1879.65C1205.79 1904.29 1229.25 1919.47 1175.44 1930.51C1121.62 1941.55 1025.02 1934.65 1005.71 1893.25C986.387 1851.85 986.387 1851.85 986.387 1851.85Z" fill="#A8D29F"/>
<path d="M1309.29 1653.15C1309.29 1653.15 1019.5 1746.97 986.387 1851.85C986.387 1851.85 987.767 1898.77 958.788 1952.59C958.788 1952.59 914.099 2020.45 939.576 2103.05L951.073 2099.97C951.073 2099.97 941.024 2018 959.993 1970.53C960.768 1968.79 961.891 1966.28 963.295 1963.21C966.755 1956.44 969.085 1951.45 970.556 1947.85C980.889 1926.65 995.777 1899.04 1005.71 1893.25C1005.71 1893.25 940.848 1802.17 1309.29 1653.15Z" fill="#82B378"/>
<path d="M780.169 2079.47C780.169 2191.44 870.935 2282.2 982.899 2282.2C1094.86 2282.2 1185.63 2191.44 1185.63 2079.47H780.169Z" fill="#699DEE"/>
<path d="M1032.79 2280.65C1024.54 2281.68 1016.13 2282.2 1007.6 2282.2C895.635 2282.2 804.877 2191.43 804.877 2079.47H855.241C855.241 2182.91 932.705 2268.24 1032.79 2280.65Z" fill="#A1C7FF"/>
<path d="M1163.42 2267.51H802.381C788.568 2267.51 777.369 2278.71 777.369 2292.52H1188.43C1188.43 2278.71 1177.23 2267.51 1163.42 2267.51Z" fill="#4A75CB"/>
<path d="M773.503 2079.47V2085.69H1190.24V2079.47H773.503Z" fill="#4A75CB"/>
<path d="M3427.53 1687.68V1882.36C3427.53 1916.57 3417.87 1944.24 3405.92 1944.24H3024.68C3012.73 1944.24 3003.07 1916.57 3003.07 1882.36V1687.68C3003.07 1653.48 3036.76 1621.8 3135.59 1622.89L3405.92 1625.8C3417.87 1625.8 3427.53 1653.48 3427.53 1687.68Z" fill="#F1A34F"/>
<path d="M3478.04 1687.68V1882.36C3478.04 1916.57 3468.39 1944.24 3456.43 1944.24H3075.19C3063.24 1944.24 3053.59 1916.57 3053.59 1882.36V1687.68C3053.59 1653.48 3089.47 1620.69 3144.37 1621.8L3456.43 1625.8C3468.39 1625.8 3478.04 1653.48 3478.04 1687.68Z" fill="#E78B37"/>
<path d="M3384.04 1454.19C3389.23 1442.71 3381.44 963.48 3498.28 969.227C3615.13 974.96 3833.24 980.707 3833.24 980.707C3833.24 980.707 3931.91 989.307 3872.19 1224.61C3812.47 1459.92 3825.45 1832.97 3825.45 1832.97H3394.43L3384.04 1454.19Z" fill="#F1A34F"/>
<path d="M3789.05 1224.65C3781.85 1252.76 3775.88 1282.8 3770.61 1313.91C3749.53 1439.87 3743.03 1583.4 3741.45 1687.59C3740.21 1773.68 3742.32 1832.88 3742.32 1832.88H3311.36L3301 1454.11C3306.09 1442.68 3298.36 963.4 3415.2 969.2C3474.93 972.187 3561.19 975 3631.12 977.28C3639.91 977.467 3648.51 977.813 3656.76 977.987C3710.88 979.573 3750.23 980.627 3750.23 980.627C3750.23 980.627 3848.79 989.227 3789.05 1224.65Z" fill="#E78B37"/>
<path d="M3518.36 2185.95V1933.17C3518.36 1922.45 3509.4 1913.49 3498.68 1913.49H3498.51C3495 1913.49 3491.65 1914.55 3488.85 1916.31C3482.88 1919.64 3478.84 1925.96 3478.84 1933.17V2186.29C3478.07 2186.41 3477.31 2186.55 3476.55 2186.68C3419.97 2195.47 3373.95 2236.93 3358.49 2291.23H3640.81C3624.92 2235.56 3577.07 2193.44 3518.36 2185.95Z" fill="#D16E24"/>
<path d="M3616.95 974.053C3574.08 972.533 3531.97 970.88 3498.28 969.227C3497.59 969.187 3496.91 969.173 3496.21 969.173C3490.95 969.173 3485.93 970.173 3481.17 972.08C3473.39 971.773 3465.72 971.467 3458.27 971.16C3466.41 963.093 3471.59 959.68 3471.59 959.68L3616.95 974.053Z" fill="#E7B999"/>
<path d="M3656.76 977.987C3648.51 977.813 3639.91 977.467 3631.12 977.28C3584.17 975.747 3529.87 973.987 3481.17 972.08C3485.93 970.173 3490.95 969.173 3496.21 969.173C3496.91 969.173 3497.59 969.187 3498.28 969.227C3531.97 970.88 3574.08 972.533 3616.95 974.053L3656.76 977.987Z" fill="#DF812F"/>
<path d="M3741.45 1687.59C3687.87 1684.08 3515.52 1672.31 3515.52 1672.31L3530 1319.35C3484.65 1423.95 3436.56 1511.97 3403.15 1511.97C3384.53 1511.97 3370.47 1484.63 3363.99 1417.56C3335.53 1123.35 3423.67 1005.41 3458.27 971.16C3465.72 971.467 3473.39 971.773 3481.17 972.08C3529.87 973.987 3584.17 975.747 3631.12 977.28C3639.91 977.467 3648.51 977.813 3656.76 977.987C3675.21 1006.45 3759.72 1144.72 3770.27 1306.35C3770.44 1308.81 3770.61 1311.44 3770.61 1313.91C3749.53 1439.87 3743.03 1583.4 3741.45 1687.59Z" fill="#D97321"/>
<path d="M3488.85 1916.31C3482.88 1919.64 3478.84 1925.96 3478.84 1933.17V2242.91C3478.84 2250.28 3482.88 2256.61 3488.85 2259.77C3494.64 2256.44 3498.68 2250.11 3498.68 2242.91V1933.17C3498.68 1925.96 3494.64 1919.64 3488.85 1916.31Z" fill="#F1A34F"/>
<path d="M3476.55 2186.68C3419.97 2195.47 3373.95 2236.93 3358.49 2291.23H3594.61C3579.15 2236.93 3533.29 2195.47 3476.55 2186.68Z" fill="#F1A34F"/>
<path d="M3831.61 1854.64L3821.87 1910.59C3821.87 1922.53 3821.95 1944.24 3810 1944.24H3138.88C3126.93 1944.24 3117.27 1934.57 3117.27 1922.63V1854.64C3117.27 1842.69 3126.93 1833.03 3138.88 1833.03H3810C3821.95 1833.03 3831.61 1842.69 3831.61 1854.64Z" fill="#F1A34F"/>
<path d="M3024.33 2250.49C3025.56 2256.47 3026.79 2262.61 3026.44 2268.95C3025.56 2272.45 3023.28 2275.09 3019.93 2277.2L3016.77 2283.17C3013.44 2284.76 3005.36 2285.99 2994.99 2287.04L2994.81 2282.12C2993.41 2282.12 2992 2282.12 2990.6 2282.29V2282.12C2978.31 2282.29 2963.01 2283.35 2944.39 2290.73C2944.21 2290.73 2944.04 2290.91 2943.87 2290.91C2940.53 2291.08 2937.19 2291.25 2934.2 2291.43H2888.88C2867.09 2288.27 2858.48 2279.49 2856.89 2275.09C2856.89 2273.87 2873.24 2265.79 2886.77 2261.92C2886.95 2261.92 2887.29 2261.75 2887.83 2261.75C2889.75 2261.04 2893.44 2259.63 2894.32 2259.45C2896.79 2258.57 2899.59 2257.88 2902.05 2257.17C2924.72 2250.49 2940 2235.39 2957.92 2218.69C2978.48 2199.55 3006.41 2114.16 3002.72 2112.59L3048.93 2118.56C3048.93 2118.56 3011.85 2192.69 3014.84 2215.71C3016.07 2225.91 3019.76 2234.51 3022.23 2243.29C3022.4 2243.64 3022.4 2244.17 3022.57 2244.52C3023.11 2245.76 3023.45 2246.99 3023.8 2248.21C3023.97 2249.09 3024.16 2249.8 3024.33 2250.49Z" fill="#EF9A60"/>
<path d="M3605.8 1609.31L3407.07 1601.19C3407.07 1601.19 3104.84 1620.69 3079.2 1664.63L2965.23 2197.72C2965.23 2197.72 2971.53 2206.24 2992.95 2209.91C3004.27 2211.84 3028.91 2206.24 3028.91 2206.24C3028.91 2206.24 3176.51 2017.51 3195.48 1899C3211.33 1799.97 3217.61 1789.63 3271.89 1791.68C3326.19 1793.73 3492.77 1806.85 3571.93 1791.52C3651.09 1776.2 3605.8 1609.31 3605.8 1609.31Z" fill="#233862"/>
<path d="M3027.32 2264.03C3027.32 2265.79 3027.15 2267.53 3026.44 2268.95C3025.56 2272.45 3023.28 2275.09 3019.93 2277.2C3019.59 2277.55 3019.24 2277.73 3018.88 2277.91C3018.88 2277.91 3018.88 2277.91 3018.71 2277.91C3018.53 2278.08 3018.36 2278.08 3018.19 2278.25C3012.39 2281.77 3004.65 2281.77 2994.81 2282.12H2990.6C2978.31 2282.29 2963.01 2283.35 2944.39 2290.73C2944.21 2290.73 2944.04 2290.91 2943.87 2290.91C2943.33 2291.08 2942.99 2291.25 2942.45 2291.43H2865.68C2855.15 2287.21 2853.04 2280.55 2851.99 2278.08C2851.11 2276.15 2853.56 2274.04 2858.31 2271.76C2858.65 2271.57 2859.19 2271.4 2859.53 2271.05C2866.21 2268.07 2876.23 2264.91 2886.95 2261.39C2887.12 2261.56 2887.47 2261.56 2887.83 2261.75C2895.03 2264.2 2920.15 2272.11 2949.67 2266.49C2974.27 2261.75 2998.68 2250.15 3017.48 2244.52C3019.05 2244.17 3020.64 2243.64 3022.23 2243.29C3022.57 2243.12 3022.92 2243.12 3023.28 2242.95C3023.63 2243.64 3023.8 2244.52 3023.97 2245.23C3025.73 2251.2 3027.32 2257.52 3027.32 2264.03Z" fill="#365DA4"/>
<path d="M3020.99 2275.27L3019.93 2277.2L3016.77 2283.17L3012.39 2291.43H2990.77V2287.04L2990.6 2282.29V2280.19L3019.76 2275.44L3020.99 2275.27Z" fill="#365DA4"/>
<path d="M3091.68 2250.49C3092.91 2256.47 3094.13 2262.61 3093.79 2268.95C3092.91 2272.45 3090.63 2275.09 3087.28 2277.2L3084.12 2283.17C3080.79 2284.76 3072.71 2285.99 3062.33 2287.04L3062.16 2282.12C3060.76 2282.12 3059.35 2282.12 3057.95 2282.29V2282.12C3045.65 2282.29 3030.36 2283.35 3011.73 2290.73C3011.56 2290.73 3011.39 2290.91 3011.21 2290.91C3007.88 2291.08 3004.53 2291.25 3001.55 2291.43H2956.23C2934.44 2288.27 2925.83 2279.49 2924.25 2275.09C2924.25 2273.87 2940.59 2265.79 2954.11 2261.92C2954.29 2261.92 2954.64 2261.75 2955.17 2261.75C2957.11 2261.04 2960.79 2259.63 2961.67 2259.45C2964.13 2258.57 2966.95 2257.88 2969.4 2257.17C2992.07 2250.49 3007.35 2235.39 3025.27 2218.69C3045.83 2199.55 3073.76 2114.16 3070.07 2112.59L3116.28 2118.56C3116.28 2118.56 3079.2 2192.69 3082.19 2215.71C3083.41 2225.91 3087.11 2234.51 3089.57 2243.29C3089.75 2243.64 3089.75 2244.17 3089.92 2244.52C3090.44 2245.76 3090.8 2246.99 3091.15 2248.21C3091.32 2249.09 3091.51 2249.8 3091.68 2250.49Z" fill="#FFB27D"/>
<path d="M3485.24 1116.24L3469.77 1177.63L3388.56 1498.52C3385.45 1503.36 3359.6 1513.59 3330.99 1523.19C3296.92 1534.57 3258.88 1545.31 3251.68 1544.68C3238.51 1543.61 3231.23 1516.09 3234.97 1508.33C3237.4 1503.21 3280.83 1480.17 3314.79 1459.52C3333.75 1448 3349.72 1437.24 3354.15 1430.83C3362.12 1418.95 3381.97 1309.69 3398.15 1229.72C3406.39 1188.71 3413.76 1155.37 3418.01 1146.63C3428.84 1123.81 3470.95 1117.65 3482.35 1116.48C3484.17 1116.24 3485.24 1116.24 3485.24 1116.24Z" fill="#466AA5"/>
<path d="M3658.36 1609.49L3459.64 1601.36C3459.64 1601.36 3157.4 1620.88 3131.76 1664.81L3026.44 2208.43C3026.44 2208.43 3044.83 2214.71 3056.36 2215.57C3074.75 2216.95 3087.39 2210.91 3087.39 2210.91C3087.39 2210.91 3229.07 2017.68 3248.05 1899.19C3263.91 1800.16 3270.17 1789.81 3324.47 1791.87C3378.76 1793.92 3545.35 1807.04 3624.51 1791.71C3703.67 1776.37 3658.36 1609.49 3658.36 1609.49Z" fill="#2B478B"/>
<path d="M3094.67 2264.03C3094.67 2265.79 3094.49 2267.53 3093.79 2268.95C3092.91 2272.45 3090.63 2275.09 3087.28 2277.2C3086.93 2277.55 3086.59 2277.73 3086.23 2277.91C3086.23 2277.91 3086.23 2277.91 3086.05 2277.91C3085.88 2278.08 3085.71 2278.08 3085.53 2278.25C3079.73 2281.77 3072 2281.77 3062.16 2282.12H3057.95C3045.65 2282.29 3030.36 2283.35 3011.73 2290.73C3011.56 2290.73 3011.39 2290.91 3011.21 2290.91C3010.68 2291.08 3010.33 2291.25 3009.8 2291.43H2933.03C2922.49 2287.21 2920.39 2280.55 2919.33 2278.08C2918.45 2276.15 2920.91 2274.04 2925.65 2271.76C2926 2271.57 2926.53 2271.4 2926.88 2271.05C2933.56 2268.07 2943.57 2264.91 2954.29 2261.39C2954.47 2261.56 2954.81 2261.56 2955.17 2261.75C2962.37 2264.2 2987.49 2272.11 3017.01 2266.49C3041.61 2261.75 3066.03 2250.15 3084.83 2244.52C3086.4 2244.17 3087.99 2243.64 3089.57 2243.29C3089.92 2243.12 3090.27 2243.12 3090.63 2242.95C3090.97 2243.64 3091.15 2244.52 3091.32 2245.23C3093.08 2251.2 3094.67 2257.52 3094.67 2264.03Z" fill="#466AA5"/>
<path d="M3088.33 2275.27L3087.28 2277.2L3084.12 2283.17L3079.73 2291.43H3058.12V2287.04L3057.95 2282.29V2280.19L3087.11 2275.44L3088.33 2275.27Z" fill="#466AA5"/>
<path d="M3584.64 1029.96C3679.95 1022.72 3698.59 827.12 3585.2 850.933C3585.2 850.933 3569.31 840.547 3561.45 840.44C3561.45 840.44 3567.53 842.667 3570.17 846.467C3557.93 843.733 3538.93 839.293 3523.97 847.773C3370.64 934.747 3547.71 1032.76 3584.64 1029.96Z" fill="#163560"/>
<path d="M3477.11 1134.09C3476.72 1134.2 3508.45 1157.81 3535.67 1154.91C3561.25 1152.2 3582.43 1123.01 3582.11 1122.88C3572.05 1119.13 3571.37 1104.39 3581.53 1043.12L3576.69 1043.29L3495.25 1046.12C3495.25 1046.12 3493.03 1071.24 3489.28 1094.64C3486.15 1114.29 3481.95 1132.73 3477.11 1134.09Z" fill="#FFB27D"/>
<path d="M3469.77 1177.63L3388.56 1498.52C3385.45 1503.36 3359.6 1513.59 3330.99 1523.19C3328.56 1517.28 3326.28 1510.49 3324.11 1503.03C3319.77 1488.08 3316.61 1473.51 3314.79 1459.52C3333.75 1448 3349.72 1437.24 3354.15 1430.83C3362.12 1418.95 3381.97 1309.69 3398.15 1229.72C3434.55 1193.99 3468.89 1176.41 3468.89 1176.41L3469.77 1177.63Z" fill="#2B478B"/>
<path d="M3495.25 1046.12C3495.25 1046.12 3493.03 1071.24 3489.28 1094.64C3533.64 1100.56 3563.51 1064.07 3576.69 1043.29L3495.25 1046.12Z" fill="#EF9A60"/>
<path d="M3586.23 1036.03C3586.23 1036.03 3615.29 1003.21 3625.92 972.853C3633.51 951.173 3635.55 866.6 3550.48 865.04C3550.48 865.04 3525.95 863.493 3500.76 875.147C3480.73 884.413 3450.43 906.507 3467.84 983.427L3471.45 1009.04L3586.23 1036.03Z" fill="#163560"/>
<path d="M3476.92 1065.88C3476.92 1065.88 3581.11 1084.55 3591.72 1019.48C3602.35 954.412 3622.95 913.012 3556.88 898.346C3490.8 883.679 3473.79 906.386 3464.96 927.239C3456.13 948.092 3450.09 1059.35 3476.92 1065.88Z" fill="#FFB27D"/>
<path d="M3509.56 889.04C3509.56 889.04 3525.77 970.014 3567.84 988.427C3609.91 1006.83 3630.85 998.147 3630.85 998.147C3630.85 998.147 3601.52 965.947 3602.11 918.12C3602.11 918.12 3537.03 856.2 3509.56 889.04Z" fill="#163560"/>
<path d="M3515.64 896.387C3515.64 896.387 3491.52 909.96 3483.61 925.693C3475.72 941.413 3467.85 975.147 3458.09 972.373C3458.09 972.373 3444.96 917 3473.93 891.56C3504.67 864.6 3515.64 896.387 3515.64 896.387Z" fill="#163560"/>
<path d="M3666.56 1708.23C3658.28 1723.08 3640.29 1724.27 3617.68 1717.75C3606.77 1714.73 3594.93 1709.79 3582.52 1704.04C3581.39 1703.32 3580.05 1702.75 3578.91 1702.2C3542.28 1684.35 3501.44 1657.44 3469.52 1636.95C3402.61 1594.07 3398.19 1618.09 3378.35 1594.4C3378.35 1594.4 3398.73 1572.97 3372.59 1322.59C3365.16 1250.89 3485.24 1116.24 3485.24 1116.24C3485.24 1116.24 3486.04 1160.68 3582.05 1122.85C3585.45 1121.63 3611.71 1178.21 3634.63 1246.53C3638.37 1257.45 3641.91 1268.53 3645.25 1279.76C3661.23 1332.72 3673.08 1388.03 3669.88 1426.49C3669.11 1435.61 3667.59 1443.92 3665.04 1450.8C3664.76 1451.47 3664.48 1452.13 3664.19 1452.8C3631.24 1532 3690.23 1665.44 3666.56 1708.23Z" fill="#466AA5"/>
<path d="M3336.24 1395.36L3159.28 1382.71L3235.05 1589.03L3400.76 1606.21L3336.24 1395.36Z" fill="#B64C41"/>
<path d="M3334.67 1397.59L3157.71 1384.95L3233.48 1591.25L3399.19 1608.45L3334.67 1397.59Z" fill="#D6716B"/>
<path d="M3318.73 1394.11C3318.73 1394.11 3322.99 1367.37 3307.92 1366.83C3292.85 1366.28 3284.04 1392.41 3284.04 1392.41L3318.73 1394.11Z" fill="#B2CBFD"/>
<path d="M3290.41 1418.32C3294.63 1437.33 3318.96 1468.45 3317.51 1484.2L3204.4 1482.73C3204.4 1482.73 3205.13 1475.41 3180.97 1423.44C3171.04 1402.07 3182.8 1363.45 3192.99 1362.57L3307.89 1366.79C3307.89 1366.79 3282.21 1381.25 3290.41 1418.32Z" fill="#D2E9FF"/>
<path d="M3159.28 1382.71L3157.71 1384.95L3161.61 1385.19L3161.27 1383.81L3159.28 1382.71Z" fill="#B64C41"/>
<path d="M3399.19 1608.45L3400.76 1606.21L3397.77 1603.91L3399.19 1608.45Z" fill="#B64C41"/>
<path d="M3666.56 1708.23C3658.28 1723.08 3640.29 1724.27 3617.68 1717.75C3606.77 1714.73 3594.93 1709.79 3582.52 1704.04C3538.55 1675.55 3491.47 1630.01 3465.04 1557.03C3405.65 1393.08 3634.03 1274.37 3634.03 1274.37L3645.25 1279.76C3661.23 1332.72 3673.08 1388.03 3669.88 1426.49C3669.11 1435.61 3667.59 1443.92 3665.04 1450.8C3664.76 1451.47 3664.48 1452.13 3664.19 1452.8C3631.24 1532 3690.23 1665.44 3666.56 1708.23Z" fill="#2B478B"/>
<path d="M3403.81 1538.84L3396.65 1533.75L3465.29 1437.05L3472.45 1442.13L3403.81 1538.84Z" fill="#D16E24"/>
<path d="M3396.65 1533.75L3396.09 1542.36L3403.81 1538.84L3396.65 1533.75Z" fill="#F1A34F"/>
<path d="M3488.21 1492.07C3488.21 1492.07 3457.24 1479.21 3441.53 1482.83C3425.81 1486.44 3393.85 1496.95 3395.27 1505.57C3396.67 1514.21 3430.89 1524.24 3446.96 1518.44C3463.03 1512.64 3472.27 1524.79 3491.25 1521.71C3510.25 1518.61 3488.21 1492.07 3488.21 1492.07Z" fill="#FFB27D"/>
<path d="M3582.11 1122.88C3582.11 1122.88 3679.63 1139.44 3691.77 1165.15C3703.92 1190.84 3695.85 1460.21 3688.28 1488.65C3680.69 1517.08 3523.16 1530.48 3475.99 1528.76C3475.99 1528.76 3468.56 1496.79 3477.39 1478.93C3486.21 1461.08 3602.8 1441.79 3612.37 1428.51C3621.95 1415.23 3593.24 1251.51 3596.95 1219.48C3600.65 1187.45 3582.11 1122.88 3582.11 1122.88Z" fill="#466AA5"/>
<path d="M3199.95 1502.36C3199.95 1502.36 3232.15 1499.24 3227.79 1512.44C3223.43 1525.64 3211.27 1532.01 3211.27 1532.01C3211.27 1532.01 3186.36 1514.07 3199.95 1502.36Z" fill="#FFB27D"/>
<path d="M3781.11 1687.68V1882.36C3781.11 1916.57 3771.44 1944.24 3759.49 1944.24H3378.25C3366.31 1944.24 3356.64 1916.57 3356.64 1882.36V1687.68C3356.64 1653.48 3387.04 1619.6 3491.36 1625.8H3759.49C3771.44 1625.8 3781.11 1653.48 3781.11 1687.68Z" fill="#F1A34F"/>
<path d="M3831.61 1687.68V1882.36C3831.61 1916.57 3821.95 1944.24 3810 1944.24H3428.76C3416.81 1944.24 3407.15 1916.57 3407.15 1882.36V1687.68C3407.15 1653.48 3439.75 1622.89 3516.61 1625.8L3788.93 1623.99C3831.75 1623.99 3831.61 1653.48 3831.61 1687.68Z" fill="#DF812F"/>
<path d="M4232.64 1773.77H3736.97C3725.19 1773.77 3715.53 1783.43 3715.53 1795.21V1802.89C3715.53 1814.68 3725.19 1824.33 3736.97 1824.33H3965.57L3978.4 2216.73C3915.19 2218.72 3862.95 2250.05 3849.2 2291.61H4120.41C4106.77 2250.39 4055.25 2219.24 3992.71 2216.8L4004.08 1824.33H4232.64C4244.44 1824.33 4254.08 1814.68 4254.08 1802.89V1795.21C4254.08 1783.43 4244.44 1773.77 4232.64 1773.77Z" fill="#4A75CB"/>
<path d="M3950.13 1744.65C3948.44 1749.01 3940.87 1751.36 3937.13 1752.27C3938.63 1748.83 3939.56 1745.11 3939.83 1741.19C3942.13 1738.04 3945.77 1736.19 3948.44 1736.68C3950.83 1737.11 3952.27 1739.15 3950.13 1744.65ZM3953.65 1732.55C3950.49 1730.6 3944.36 1731.36 3939.91 1732.29V1725.84C3939.91 1724.43 3939.8 1723.01 3939.63 1721.64H3872.88C3872.71 1723.01 3872.6 1724.43 3872.6 1725.84V1738.95C3872.6 1757.45 3887.75 1772.6 3906.25 1772.6C3916.28 1772.6 3925.31 1768.16 3931.48 1761.15C3931.48 1761.15 3947.36 1757.24 3952.35 1751.32C3957.33 1745.4 3958.95 1735.81 3953.65 1732.55Z" fill="#699DEE"/>
<path d="M3878.07 1725.84V1738.95C3878.07 1757.45 3893.21 1772.61 3911.71 1772.61C3913.24 1772.61 3914.76 1772.49 3916.24 1772.28C3899.85 1770.07 3887.11 1755.92 3887.11 1738.95V1725.84C3887.11 1724.43 3887.21 1723.01 3887.39 1721.64H3878.33C3878.16 1723.01 3878.07 1724.43 3878.07 1725.84Z" fill="#AFCDFB"/>
<path d="M3919.96 1773.77H3892.49V1769.67H3919.96V1773.77Z" fill="#699DEE"/>
<path d="M4126.92 1744.65C4125.23 1749.01 4117.65 1751.36 4113.92 1752.27C4115.41 1748.83 4116.35 1745.11 4116.61 1741.19C4118.91 1738.04 4122.56 1736.19 4125.23 1736.68C4127.61 1737.11 4129.05 1739.15 4126.92 1744.65ZM4130.44 1732.55C4127.28 1730.6 4121.15 1731.36 4116.69 1732.29V1725.84C4116.69 1724.43 4116.59 1723.01 4116.41 1721.64H4049.67C4049.49 1723.01 4049.39 1724.43 4049.39 1725.84V1738.95C4049.39 1757.45 4064.53 1772.6 4083.04 1772.6C4093.07 1772.6 4102.09 1768.16 4108.27 1761.15C4108.27 1761.15 4124.15 1757.24 4129.13 1751.32C4134.12 1745.4 4135.73 1735.81 4130.44 1732.55Z" fill="#699DEE"/>
<path d="M4054.85 1725.84V1738.95C4054.85 1757.45 4070 1772.61 4088.49 1772.61C4090.03 1772.61 4091.55 1772.49 4093.01 1772.28C4076.64 1770.07 4063.89 1755.92 4063.89 1738.95V1725.84C4063.89 1724.43 4064 1723.01 4064.17 1721.64H4055.12C4054.95 1723.01 4054.85 1724.43 4054.85 1725.84Z" fill="#AFCDFB"/>
<path d="M4096.75 1773.77H4069.28V1769.67H4096.75V1773.77Z" fill="#699DEE"/>
<path d="M4322.52 2300.31H369.601C367.425 2300.31 365.644 2298.52 365.644 2296.35V2295.39C365.644 2293.21 367.425 2291.43 369.601 2291.43H4322.52C4324.69 2291.43 4326.48 2293.21 4326.48 2295.39V2296.35C4326.48 2298.52 4324.69 2300.31 4322.52 2300.31Z" fill="#283250"/>
</svg>
